<svg width="1921" height="901" viewBox="0 0 1921 801" fill="none" xmlns="http://www.w3.org/2000/svg">
<path d="M37.5801 -45.2135C385.218 -45.2137 1713.33 88.3502 2037.71 -45.2136C2362.08 -178.777 2021.97 865.41 2037.71 673.758C2053.44 482.107 444.918 908.19 37.5797 673.758C-369.758 439.327 -310.058 -45.2133 37.5801 -45.2135Z" fill="#BDE5BE"/>
<g filter="url(#filter0_d_2031_45)">
<path d="M1685.75 407.664C1685.75 -59.3366 1041.48 99.0884 1350.62 -174.147C1659.75 -447.383 1967.75 -170.409 1987.97 -36.1581C2008.19 98.0923 2304.97 -70.7309 2178.75 365.664C2052.52 802.059 1685.75 874.664 1685.75 407.664Z" fill="#008042"/>
</g>
<g filter="url(#filter1_d_2031_45)">
<path d="M-201.701 233.407C-262.517 569.774 45.5465 693.918 257.028 719.5C381.028 734.5 135.329 797.156 -5.5122 852C-531.512 1056.83 -575.1 780.754 -570.625 647.173C-566.15 513.592 -880.943 657.265 -682.213 237.527C-483.483 -182.212 -118.646 -225.959 -201.701 233.407Z" fill="#008042"/>
</g>
<defs>
<filter id="filter0_d_2031_45" x="1262.68" y="-290.278" width="951.221" height="1025.07" filterUnits="userSpaceOnUse" color-interpolation-filters="sRGB">
<feFlood flood-opacity="0" result="BackgroundImageFix"/>
<feColorMatrix in="SourceAlpha" type="matrix" values="0 0 0 0 0 0 0 0 0 0 0 0 0 0 0 0 0 0 127 0" result="hardAlpha"/>
<feOffset dy="4"/>
<feGaussianBlur stdDeviation="2"/>
<feComposite in2="hardAlpha" operator="out"/>
<feColorMatrix type="matrix" values="0 0 0 0 0 0 0 0 0 0 0 0 0 0 0 0 0 0 0.25 0"/>
<feBlend mode="normal" in2="BackgroundImageFix" result="effect1_dropShadow_2031_45"/>
<feBlend mode="normal" in="SourceGraphic" in2="effect1_dropShadow_2031_45" result="shape"/>
</filter>
<filter id="filter1_d_2031_45" x="-752.074" y="-94.4414" width="1047" height="1027.66" filterUnits="userSpaceOnUse" color-interpolation-filters="sRGB">
<feFlood flood-opacity="0" result="BackgroundImageFix"/>
<feColorMatrix in="SourceAlpha" type="matrix" values="0 0 0 0 0 0 0 0 0 0 0 0 0 0 0 0 0 0 127 0" result="hardAlpha"/>
<feOffset dy="4"/>
<feGaussianBlur stdDeviation="2"/>
<feComposite in2="hardAlpha" operator="out"/>
<feColorMatrix type="matrix" values="0 0 0 0 0 0 0 0 0 0 0 0 0 0 0 0 0 0 0.25 0"/>
<feBlend mode="normal" in2="BackgroundImageFix" result="effect1_dropShadow_2031_45"/>
<feBlend mode="normal" in="SourceGraphic" in2="effect1_dropShadow_2031_45" result="shape"/>
</filter>
</defs>
</svg>
