<svg width="500" height="500" xmlns="http://www.w3.org/2000/svg" fill="none">

 <g>
  <title>Layer 1</title>
  <path id="svg_1" fill="#EBEBEB" d="m462.92,211.33667l-113.18,0c0,0 11.22,-30.65 28.49,-30.65c17.27,0 22.68,21.16 22.68,21.16c0,0 11.65,-11.5 21.23,-11.5c9.58,0 17.86,15.19 17.86,15.19c0,0 13.56,-8.17 22.92,5.8z"/>
  <path id="svg_2" fill="#EBEBEB" d="m110,135.27667l-52.9199,0c0,0 11.82,-17.11 21.13,-17.11c9.31,0 12.06,11.42 12.06,11.42c0,0 6.58,-5.33 12.66,-4.38c6.08,0.95 7.0699,10.07 7.0699,10.07z"/>
  <path id="svg_3" fill="#EBEBEB" d="m371.52,52.03667l-52.9,0c0,0 11.82,-17.13 21.13,-17.13c9.31,0 12.07,11.42 12.07,11.42c0,0 6.57,-5.33 12.66,-4.38c6.09,0.95 7.04,10.09 7.04,10.09z"/>
  <path id="svg_4" fill="#EBEBEB" d="m206.17,102.32667l-103.0001,0c0,0 14.1101,-31.4999 29.2001,-33.4699c15.09,-1.97 22.31,23.4099 22.31,23.4099c0,0 9.74,-8.9999 17.39,-8.9999c7.65,0 13.56,11.8099 13.56,11.8099c0,0 15.29,-8.0599 20.54,7.25z"/>
  <path id="svg_5" fill="#EBEBEB" d="m190,277.07667l-103,0c0,0 14.11,-31.5 29.2,-33.47c15.09,-1.97 22.31,23.4 22.31,23.4c0,0 9.74,-9 17.39,-9c7.65,0 13.56,11.81 13.56,11.81c0,0 15.26,-8.05 20.54,7.26z"/>
  <path id="svg_6" fill="#263238" d="m58.8198,347.94667l50.29,-0.24l50.3002,-0.09l100.59,-0.17l100.59,0.17l50.3,0.09l50.29,0.24l-50.29,0.25l-50.3,0.08l-100.59,0.17l-100.59,-0.17l-50.3002,-0.09l-50.29,-0.24z"/>
  <path id="svg_7" fill="#92E3A9" d="m434.37,319.84667c-3.37,-4.35 -7.2,-9.14 -7,-14.92c0.22,-5.32 2,-11.23 6.9,-14.07c1.4,-0.8 2.42,-1.08 2.87,0.71c0.68,2.74 -0.49,6.07 -1.07,8.73c-0.801,3.414 -1.277,6.896 -1.42,10.4c-0.07,2.47 0.1,4.93 0.09,7.4c0,0.31 0,0.62 0,0.93c0,0.11 0,0.24 0,0.35l0.09,0.13c0.019,0.041 0.029,0.085 0.029,0.13c0,0.045 -0.01,0.089 -0.029,0.13c-0.008,0.034 -0.025,0.065 -0.05,0.09c-0.055,0.053 -0.13,0.082 -0.207,0.08c-0.077,-0.002 -0.15,-0.034 -0.203,-0.09z"/>
  <path id="svg_8" fill="white" d="m434.82,319.85667c-2.75,-4 -6,-8.08 -5.57,-13.13c0.238,-2.354 0.845,-4.655 1.8,-6.82c0.42,-1 1.64,-3.93 2.92,-4c2.32,-0.12 -0.78,9.19 -0.93,10.29c-0.464,4.046 0.132,8.144 1.73,11.89c0,0.31 0,0.62 0,0.93c-1.177,-2.628 -1.913,-5.432 -2.18,-8.3c-0.35,-4 1,-7.29 1.72,-11.12c0.16,-0.82 0.8,-3.44 -0.62,-3.23c-0.94,0.14 -2.15,3 -2.41,3.62c-0.895,2.055 -1.475,4.233 -1.72,6.46c-0.48,5.1 2.64,9.24 5.32,13.31c-0.01,0.039 -0.031,0.073 -0.06,0.1z"/>
  <path id="svg_9" fill="#92E3A9" d="m433.42,324.26667l-0.6,0.26c-0.022,0.014 -0.049,0.022 -0.075,0.022c-0.027,0 -0.053,-0.008 -0.075,-0.022c-0.047,-0.033 -0.08,-0.081 -0.093,-0.137c-0.013,-0.055 -0.005,-0.113 0.023,-0.163c0.022,-0.039 0.057,-0.067 0.1,-0.08l0.09,0l0.18,-0.06c2.38,-2.92 5.23,-5.43 7.59,-8.39c2.36,-2.96 4.3,-5.8 6.76,-8.44c1.55,-1.67 9.75,-9.48 11.5,-4.65c0.77,2.14 -0.92,5.21 -2,7c-1.434,2.374 -3.288,4.468 -5.47,6.18c-5.29,4.17 -11.8,5.77 -17.93,8.48z"/>
  <path id="svg_10" fill="white" d="m445.67,317.39667c2.136,-1.416 4.059,-3.13 5.71,-5.09c0.57,-0.68 3.29,-4 2.39,-5c-0.57,-0.7 -2.11,0.21 -2.63,0.49c-2.21,1.21 -3.8,3.35 -5.49,5.16c-3.443,3.67 -7.149,7.082 -11.09,10.21l-0.85,0.45l-0.71,0.38l-0.24,0.13l-0.18,0.11c-0.025,0.05 -0.032,0.108 -0.02,0.163c0.013,0.055 0.045,0.103 0.09,0.137l0.55,-0.29l-0.4,0.31l0.48,-0.22l0.12,-0.05c0.22,-0.16 0.45,-0.33 0.66,-0.5c3.993,-1.899 7.869,-4.033 11.61,-6.39zm-10.16,5.25c2.31,-1.82 4.51,-3.77 6.64,-5.81c1.71,-1.64 3.34,-3.36 4.93,-5.11c0.869,-1.022 1.822,-1.969 2.85,-2.83c0.81,-0.64 4,-2.73 3.2,0.22c-0.56,2.14 -3.3,4.53 -4.89,5.89c-1.786,1.503 -3.704,2.842 -5.73,4c-2.29,1.27 -4.66,2.44 -7,3.64z"/>
  <path id="svg_11" fill="#92E3A9" d="m422.91,335.46667c-0.052,-0.042 -0.096,-0.093 -0.13,-0.15c-2.73,-4.23 -7,-9.38 -6.77,-14.72c0.19,-3.94 2.36,-9.23 6.27,-10.84c4.42,-1.81 3.56,6.53 3.44,8.66c-0.527,5.71 -1.375,11.386 -2.54,17l0,0.1c-0.09,0.09 -0.18,0.03 -0.27,-0.05z"/>
  <path id="svg_12" fill="white" d="m423.13,335.52667c0,-0.34 -0.05,-0.68 -0.07,-1c-0.24,-3.89 -0.32,-7.8 -0.19,-11.7c0,-1 0.81,-8.52 -1.15,-8.16c-1.18,0.22 -1.89,3 -2.15,3.95c-0.463,1.655 -0.646,3.375 -0.54,5.09c0.26,3.94 2.27,7.5 3.67,11.16c0.07,0.17 0.14,0.34 0.2,0.52l0,0.11c0.1,0.05 0.19,0.11 0.23,0.03zm-3.49,-9.74c-0.34,-1.723 -0.39,-3.49 -0.15,-5.23c0.16,-1.15 0.86,-5.32 2.33,-5.4c0.77,-0.05 0.69,0.44 0.84,1.32c0.068,0.404 0.112,0.811 0.13,1.22c0,1 0,2 -0.08,3c-0.09,1.76 -0.14,3.52 -0.15,5.29c0,2.89 0.09,5.77 0.28,8.65c-1.01,-2.97 -2.57,-5.77 -3.2,-8.85z"/>
  <path id="svg_13" fill="#92E3A9" d="m436.67,336.87667c-5.441,2.298 -11.443,2.921 -17.24,1.79l-0.1,0c-0.038,-0.032 -0.066,-0.075 -0.078,-0.124c-0.013,-0.048 -0.01,-0.099 0.008,-0.146c0.016,-0.051 0.051,-0.095 0.097,-0.122c0.046,-0.028 0.1,-0.038 0.153,-0.028l0.36,0.06c6,-3.31 12.07,-6.53 18.05,-10c1.4,-0.81 10.48,-5.79 11,-2.25c0.3,2.19 -3,4.75 -4.48,6c-2.324,2 -4.945,3.627 -7.77,4.82z"/>
  <path id="svg_14" fill="white" d="m443,330.04667c0.36,-0.47 0.66,-1.06 0,-1.34c-1.33,-0.55 -5.54,1.88 -6.74,2.49c-5,2.54 -10,4.57 -15.18,6.64l-1.31,0.53l-0.51,0c-0.019,0.047 -0.023,0.098 -0.01,0.147c0.012,0.049 0.041,0.092 0.08,0.123l0.14,0c0.22,0 0.46,0 0.69,0c3.656,0.026 7.293,-0.52 10.78,-1.62c2.2,-0.694 4.321,-1.616 6.33,-2.75c1.86,-1.1 4.46,-2.49 5.73,-4.22zm-22.59,8.31l-0.33,0c0.19,-0.06 0.37,-0.11 0.55,-0.18c4.101,-1.347 8.11,-2.96 12,-4.83c2,-1 3.86,-2 5.86,-2.93c0.84,-0.38 3.19,-1.52 4,-1.16c0.81,0.36 -0.05,0.94 -0.48,1.34c-0.43,0.4 -0.92,0.73 -1.23,1c-5.892,4.345 -13.009,6.712 -20.33,6.76l-0.04,0z"/>
  <path id="svg_15" fill="#92E3A9" d="m408,347.94667l-0.59,-0.81l2.12,-1.6c2.83,-2.18 5.64,-4.38 8.41,-6.64c1.59,-1.29 3.14,-2.58 4.64,-3.92c0.049,-0.052 0.102,-0.099 0.16,-0.14l0.36,-0.34c0.127,-0.107 0.257,-0.227 0.39,-0.36c3.409,-3.011 6.321,-6.541 8.63,-10.46c0.76,-1.33 1.45,-2.69 2.11,-4.07c0.07,-0.13 0.13,-0.26 0.19,-0.39c0.021,-0.035 0.038,-0.071 0.05,-0.11c0.07,-0.14 0.13,-0.27 0.19,-0.42l0.15,-0.31c2,-4.27 3.58,-8.71 5.3,-13.06c0.49,-1.24 1,-2.49 1.49,-3.73l0.09,-0.22c0,-0.09 0.07,-0.19 0.11,-0.28c2.21,-5.49 4.48,-11 6.54,-16.5c0.07,-0.21 0.38,-0.06 0.3,0.14c-1.34,3.71 -2.6,7.44 -3.88,11.18c-0.16,0.5 -0.34,1 -0.51,1.49c-0.34,1 -0.67,2 -1,2.94c-0.667,2 -1.37,3.953 -2.11,5.86c-1.914,5.55 -4.168,10.977 -6.75,16.25c-0.2,0.39 -0.41,0.77 -0.62,1.15c-0.21,0.38 -0.26,0.49 -0.41,0.71c-0.15,0.22 -0.3,0.55 -0.47,0.82c-2.889,4.626 -6.576,8.702 -10.89,12.04l-0.88,0.72l-0.41,0.34c-0.078,0.055 -0.151,0.115 -0.22,0.18l-0.29,0.22l-0.22,0.17l-0.77,0.6c-2.81,2.2 -5.66,4.36 -8.5,6.51c-0.94,0.64 -1.85,1.34 -2.71,2.04z"/>
  <path id="svg_16" fill="#92E3A9" d="m442.93,285.84667c1.39,-4.39 5.53,-11.71 11.12,-10.74c1.052,0.154 2.01,0.69 2.693,1.505c0.682,0.815 1.04,1.853 1.007,2.915c0,2.64 -1.83,5.13 -3.39,7.11c-4.16,5.29 -8.8,10.14 -12.59,15.72c0,0.06 -0.33,0.48 -0.41,0.61c-0.08,0.13 -0.24,0 -0.17,-0.14l0.37,-0.55c0.02,-5.41 -0.29,-11.22 1.37,-16.43z"/>
  <path id="svg_17" fill="white" d="m441.78,302.39667c0,0 0,-0.08 0.05,-0.12c0.696,-1.672 1.491,-3.302 2.38,-4.88c1.907,-3.256 4.008,-6.395 6.29,-9.4c0.87,-1.17 5.24,-6.74 1.62,-7.13c-1.52,-0.16 -3.08,1.13 -4.12,2.08c-1.658,1.534 -2.994,3.384 -3.93,5.44c-1.92,4.06 -2.35,8.55 -2.42,13c0,0.2 0,0.41 0,0.61l-0.08,0.18c-0.022,0.037 -0.039,0.078 -0.05,0.12c-0.01,0.026 -0.01,0.054 0,0.08c0.005,0.021 0.014,0.042 0.027,0.059c0.012,0.018 0.029,0.033 0.047,0.044c0.019,0.012 0.04,0.019 0.062,0.022c0.021,0.003 0.043,0.001 0.064,-0.005c0.017,-0.011 0.031,-0.026 0.041,-0.043c0.01,-0.018 0.017,-0.037 0.019,-0.057zm0,-1.31c0.043,-3.676 0.644,-7.324 1.78,-10.82c0.65,-1.807 1.564,-3.509 2.71,-5.05c0.513,-0.679 1.082,-1.315 1.7,-1.9c0.46,-0.444 0.959,-0.845 1.49,-1.2c1.16,-0.78 2.73,-1.21 3.33,-0.62c0.75,0.72 0.47,1.35 -0.09,2.58c-0.193,0.416 -0.41,0.82 -0.65,1.21c-0.598,0.966 -1.246,1.9 -1.94,2.8c-1.13,1.52 -2.24,3 -3.3,4.59c-0.72,1.05 -1.42,2.13 -2.07,3.23c-1.136,1.884 -2.139,3.845 -3,5.87c-0.01,-0.23 0.01,-0.46 0.02,-0.69l0.02,0z"/>
  <path id="svg_18" fill="#92E3A9" d="m65.4401,312.82667c2.71,2.51 5.26,5.19 7.77,7.89c1.43,1.54 2.83,3.09 4.27,4.62c1.57,1.69 3.06,3.58 5.27,4.41c0.0985,0.042 0.1897,0.099 0.27,0.17c0.0119,0.047 0.0113,0.096 -0.0016,0.143c-0.0128,0.047 -0.0376,0.089 -0.0719,0.124c-0.0342,0.034 -0.0768,0.059 -0.1235,0.071c-0.0467,0.013 -0.096,0.014 -0.143,0.002l-0.15,-0.06l-0.03,0c-0.6817,-0.078 -1.3525,-0.233 -2,-0.46c-1.8196,-0.428 -3.6127,-0.963 -5.37,-1.6c-3.6142,-1.275 -7.0544,-2.999 -10.24,-5.13c-2.8428,-1.914 -5.4187,-4.197 -7.66,-6.79c-1.79,-2.08 -4.48,-5.15 -5,-7.95c-0.45,-2.53 2.82,-2 4.33,-1.59c3.44,1.06 6.3,3.79 8.88,6.15z"/>
  <path id="svg_19" fill="white" d="m57.2002,310.97667c-0.78,1.09 2.17,4.39 3.41,5.86c1.9558,2.318 4.1892,4.387 6.65,6.16c4.4374,3.146 9.378,5.513 14.61,7l0.63,0.19l0.06,0l0.14,0.05c0.0476,0.014 0.0981,0.015 0.1463,0.003c0.0483,-0.012 0.0924,-0.036 0.1281,-0.071c0.0356,-0.034 0.0614,-0.078 0.0747,-0.126c0.0132,-0.047 0.0136,-0.098 0.0009,-0.146c-0.42,-0.19 -0.82,-0.39 -1.21,-0.61c-0.39,-0.22 -0.72,-0.4 -1.06,-0.61c-3.78,-2.25 -7.06,-5.38 -10.28,-8.36c-3.78,-3.46 -12.26,-10.78 -13.3,-9.34zm24.14,18.44c0.52,0.29 1.06,0.56 1.59,0.81l-1.27,-0.42c-4.567,-1.459 -8.9163,-3.528 -12.93,-6.15c-2.2514,-1.493 -4.3366,-3.223 -6.22,-5.16c-1.0067,-1.041 -1.9485,-2.143 -2.82,-3.3c-0.36,-0.49 -2.74,-3.38 -2.11,-3.95c0.44,-0.39 3.17,1.39 3.23,1.42c0.54,0.35 1.08,0.73 1.6,1.12c1.09,0.79 2.13,1.65 3.15,2.52c2.22,1.9 4.33,3.92 6.48,5.89c2.8067,2.762 5.928,5.186 9.3,7.22z"/>
  <path id="svg_20" fill="#92E3A9" d="m85.92,301.59667c2.47,4.78 3.08,10.27 3.08,15.57c0,2.85 -0.06,5.69 -0.09,8.52c-0.1633,2.539 -0.0729,5.089 0.27,7.61c0,0.1 0,0.22 0.07,0.33c0.1476,0.69 0.3723,1.361 0.67,2c0.0098,0.02 0.0149,0.043 0.0149,0.065c0,0.023 -0.0051,0.045 -0.0149,0.065l0.12,0.19c0,0.05 0,0.11 -0.07,0.07l-0.18,-0.16c-0.033,0.007 -0.0674,0.001 -0.0968,-0.015c-0.0294,-0.017 -0.0518,-0.043 -0.0632,-0.075l0,-0.08l-0.17,-0.16c-4.15,-3.83 -6.47,-10.3 -8,-15.5c-1.53,-5.2 -2.31,-10.74 -0.94,-16c0.35,-1.33 0.94,-4.5 2.55,-5c1.61,-0.5 2.33,1.55 2.85,2.57z"/>
  <path id="svg_21" fill="white" d="m83.7301,304.68667c-1.63,0.28 -1.28,4.74 -1.23,5.83c0.2071,3.304 0.7024,6.583 1.48,9.8c1.0097,5.252 2.8351,10.313 5.41,15l0.06,0.18c0.0516,0.062 0.1085,0.119 0.17,0.17c-0.0053,0.027 -0.0053,0.054 0,0.08c0.013,0.031 0.0357,0.056 0.0647,0.072c0.0289,0.017 0.0625,0.023 0.0953,0.018l-0.06,-0.25c-0.18,-0.65 -0.33,-1.32 -0.47,-2c0,-0.12 -0.05,-0.23 -0.07,-0.33c-0.7758,-4.661 -1.2468,-9.368 -1.41,-14.09c-0.1923,-3.288 -0.6878,-6.552 -1.48,-9.75c-0.22,-0.78 -1.19,-4.95 -2.56,-4.73zm1.46,2.37c2.23,5.15 2.16,11.27 2.53,16.77c0.161,3.708 0.6801,7.392 1.55,11c-2.1782,-4.322 -3.7689,-8.916 -4.73,-13.66c-0.6432,-2.683 -1.1339,-5.401 -1.47,-8.14c-0.1981,-1.485 -0.2817,-2.982 -0.25,-4.48c0.009,-0.9 0.1231,-1.796 0.34,-2.67c0.56,-1.59 1.65,0.29 2.03,1.18z"/>
  <path id="svg_22" fill="#92E3A9" d="m98.7902,342.90667c0.0236,0.045 0.036,0.095 0.036,0.145c0,0.051 -0.0124,0.1 -0.036,0.145l0.11,0c0.0239,0 0.0468,0.01 0.0636,0.026c0.0169,0.017 0.0264,0.04 0.0264,0.064c0.0032,0.011 0.0038,0.022 0.0017,0.033c-0.002,0.011 -0.0067,0.021 -0.0135,0.03c-0.0069,0.009 -0.0157,0.016 -0.0258,0.021c-0.0102,0.004 -0.0213,0.007 -0.0324,0.006c-6.39,1 -13.5,1.3 -19.79,-0.41c-2.6628,-0.71 -5.1925,-1.848 -7.49,-3.37c-1.56,-1.05 -4.71,-3.18 -4.89,-5.29c-0.35,-4.24 10.89,0.16 12.58,0.83c3.08,1.22 6.06,2.69 9.11,4c3.35,1.4 6.8,2.54 10.24,3.7c0.0422,0.013 0.0802,0.037 0.11,0.07z"/>
  <path id="svg_23" fill="white" d="m98.78,342.90667c-0.34,0 -0.68,-0.06 -1,-0.11c-5.5902,-0.622 -11.0511,-2.103 -16.19,-4.39c-2.5485,-1.218 -5.1944,-2.222 -7.91,-3c-0.68,-0.16 -3.18,-1 -2.78,0.65c0.21,0.83 4.33,3.21 5.45,3.74c2.5762,1.171 5.2865,2.02 8.07,2.53c4.6564,0.923 9.4101,1.259 14.15,1l0.41,0c0.0001,-0.011 -0.0023,-0.023 -0.0069,-0.033c-0.0046,-0.01 -0.0114,-0.02 -0.0199,-0.027c-0.0086,-0.008 -0.0186,-0.014 -0.0295,-0.017c-0.0109,-0.003 -0.0224,-0.004 -0.0337,-0.003l-0.1,0c0.0359,-0.05 0.0544,-0.11 0.0526,-0.172c-0.0019,-0.061 -0.0238,-0.12 -0.0626,-0.168zm-12,-0.49c-2.7821,-0.381 -5.5169,-1.051 -8.16,-2c-1.0471,-0.386 -2.0691,-0.837 -3.06,-1.35c-0.7847,-0.391 -1.54,-0.839 -2.26,-1.34c-1.73,-1.26 -2.08,-1.72 -1.93,-2.05c0.15,-0.33 0.46,-0.32 1.86,-0.09c0.9071,0.166 1.795,0.424 2.65,0.77c1.21,0.46 2.42,1 3.61,1.48c2.4,1 4.78,2.1 7.25,2.95c3.5288,1.244 7.2081,2.011 10.94,2.28c-3.6484,0.089 -7.2979,-0.129 -10.91,-0.65l0.01,0z"/>
  <path id="svg_24" fill="#92E3A9" d="m98.1199,324.54667c1.5201,1.738 2.6459,3.785 3.3,6c1.46,4.35 2,9 3.12,13.39c0.18,0.66 0.36,1.32 0.57,2c0,0.07 0.46,0.79 0.41,0.75c-0.05,-0.04 -0.23,-0.22 -0.58,-0.59c-1.73,-1.81 -6.88,-7.4 -8.85,-11.18c-1.2983,-2.338 -2.3057,-4.827 -3,-7.41c-0.28,-1.22 -0.8,-4 0.42,-4.94c1.22,-0.94 3.78,1.1 4.61,1.98z"/>
  <path id="svg_25" fill="white" d="m95.5001,325.61667c-1.71,0.71 1.83,8.24 2.27,9.23c1.6532,3.659 3.7742,7.087 6.31,10.2c0.28,0.36 0.57,0.7 0.86,1.05l0.57,0.59c0,0 -0.37,-0.68 -0.41,-0.76c-0.04,-0.08 -0.06,-0.23 -0.1,-0.34c-0.16,-0.54 -0.32,-1.09 -0.45,-1.63c-1.13,-3 -2.2,-6 -3.39,-8.92c-0.8333,-2.134 -1.8365,-4.197 -3,-6.17c-0.26,-0.45 -1.91,-3.56 -2.66,-3.25zm1.4,1.55c3.83,5.49 5.22,12.1 7.75,18.2c0,0.11 0.08,0.2 0.12,0.3l-0.32,-0.4c-2.0359,-2.622 -3.8235,-5.427 -5.34,-8.38c-0.9153,-1.803 -1.7201,-3.659 -2.41,-5.56c-0.4271,-1.028 -0.7846,-2.084 -1.07,-3.16c-0.1,-0.47 -0.33,-1.77 0,-1.93c0.33,-0.16 1.02,0.58 1.27,0.93z"/>
  <path id="svg_26" fill="#92E3A9" d="m64.9401,281.37667c6,10.06 3,23 8.3,33.34l0,0.05c0.16,0.31 0.33,0.63 0.51,0.94c0.0163,0.031 0.025,0.065 0.0254,0.1c0.0004,0.035 -0.0076,0.07 -0.0232,0.101c-0.0156,0.032 -0.0385,0.059 -0.0667,0.079c-0.0283,0.021 -0.061,0.035 -0.0955,0.04c-0.0325,0.002 -0.0649,-0.005 -0.0932,-0.021c-0.0284,-0.016 -0.0516,-0.04 -0.0668,-0.069l-0.12,-0.22c-4.78,-4.44 -8.65,-10.47 -11.5,-16.3c-2.47,-5.08 -4.1,-10.77 -3.25,-16.44c0.2,-1.4 0.52,-4.19 2.21,-4.71c1.69,-0.52 3.43,1.9 4.17,3.11z"/>
  <path id="svg_27" fill="white" d="m62.8701,285.07667c-0.71,0.23 -0.8,1.27 -0.88,1.84c-0.2048,1.424 -0.235,2.868 -0.09,4.3c0.2971,2.937 1.0354,5.813 2.19,8.53c1.8167,4.71 4.2081,9.177 7.12,13.3c0.67,0.92 1.38,1.81 2.13,2.66l0.28,0.32c0.0345,-0.005 0.0673,-0.019 0.0955,-0.04c0.0282,-0.02 0.0511,-0.047 0.0667,-0.079c0.0157,-0.031 0.0236,-0.066 0.0232,-0.101c-0.0003,-0.035 -0.0091,-0.069 -0.0254,-0.1c-0.18,-0.3 -0.33,-0.6 -0.5,-0.91c-0.0054,-0.026 -0.0054,-0.054 0,-0.08c-1.2174,-1.99 -2.2388,-4.093 -3.05,-6.28c-1.1202,-3.452 -2.0187,-6.973 -2.69,-10.54c-0.34,-1.39 -2.25,-13.62 -4.67,-12.82zm1.59,2c1.23,2.63 1.62,5.63 2.25,8.44c0.63,2.81 1.24,5.69 1.91,8.52c0.5388,2.253 1.2647,4.458 2.17,6.59c0.7542,1.779 1.6679,3.486 2.73,5.1c-1.2025,-1.448 -2.3115,-2.971 -3.32,-4.56l0,-0.07c-1.7651,-2.876 -3.3514,-5.859 -4.75,-8.93c-0.0125,-0.038 -0.0293,-0.075 -0.05,-0.11c-1.2918,-2.681 -2.2554,-5.508 -2.87,-8.42c-0.3158,-1.586 -0.4533,-3.203 -0.41,-4.82c0.09,-1.84 0.35,-3.31 1,-3.33c0.4,-0.04 0.98,0.87 1.34,1.68l0,-0.09z"/>
  <path id="svg_28" fill="#92E3A9" d="m65.6903,302.01667c1.65,2.9 3.37,5.79 5.1,8.66c0.8133,1.333 1.63,2.667 2.45,4c-0.0054,0.026 -0.0054,0.054 0,0.08l0.88,1.46c2.66,4.39 5.29,9 8.64,12.93c1.7942,2.053 3.7762,3.935 5.92,5.62l0.67,0.52l0.37,0.27l0.21,0.16c1.86,1.44 3.81,2.79 5.71,4.09c2.64,1.82 5.39,3.45 8.16,5.05c0.0751,0.055 0.1555,0.102 0.24,0.14l0.37,0.23l0.2,0.1c0.1131,0.076 0.2299,0.146 0.35,0.21c0.89,0.52 1.78,1 2.66,1.56l-0.56,0.8c-2.9087,-1.303 -5.7164,-2.82 -8.4,-4.54l-0.16,-0.11c-0.27,-0.16 -0.53,-0.33 -0.79,-0.5l-1,-0.62l-2.26,-1.53c-4.4714,-2.882 -8.5837,-6.286 -12.25,-10.14l-0.2,-0.29l-0.12,-0.14l-0.21,-0.23l-0.32,-0.39l-0.56,-0.7l-0.16,-0.21c-2.762,-3.826 -5.2611,-7.835 -7.48,-12c-0.42,-0.75 -0.83,-1.48 -1.24,-2.23l-0.69,-1.24c-0.33,-0.63 -0.67,-1.27 -1,-1.89l0,-0.07c-1.59,-3 -3.11,-6 -4.72,-8.95c-0.12,-0.11 0.11,-0.24 0.19,-0.1z"/>
  <path id="svg_29" fill="#EBEBEB" d="m260,437.36667c105.37,0 190.79,-14.43 190.79,-32.23c0,-17.8 -85.42,-32.23 -190.79,-32.23c-105.37,0 -190.79,14.43 -190.79,32.23c0,17.8 85.42,32.23 190.79,32.23z"/>
  <path id="svg_30" fill="#92E3A9" d="m185.84,126.71667c-6.21,5.21 -36.74,42.66 -82.1696,30.59c0,0 7.8096,32.3 23.2496,32.3c15.44,0 24.67,-23.44 24.67,-23.44c0,0 1.68,4.09 5.68,3.73c8.13,-0.72 22.54,-24.22 28.57,-37.45l0,-5.73z"/>
  <path id="svg_31" fill="black" d="m185.84,126.71667c-6.21,5.21 -36.74,42.66 -82.1696,30.59c0,0 7.8096,32.3 23.2496,32.3c15.44,0 24.67,-23.44 24.67,-23.44c0,0 1.68,4.09 5.68,3.73c8.13,-0.72 22.54,-24.22 28.57,-37.45l0,-5.73z" opacity="0.1"/>
  <path id="svg_32" fill="black" d="m185.84,126.71667l0,3.77c-3.88,5.58 -23.07,31.92 -41.77,36.46c-20.94,5.1 -40.3996,-9.64 -40.3996,-9.64c45.4296,12.07 75.9596,-25.38 82.1696,-30.59z" opacity="0.1"/>
  <path id="svg_33" fill="#92E3A9" d="m334.16,126.71667c6.21,5.21 36.74,42.66 82.17,30.59c0,0 -7.81,32.3 -23.25,32.3c-15.44,0 -24.67,-23.44 -24.67,-23.44c0,0 -1.68,4.09 -5.68,3.73c-8.13,-0.72 -22.54,-24.22 -28.57,-37.45l0,-5.73z"/>
  <path id="svg_34" fill="black" d="m334.16,126.71667c6.21,5.21 36.74,42.66 82.17,30.59c0,0 -7.81,32.3 -23.25,32.3c-15.44,0 -24.67,-23.44 -24.67,-23.44c0,0 -1.68,4.09 -5.68,3.73c-8.13,-0.72 -22.54,-24.22 -28.57,-37.45l0,-5.73z" opacity="0.1"/>
  <path id="svg_35" fill="black" d="m334.16,126.71667l0,3.77c3.88,5.58 23.07,31.92 41.77,36.46c20.94,5.1 40.4,-9.64 40.4,-9.64c-45.43,12.07 -75.96,-25.38 -82.17,-30.59z" opacity="0.1"/>
  <path id="svg_36" fill="#92E3A9" d="m388.26,404.53667c-5.68,-0.7 -83.42,-25.9 -84.84,-25.9c-1.42,0 -21.53,1.77 -43.43,1.77c-21.9,0 -42,-1.77 -43.42,-1.77c-1.42,0 -79.15,25.2 -84.83,25.9c-5.68,0.7 -56.7398,-68.86 -54.3098,-71.37c2.43,-2.51 21.3,1.42 23.42,1.07c2.12,-0.35 38.3398,-21.29 38.6998,-23.08c0.36,-1.79 6,-46.14 12.07,-80.93c6.07,-34.79 18.92,-87 34.07,-103.53c15.15,-16.53 52.54,-26 74.3,-26c21.76,0 59.17,9.46 74.32,26c15.15,16.54 28,68.74 34.07,103.53c6.07,34.79 11.71,79.16 12.07,80.93c0.36,1.77 36.56,22.73 38.69,23.08c2.13,0.35 20.94,-3.55 23.43,-1.07c2.49,2.48 -48.63,72.09 -54.31,71.37z"/>
  <path id="svg_37" fill="#92E3A9" d="m235.21,104.09667c1.53,-0.73 8.59,-8.36 18.16,-11c3.31,-0.9 -2.79,6 -2.79,6c0,0 14.2,-8.54 19.92,-10.6c9.55,-3.45 14.29,-4.17 14.29,-2.59c0,3.53 -14.88,10.17 -17.38,13c0,0 8.83,-2.14 11.8,-0.28c2.97,1.86 -7.81,3.74 -7.81,3.74l-36.19,1.73z"/>
  <path id="svg_38" fill="black" d="m233.18,188.35667c1.057,5.106 1.226,10.356 0.5,15.52c-0.646,5.254 -2.383,10.316 -5.1,14.86c-1.413,2.256 -3.092,4.334 -5,6.19c-1.944,1.801 -4.092,3.368 -6.4,4.67c-4.649,2.442 -9.759,3.88 -15,4.22c4.986,-1.103 9.768,-2.983 14.17,-5.57c2.111,-1.353 4.078,-2.918 5.87,-4.67c1.75,-1.782 3.29,-3.758 4.59,-5.89c2.597,-4.327 4.383,-9.092 5.27,-14.06c0.979,-5.027 1.348,-10.154 1.1,-15.27z" opacity="0.1"/>
  <path id="svg_39" fill="white" d="m202.74,162.91667c-19.54,0 -29.37,15 -29.37,32.52c0,14.19 11.6,28.68 30.35,28.68c18.75,0 30.36,-17 30.36,-30.35c0,-13.35 -10.08,-30.85 -31.34,-30.85z"/>
  <path id="svg_40" fill="#263238" d="m203,169.56667c-15.3,0 -23,11.74 -23,25.45c0,11.15 9,22.45 23.72,22.45c14.72,0 23.76,-13.33 23.76,-23.76c0,-10.43 -7.92,-24.14 -24.48,-24.14z"/>
  <path id="svg_41" fill="white" d="m210,169.80667c-6.95,0 -10.44,5.34 -10.44,11.56c0.028,1.382 0.331,2.744 0.891,4.007c0.559,1.263 1.365,2.403 2.369,3.352c1.004,0.949 2.187,1.689 3.48,2.177c1.292,0.488 2.669,0.713 4.05,0.664c6.66,0 10.79,-6.06 10.79,-10.79c-0.004,-1.454 -0.296,-2.892 -0.859,-4.233c-0.563,-1.34 -1.387,-2.555 -2.423,-3.576c-1.036,-1.02 -2.264,-1.824 -3.612,-2.367c-1.349,-0.543 -2.792,-0.812 -4.246,-0.794z"/>
  <path id="svg_42" fill="#263238" d="m185.36,159.31667c6.7,1.24 13.39,2.53 20.08,3.83c6.69,1.3 13.38,2.56 20.05,3.93l-0.39,1.58l-37,-10.2l0.58,-2.47c12.14,2.18 24.28,4.31 36.4,6.55l-0.65,2.83l-18.43,-5.1l-18.45,-5.17l0.62,-2.86l19.74,3.17l19.73,3.22l-0.51,2.5l-38.25,-10.21l0.3,-1.59c6.62,0.84 13.22,1.81 19.84,2.71c6.62,0.9 13.22,1.84 19.82,2.82c-6.666,-0.6 -13.31,-1.24 -19.93,-1.92c-6.64,-0.67 -13.29,-1.27 -19.92,-2l0.29,-1.59l38.48,9.3l-0.51,2.5l-19.77,-3l-19.76,-3l0.62,-2.85l18.46,5.11l18.45,5.18l-0.66,2.83c-12.12,-2.24 -24.22,-4.61 -36.33,-6.91l0.58,-2.47l36.75,11.07l-0.4,1.59c-6.65,-1.48 -13.27,-3.09 -19.9,-4.63c-6.63,-1.54 -13.29,-3.13 -19.93,-4.75z"/>
  <path id="svg_43" fill="white" d="m259,120.35667c-19.54,0 -29.37,15 -29.37,32.51c0,14.19 11.6,28.68 30.35,28.68c18.75,0 30.36,-17 30.36,-30.35c0,-13.35 -10.1,-30.84 -31.34,-30.84z"/>
  <path id="svg_44" fill="#263238" d="m259.23,126.99667c-15.29,0 -23,11.74 -23,25.46c0,11.11 9.08,22.45 23.76,22.45c14.68,0 23.76,-13.33 23.76,-23.76c0,-10.43 -7.91,-24.15 -24.52,-24.15z"/>
  <path id="svg_45" fill="white" d="m259.65,125.87667c-6.94,0 -10.44,5.33 -10.44,11.56c0.031,1.38 0.336,2.741 0.896,4.002c0.561,1.262 1.366,2.399 2.37,3.347c1.004,0.948 2.186,1.687 3.477,2.175c1.292,0.488 2.667,0.714 4.047,0.666c6.67,0 10.79,-6.05 10.79,-10.79c-0.005,-1.453 -0.298,-2.891 -0.862,-4.23c-0.564,-1.339 -1.388,-2.553 -2.423,-3.572c-1.036,-1.019 -2.264,-1.823 -3.612,-2.365c-1.348,-0.542 -2.79,-0.811 -4.243,-0.793z"/>
  <path id="svg_46" fill="#263238" d="m239,125.07667c6.813,-0.147 13.627,-0.257 20.44,-0.33c6.81,-0.08 13.62,-0.22 20.43,-0.24l-0.06,1.64l-38.3,-2.47l0.07,-2.54c12.32,-0.33 24.65,-0.72 37,-1l-0.07,2.91l-19.12,-1.24l-19.11,-1.32l0,-2.92l20,-0.91l20,-0.86l0,2.56l-39.58,-2.19l0,-1.62c6.65,-0.52 13.32,-0.91 20,-1.37c6.68,-0.46 13.32,-0.89 20,-1.28c-6.627,0.767 -13.263,1.493 -19.91,2.18c-6.64,0.69 -13.27,1.46 -19.91,2.09l0,-1.62l39.57,1.29l0,2.55l-20,1.11l-20,1l0,-2.93l19.11,1.25l19.12,1.35l-0.07,2.91c-12.32,0.26 -24.65,0.41 -37,0.61l0.07,-2.54l38.23,3.38l-0.07,1.63c-6.81,-0.1 -13.62,-0.32 -20.43,-0.48c-6.81,-0.16 -13.6,-0.36 -20.41,-0.6z"/>
  <path id="svg_47" fill="black" d="m287,188.35667c-0.28,5.112 0.055,10.239 1,15.27c0.884,4.968 2.666,9.732 5.26,14.06c1.304,2.132 2.847,4.109 4.6,5.89c1.791,1.755 3.758,3.32 5.87,4.67c4.402,2.589 9.184,4.468 14.17,5.57c-5.24,-0.34 -10.351,-1.778 -15,-4.22c-2.31,-1.299 -4.458,-2.867 -6.4,-4.67c-1.908,-1.856 -3.586,-3.934 -5,-6.19c-2.716,-4.544 -4.453,-9.606 -5.1,-14.86c-0.688,-5.17 -0.485,-10.419 0.6,-15.52z" opacity="0.1"/>
  <path id="svg_48" fill="white" d="m317.44,162.91667c19.54,0 29.36,15 29.36,32.52c0,14.19 -11.59,28.68 -30.35,28.68c-18.76,0 -30.35,-17 -30.35,-30.35c0,-13.35 10.12,-30.85 31.34,-30.85z"/>
  <path id="svg_49" fill="#263238" d="m317.22,169.56667c15.3,0 23,11.74 23,25.45c0,11.11 -9.08,22.45 -23.76,22.45c-14.68,0 -23.77,-13.3 -23.77,-23.76c0,-10.46 7.92,-24.14 24.53,-24.14z"/>
  <path id="svg_50" fill="white" d="m310.14,169.80667c6.95,0 10.44,5.34 10.44,11.56c-0.028,1.382 -0.331,2.744 -0.891,4.007c-0.559,1.263 -1.365,2.403 -2.369,3.352c-1.004,0.949 -2.187,1.689 -3.479,2.177c-1.293,0.488 -2.67,0.713 -4.051,0.664c-6.67,0 -10.79,-6.06 -10.79,-10.79c0.004,-1.454 0.296,-2.892 0.859,-4.233c0.563,-1.34 1.387,-2.555 2.423,-3.576c1.036,-1.02 2.264,-1.824 3.612,-2.367c1.349,-0.543 2.792,-0.812 4.246,-0.794z"/>
  <path id="svg_51" fill="#263238" d="m334.64,159.31667c-6.62,1.62 -13.25,3.18 -19.89,4.73c-6.64,1.55 -13.25,3.15 -19.9,4.63l-0.4,-1.59l36.75,-11.07l0.58,2.47c-12.11,2.3 -24.21,4.67 -36.33,6.91l-0.66,-2.83l18.45,-5.18l18.46,-5.11l0.62,2.85l-19.76,3l-19.77,3l-0.51,-2.5l38.48,-9.3l0.29,1.59c-6.63,0.73 -13.28,1.33 -19.92,2c-6.64,0.67 -13.28,1.32 -19.93,1.92c6.6,-0.98 13.207,-1.92 19.82,-2.82c6.62,-0.9 13.22,-1.87 19.84,-2.71l0.3,1.59l-38.25,10.27l-0.51,-2.5l19.73,-3.22l19.74,-3.17l0.62,2.86l-18.49,5.13l-18.47,5.1l-0.65,-2.83c12.12,-2.24 24.26,-4.37 36.4,-6.55l0.58,2.47l-37,10.2l-0.39,-1.58c6.67,-1.37 13.37,-2.62 20.05,-3.93c6.68,-1.31 13.42,-2.59 20.12,-3.83z"/>
  <path id="svg_52" fill="#263238" d="m291.52,237.08667c-1.46,3 -19,-1.11 -31.51,-1.11c-13.26,0 -30.07,4.14 -31.53,1.11c-1.46,-3.03 6.52,-33.08 31.52,-33.08c25,0 33,30.04 31.52,33.08z"/>
  <path id="svg_53" fill="#FF99BA" d="m281.49,237.83667c-6.39,-0.63 -14.7,-1.86 -21.48,-1.86c-7.11,0 -15.26,1.2 -21.49,1.83c7.87,-15.15 16.08,-16.43 21.49,-10.38c5.4,-6.05 13.62,-4.77 21.48,10.41z"/>
  <path id="svg_54" fill="white" d="m245.48,237.02667c-3.51,0.41 -6.82,0.81 -9.57,1l2.73,-10.25l4,-0.71l2.84,9.96z"/>
  <path id="svg_55" fill="white" d="m286.17,238.16667c-2.86,-0.09 -6.61,-0.53 -10.64,-1l3.82,-8.45l5.08,0.35l1.74,9.1z"/>
  <path id="svg_56" fill="#37474F" d="m326.29,263.10667c-1.54,-8.229 -4.592,-16.102 -9,-23.22c-4.195,-6.689 -9.744,-12.425 -16.29,-16.84c-4.805,-3.242 -10.123,-5.65 -15.73,-7.12c-0.359,0.889 -1.022,1.623 -1.87,2.07c-0.627,0.215 -1.302,0.25 -1.947,0.099c-0.646,-0.15 -1.236,-0.479 -1.703,-0.949c-0.496,1.128 -1.374,2.045 -2.48,2.59c-1.64,0.62 -3,-1.11 -3,-1.11c0,0 -1.71,4.24 -4.91,4.38c-3.2,0.14 -4.84,-5.26 -4.84,-5.26c0,0 -1.22,2.67 -3.17,2.67c-1.95,0 -4.91,-3.74 -4.91,-3.74c0,0 0,-0.26 0,-0.67l-1.39,0.43c-7.491,2.415 -14.397,6.362 -20.28,11.59c-6.233,5.582 -11.376,12.272 -15.17,19.73c-8.378,16.828 -11.126,35.902 -7.84,54.41c1.536,8.231 4.588,16.104 9,23.22c4.172,6.641 9.708,12.32 16.24,16.66c6.735,4.358 14.334,7.207 22.275,8.35c7.94,1.142 16.034,0.552 23.725,-1.73c7.506,-2.343 14.424,-6.264 20.29,-11.5c6.238,-5.581 11.382,-12.275 15.17,-19.74c8.35,-16.818 11.095,-35.869 7.83,-54.36l0,0.04zm-29.75,23.47c-0.744,5.503 -2.213,10.883 -4.37,16c-1.821,4.372 -4.367,8.405 -7.53,11.93c-2.739,3.049 -6.129,5.442 -9.92,7c-3.647,1.459 -7.618,1.914 -11.5,1.32c-3.968,-0.511 -7.726,-2.079 -10.88,-4.54c-3.191,-2.574 -5.764,-5.83 -7.53,-9.53c-2.042,-4.274 -3.35,-8.862 -3.87,-13.57c-0.624,-5.531 -0.51,-11.12 0.34,-16.62c0.741,-5.555 2.21,-10.989 4.37,-16.16c1.828,-4.396 4.384,-8.453 7.56,-12c2.739,-3.049 6.129,-5.441 9.92,-7c3.724,-1.444 7.766,-1.872 11.71,-1.24c3.89,0.532 7.569,2.088 10.66,4.51c3.178,2.563 5.741,5.806 7.5,9.49c2.054,4.308 3.359,8.934 3.86,13.68c0.62,5.567 0.513,11.191 -0.32,16.73z"/>
  <path id="svg_57" fill="#455A64" d="m321,261.93667c-1.543,-8.229 -4.594,-16.101 -9,-23.22c-4.204,-6.688 -9.759,-12.424 -16.31,-16.84c-4.807,-3.241 -10.124,-5.651 -15.73,-7.13c-0.353,0.896 -1.017,1.634 -1.87,2.08c-0.628,0.213 -1.303,0.245 -1.948,0.093c-0.645,-0.152 -1.235,-0.482 -1.702,-0.953c-0.494,1.132 -1.372,2.053 -2.48,2.6c-1.64,0.61 -3,-1.12 -3,-1.12c0,0 -1.71,4.24 -4.91,4.39c-3.2,0.15 -4.83,-5.26 -4.83,-5.26c0,0 -1.23,2.67 -3.18,2.67c-1.95,0 -4.91,-3.75 -4.91,-3.75c0,0 0,-0.26 0,-0.66c-0.47,0.13 -0.93,0.28 -1.39,0.43c-7.488,2.409 -14.391,6.353 -20.27,11.58c-6.237,5.585 -11.384,12.278 -15.18,19.74c-8.357,16.816 -11.094,35.871 -7.81,54.36c1.538,8.23 4.59,16.103 9,23.22c4.159,6.659 9.688,12.355 16.22,16.71c6.735,4.36 14.334,7.209 22.275,8.352c7.94,1.143 16.034,0.552 23.725,-1.732c7.504,-2.334 14.425,-6.241 20.3,-11.46c6.239,-5.581 11.383,-12.275 15.17,-19.74c8.363,-16.814 11.107,-35.869 7.83,-54.36zm-29.8,23.46c-0.745,5.503 -2.214,10.883 -4.37,16c-1.821,4.372 -4.367,8.405 -7.53,11.93c-2.739,3.049 -6.129,5.442 -9.92,7c-3.648,1.452 -7.617,1.908 -11.5,1.32c-3.96,-0.5 -7.716,-2.047 -10.88,-4.48c-3.197,-2.57 -5.774,-5.827 -7.54,-9.53c-2.044,-4.276 -3.349,-8.868 -3.86,-13.58c-1.143,-11.144 0.474,-22.399 4.71,-32.77c1.821,-4.397 4.374,-8.455 7.55,-12c2.742,-3.045 6.132,-5.437 9.92,-7c3.721,-1.457 7.762,-1.899 11.71,-1.28c3.89,0.527 7.569,2.08 10.66,4.5c3.195,2.576 5.772,5.836 7.54,9.54c2.05,4.309 3.352,8.935 3.85,13.68c0.61,5.548 0.495,11.152 -0.34,16.67z"/>
  <path id="svg_58" fill="white" d="m272,206.64667l-2.55,14l-6.21,0l-1.77,-13.13l-0.77,8.63l-6.33,0.3l-1.8,-11.53c2.423,-0.657 4.921,-0.993 7.43,-1c4.154,0 8.255,0.933 12,2.73z"/>
  <path id="svg_59" fill="black" d="m260,380.40667l-0.09,0.06l-0.1,-0.06l0.19,0z"/>
  <path id="svg_60" fill="black" d="m259.8,380.40667l0.2,0l-0.09,0.06l-0.11,-0.06z"/>
  <path id="svg_61" fill="black" d="m210.39,374.66667c0,0 25.67,5.71 49.41,5.74c-21.8,0 -41.8,-1.77 -43.23,-1.77c-1.43,0 -79.14,25.2 -84.82,25.9c-2.38,0.3 -12.64,-11.61 -23.6299,-25.79c4.4799,3.09 22.2899,15.32 24.4099,15.32c2.47,0 77.86,-19.4 77.86,-19.4z" opacity="0.1"/>
  <path id="svg_62" fill="black" d="m412.1,378.44667c-11.07,14.31 -21.46,26.4 -23.85,26.09c-5.68,-0.7 -83.41,-25.9 -84.83,-25.9c-1.42,0 -21.54,1.77 -43.43,1.77c23.75,0 49.42,-5.74 49.42,-5.74c0,0 75.45,19.4 77.86,19.4c2.19,0 21.25,-13.14 24.83,-15.62z" opacity="0.1"/>
  <path id="svg_63" fill="#92E3A9" d="m152.73,224.04667c0,0 -30.58,36.56 -29.16,64.77c1.42,28.21 26.63,47.75 60.17,47.93c0,0 14.41,1.95 20,0c0,0 -6.85,-11.36 -7.56,-13.14c0,0 15.09,-4.08 23.61,-16.5c0,0 -12,-5.51 -17.53,-11.72c0,0 7.41,-11 9,-12.42c0,0 -15.26,1.06 -20.59,2.13c0,0 -23.6,-1.42 -32.83,-18.46c-9.23,-17.04 -5.11,-42.59 -5.11,-42.59z"/>
  <path id="svg_64" fill="#263238" d="m133.68,315.47667c3.025,3.567 6.54,6.688 10.44,9.27c3.857,2.616 7.997,4.79 12.34,6.48c1.07,0.44 2.2,0.76 3.29,1.16l1.64,0.56l1.69,0.45l3.37,0.88l3.42,0.63l1.72,0.31c0.57,0.08 1.15,0.12 1.73,0.19l3.46,0.36c2.31,0.17 4.64,0.15 7,0.23l0.12,0c3.281,0.465 6.587,0.726 9.9,0.78c3.275,0.119 6.551,-0.18 9.75,-0.89l-0.55,1.28l-3.92,-6.5l-1.92,-3.29c-0.63,-1.13 -1.25,-2.16 -1.83,-3.47l-0.4,-0.89l1,-0.32c2.275,-0.748 4.494,-1.657 6.64,-2.72c2.156,-1.056 4.241,-2.252 6.24,-3.58c1.989,-1.323 3.859,-2.815 5.59,-4.46c1.704,-1.642 3.236,-3.455 4.57,-5.41l0.43,1.45c-1.66,-0.76 -3.23,-1.57 -4.8,-2.43c-1.57,-0.86 -3.11,-1.77 -4.62,-2.74c-3.082,-1.906 -5.905,-4.201 -8.4,-6.83l-0.47,-0.52l0.37,-0.59c1.38,-2.18 2.79,-4.33 4.26,-6.46c0.74,-1.06 1.48,-2.11 2.28,-3.15c0.798,-1.1 1.717,-2.106 2.74,-3l0.57,1.58c-3.43,0.2 -6.87,0.46 -10.29,0.77c-3.42,0.31 -6.85,0.65 -10.21,1.22l-0.08,0l-0.05,0c-4.81,-0.178 -9.56,-1.14 -14.06,-2.85c-4.5,-1.669 -8.64,-4.181 -12.2,-7.4c-3.498,-3.263 -6.292,-7.208 -8.21,-11.59c-1.867,-4.361 -3.044,-8.987 -3.49,-13.71c0.66,4.67 2.008,9.216 4,13.49c2.003,4.236 4.855,8.014 8.38,11.1c3.53,3.047 7.6,5.405 12,6.95c4.369,1.574 8.967,2.422 13.61,2.51l-0.13,0c3.44,-0.65 6.88,-1.07 10.33,-1.43c3.45,-0.36 6.89,-0.61 10.35,-0.84l2.68,-0.17l-2.12,1.76c-0.875,0.815 -1.666,1.716 -2.36,2.69c-0.76,1 -1.49,2.05 -2.21,3.1c-1.43,2.1 -2.82,4.25 -4.17,6.41l-0.09,-1.11c2.38,2.486 5.068,4.657 8,6.46c1.474,0.933 2.98,1.813 4.52,2.64c1.53,0.83 3.11,1.62 4.67,2.33l1.08,0.49l-0.65,1c-1.405,2.091 -3.038,4.02 -4.87,5.75c-1.826,1.709 -3.793,3.262 -5.88,4.64c-2.081,1.361 -4.249,2.583 -6.49,3.66c-2.241,1.092 -4.557,2.024 -6.93,2.79l0.59,-1.21c0.44,1 1.1,2.16 1.7,3.24l1.88,3.27l3.87,6.5l0.61,1l-1.14,0.27c-3.351,0.735 -6.783,1.027 -10.21,0.87c-3.387,-0.123 -6.764,-0.457 -10.11,-1l0.12,0c-2.36,-0.13 -4.72,-0.15 -7.07,-0.37l-3.52,-0.43c-0.59,-0.08 -1.17,-0.14 -1.76,-0.23l-1.73,-0.35l-3.47,-0.7l-3.41,-1l-1.71,-0.48l-1.66,-0.61c-1.1,-0.42 -2.23,-0.78 -3.3,-1.26c-4.349,-1.814 -8.481,-4.108 -12.32,-6.84c-3.842,-2.709 -7.26,-5.974 -10.14,-9.69z"/>
  <path id="svg_65" fill="#92E3A9" d="m132.53,255.21667c0,0 -13.62,13.3 -14.1,22.9c-0.17,3.46 5.1,-3.54 5.1,-3.54c0,0 -3.88,11.85 -3.19,15.49c0.69,3.64 3.25,-5.37 3.25,-5.37l8.94,-29.48z"/>
  <path id="svg_66" fill="#92E3A9" d="m366.89,222.16667c0,0 22.51,42 15.38,69.35c-7.13,27.35 -35.78,41.31 -68.66,34.65c0,0 -14.51,-1 -19.57,-4.06c0,0 9,-9.73 10.08,-11.32c0,0 -13.94,-7.07 -19.76,-21c0,0 12.86,-2.94 19.55,-7.9c0,0 -5,-12.28 -6.3,-14c0,0 14.73,4.15 19.73,6.28c0,0 23.4,3.41 35.9,-11.39c12.5,-14.8 13.65,-40.61 13.65,-40.61z"/>
  <path id="svg_67" fill="#263238" d="m373.15,309.38667c-3.399,4.258 -7.535,7.872 -12.21,10.67c-4.666,2.848 -9.718,5.01 -15,6.42c-5.293,1.379 -10.741,2.071 -16.21,2.06c-5.468,0.009 -10.922,-0.538 -16.28,-1.63l0.12,0c-3.386,-0.156 -6.76,-0.523 -10.1,-1.1c-3.387,-0.545 -6.688,-1.53 -9.82,-2.93l-1.06,-0.5l0.8,-0.88l5.12,-5.58l2.49,-2.75c0.8,-0.93 1.68,-1.93 2.31,-2.82l0.34,1.31c-2.168,-1.233 -4.246,-2.616 -6.22,-4.14c-1.98,-1.507 -3.854,-3.147 -5.61,-4.91c-1.772,-1.765 -3.385,-3.682 -4.82,-5.73c-1.451,-2.063 -2.655,-4.288 -3.59,-6.63l-0.41,-1.08l1.13,-0.25c1.68,-0.38 3.38,-0.84 5.05,-1.33c1.67,-0.49 3.33,-1.06 5,-1.67c3.251,-1.167 6.342,-2.739 9.2,-4.68l-0.32,1.06c-0.87,-2.39 -1.8,-4.78 -2.77,-7.13c-0.49,-1.17 -1,-2.34 -1.54,-3.48c-0.27,-0.57 -0.54,-1.13 -0.84,-1.67c-0.264,-0.509 -0.572,-0.994 -0.92,-1.45l-1.88,-2.19l2.75,0.76c3.35,0.92 6.66,1.89 10,2.92c3.34,1.03 6.58,2.16 9.81,3.5l-0.12,0c4.565,0.857 9.24,0.965 13.84,0.32c4.623,-0.614 9.088,-2.097 13.16,-4.37c4.082,-2.327 7.64,-5.473 10.45,-9.24c2.815,-3.781 5.043,-7.964 6.61,-12.41c-1.375,4.539 -3.464,8.829 -6.19,12.71c-2.768,3.904 -6.308,7.198 -10.4,9.68c-4.141,2.435 -8.71,4.055 -13.46,4.77c-4.755,0.759 -9.603,0.732 -14.35,-0.08l-0.08,0c-3.17,-1.25 -6.45,-2.28 -9.74,-3.27c-3.29,-0.99 -6.61,-2 -9.92,-2.85l0.87,-1.44c0.455,0.55 0.85,1.147 1.18,1.78c0.32,0.58 0.61,1.17 0.9,1.75c0.56,1.18 1.08,2.36 1.59,3.55c1,2.38 1.94,4.77 2.85,7.19l0.24,0.66l-0.56,0.41c-2.979,2.067 -6.208,3.747 -9.61,5c-1.68,0.667 -3.373,1.247 -5.08,1.74c-1.72,0.52 -3.43,1 -5.2,1.4l0.71,-1.33c1.837,4.355 4.507,8.309 7.86,11.64c1.687,1.713 3.487,3.31 5.39,4.78c1.885,1.47 3.87,2.806 5.94,4l0.91,0.51l-0.57,0.79c-0.84,1.17 -1.65,2.05 -2.5,3l-2.55,2.92l-5.16,5.56l-0.25,-1.37c2.987,1.34 6.132,2.294 9.36,2.84c3.253,0.629 6.543,1.05 9.85,1.26l0.12,0c5.258,1.155 10.618,1.778 16,1.86c5.386,0.091 10.761,-0.497 16,-1.75c5.26,-1.253 10.311,-3.257 15,-5.95c2.337,-1.354 4.567,-2.885 6.67,-4.58c2.098,-1.68 4.015,-3.573 5.72,-5.65z"/>
  <path id="svg_68" fill="#92E3A9" d="m383.61,277.07667c0,0 3.08,11.1 1.19,17.37c-1.89,6.27 -2.53,-2.94 -2.53,-2.94c0,0 -0.73,11.77 -2.09,12.34c-1.36,0.57 -0.53,-4.88 -0.53,-4.88l3.96,-21.89z"/>
  <g id="svg_69" opacity="0.1">
   <path id="svg_70" fill="black" d="m107.13,338.85667c0.46,8 17.09,9 20.1,0.69c3.01,-8.31 -20.69,-10.78 -20.1,-0.69z"/>
   <path id="svg_71" fill="black" d="m360.92,381.43667c-2,6.36 9.3,11.44 13.79,5.7c4.49,-5.74 -11.29,-13.74 -13.79,-5.7z"/>
   <path id="svg_72" fill="black" d="m284.1,367.01667c-0.76,2.73 2.47,4.13 3.95,1.5c1.48,-2.63 -3,-4.96 -3.95,-1.5z"/>
   <path id="svg_73" fill="black" d="m357.92,307.33667c2.78,5.81 15.52,1.52 15.23,-5.61c-0.29,-7.13 -18.74,-1.75 -15.23,5.61z"/>
   <path id="svg_74" fill="black" d="m138.3,338.27667c2.28,2.46 -3.72,5.95 -5.43,3.49c-1.71,-2.46 3.6,-5.47 5.43,-3.49z"/>
   <path id="svg_75" fill="black" d="m200.15,141.68667c-2.53,2.17 -5.12,-2.4 -2.64,-4.1c2.48,-1.7 4.68,2.36 2.64,4.1z"/>
   <path id="svg_76" fill="black" d="m371.09,288.54667c2.27,2.46 -3.72,5.95 -5.44,3.48c-1.72,-2.47 3.61,-5.46 5.44,-3.48z"/>
   <path id="svg_77" fill="black" d="m130.54,324.16667c6.42,-1.13 5.93,9.48 0,8.89c-5.93,-0.59 -5.77,-7.89 0,-8.89z"/>
   <path id="svg_78" fill="black" d="m144.72,270.35667c3,-0.54 2.81,4.48 0,4.21c-2.81,-0.27 -2.72,-3.73 0,-4.21z"/>
   <path id="svg_79" fill="black" d="m208.15,245.76667c3,-0.54 2.8,4.48 0,4.21c-2.8,-0.27 -2.73,-3.73 0,-4.21z"/>
   <path id="svg_80" fill="black" d="m334.1,145.27667c3,-0.53 2.81,4.49 0,4.21c-2.81,-0.28 -2.73,-3.72 0,-4.21z"/>
   <path id="svg_81" fill="black" d="m147.18,259.57667c3.55,-3.44 8.68,5.86 4.57,7.64c-4.11,1.78 -7.75,-4.55 -4.57,-7.64z"/>
   <path id="svg_82" fill="black" d="m357.4,213.22667c4.91,-0.53 3.24,9.95 -1.1,8.83c-4.34,-1.12 -3.3,-8.35 1.1,-8.83z"/>
   <path id="svg_83" fill="black" d="m301.1,369.16667c3,3.94 -6.85,7.91 -8.13,3.61c-1.28,-4.3 5.45,-7.12 8.13,-3.61z"/>
   <path id="svg_84" fill="black" d="m194.2,123.75667c6.42,-1.13 5.93,9.48 0,8.89c-5.93,-0.59 -5.76,-7.87 0,-8.89z"/>
  </g>
  <path id="svg_85" fill="#455A64" d="m245.56,392.31667l3.9,-3.17l5.05,1.58l0,2.46l-8.95,-0.87z"/>
  <path id="svg_86" fill="#455A64" d="m271.71,392.17667l-0.99,-1.32l3.72,0.35l-0.61,1.17l-2.12,-0.2z"/>
  <path id="svg_87" fill="#455A64" d="m264.62,395.49667c0,0 2.17,-2 2.6,-2.31c0.43,-0.31 5.5,-0.14 5.42,1.16c-0.08,1.3 -0.36,4.33 -0.94,4.33l-4.62,0l-2.46,-3.18z"/>
  <path id="svg_88" fill="#455A64" d="m260.29,388.27667l2.58,-1.19l2.6,-0.27l-0.54,2.19l-0.57,0.57l-3,-0.22l-1.07,-1.08z"/>
  <path id="svg_89" fill="#455A64" d="m258,390.41667l0.78,0l0.52,0.95l-2,0c0,0 -0.52,-0.14 -0.19,-0.33c0.33,-0.19 0.89,-0.62 0.89,-0.62z"/>
  <path id="svg_90" fill="#37474F" d="m136.8,408.06667l0,-33.68l-65.9997,0l0,-26.89l75.7197,-97.19l20.56,0l0,97l19.92,0l0,27.12l-19.92,0l0,33.64l-30.28,0zm-35.7097,-60.8l39.0997,0l0,-51.1l-39.0997,51.1z"/>
  <path id="svg_91" fill="#455A64" d="m131.2,408.06667l0,-33.68l-65.9998,0l0,-26.89l75.7198,-97.19l20.56,0l0,97l19.89,0l0,27.12l-19.89,0l0,33.64l-30.28,0zm-35.7098,-60.8l39.0998,0l0,-51.1l-39.0998,51.1z"/>
  <path id="svg_92" fill="#37474F" d="m404.62,408.06667l0,-33.68l-66,0l0,-26.89l75.71,-97.19l20.57,0l0,97l19.9,0l0,27.12l-19.89,0l0,33.64l-30.29,0zm-35.71,-60.8l39.09,0l0,-51.1l-39.09,51.1z"/>
  <path id="svg_93" fill="#455A64" d="m399,408.06667l0,-33.68l-66,0l0,-26.89l75.71,-97.19l20.57,0l0,97l19.92,0l0,27.12l-19.89,0l0,33.64l-30.31,0zm-35.71,-60.8l39.1,0l0,-51.1l-39.1,51.1z"/>
  <path id="svg_102" fill="#263238" d="m237.39666,427.48667l0,3.68l-14.79,0l0,-21.3l14.52,0l0,3.63l-10.38,0l0,5.13l9,0l0,3.36l-9,0l0,5.55l10.65,-0.05z"/>
  <path id="svg_103" fill="#263238" d="m240.66666,431.16667l0,-21.3l9.42,0c0.943,-0.007 1.874,0.205 2.72,0.62c0.81,0.4 1.536,0.949 2.14,1.62c0.601,0.671 1.078,1.443 1.41,2.28c0.333,0.813 0.506,1.682 0.51,2.56c0.031,1.326 -0.316,2.634 -1,3.77c-0.645,1.095 -1.627,1.951 -2.8,2.44l4.86,8l-4.65,0l-4.35,-7.14l-4.08,0l0,7.15l-4.18,0zm4.14,-10.77l5.19,0c0.374,0.002 0.742,-0.091 1.07,-0.27c0.331,-0.181 0.621,-0.43 0.85,-0.73c0.251,-0.332 0.443,-0.704 0.57,-1.1c0.143,-0.436 0.213,-0.891 0.21,-1.35c0.005,-0.471 -0.076,-0.938 -0.24,-1.38c-0.151,-0.397 -0.367,-0.765 -0.64,-1.09c-0.258,-0.3 -0.574,-0.545 -0.93,-0.72c-0.332,-0.167 -0.698,-0.256 -1.07,-0.26l-5,0l-0.01,6.9z"/>
  <path id="svg_104" fill="#263238" d="m260.58666,431.16667l0,-21.3l9.42,0c0.943,-0.007 1.874,0.205 2.72,0.62c0.81,0.4 1.536,0.949 2.14,1.62c0.601,0.671 1.078,1.443 1.41,2.28c0.333,0.813 0.507,1.682 0.51,2.56c0.031,1.326 -0.316,2.634 -1,3.77c-0.644,1.095 -1.627,1.951 -2.8,2.44l4.86,8l-4.65,0l-4.35,-7.14l-4.08,0l0,7.15l-4.18,0zm4.14,-10.77l5.19,0c0.374,0.002 0.742,-0.091 1.07,-0.27c0.332,-0.181 0.621,-0.43 0.85,-0.73c0.251,-0.332 0.444,-0.704 0.57,-1.1c0.143,-0.436 0.214,-0.891 0.21,-1.35c0.005,-0.471 -0.076,-0.938 -0.24,-1.38c-0.15,-0.397 -0.367,-0.765 -0.64,-1.09c-0.258,-0.3 -0.574,-0.545 -0.93,-0.72c-0.332,-0.167 -0.698,-0.256 -1.07,-0.26l-5,0l-0.01,6.9z"/>
  <path id="svg_105" fill="#263238" d="m289.66666,431.26667c-1.467,0.022 -2.92,-0.289 -4.25,-0.91c-1.234,-0.59 -2.342,-1.415 -3.26,-2.43c-1.836,-2.052 -2.857,-4.706 -2.87,-7.46c-0.007,-1.4 0.265,-2.787 0.8,-4.08c0.51,-1.273 1.249,-2.443 2.18,-3.45c0.94,-1.004 2.068,-1.813 3.32,-2.38c1.309,-0.598 2.732,-0.902 4.17,-0.89c1.462,-0.015 2.906,0.31 4.22,0.95c1.235,0.603 2.339,1.442 3.25,2.47c0.903,1.025 1.614,2.204 2.1,3.48c0.497,1.275 0.751,2.632 0.75,4c0.005,1.394 -0.259,2.776 -0.78,4.07c-0.502,1.264 -1.235,2.423 -2.16,3.42c-0.933,1 -2.054,1.805 -3.3,2.37c-1.312,0.581 -2.735,0.867 -4.17,0.84zm-6.18,-10.8c-0.002,0.907 0.14,1.808 0.42,2.67c0.261,0.827 0.671,1.6 1.21,2.28c0.549,0.663 1.23,1.205 2,1.59c0.821,0.401 1.722,0.61 2.635,0.61c0.914,0 1.815,-0.209 2.635,-0.61c0.775,-0.4 1.456,-0.959 2,-1.64c0.531,-0.686 0.934,-1.462 1.19,-2.29c0.56,-1.712 0.56,-3.558 0,-5.27c-0.28,-0.823 -0.696,-1.594 -1.23,-2.28c-0.544,-0.663 -1.227,-1.198 -2,-1.57c-0.819,-0.399 -1.718,-0.607 -2.63,-0.607c-0.911,0 -1.811,0.208 -2.63,0.607c-0.759,0.393 -1.424,0.946 -1.95,1.62c-0.525,0.684 -0.925,1.456 -1.18,2.28c-0.311,0.836 -0.483,1.718 -0.51,2.61l0.04,0z"/>
  <path id="svg_107" fill="white" d="m428.85,93.51667c-0.767,7.294 -3.545,14.231 -8.025,20.038c-4.48,5.807 -10.485,10.255 -17.345,12.848c-6.861,2.592 -14.307,3.228 -21.508,1.836c-7.2,-1.393 -13.873,-4.759 -19.272,-9.722l-19.81,2.91l9.91,-17.13c-2.476,-6.029 -3.411,-12.58 -2.72,-19.0602c0.531,-5.1805 2.078,-10.2054 4.553,-14.7872c2.475,-4.5817 5.83,-8.6303 9.872,-11.9139c4.041,-3.2836 8.691,-5.7377 13.683,-7.2219c4.991,-1.4842 10.227,-1.9693 15.406,-1.4275c5.179,0.5418 10.201,2.0998 14.777,4.5849c4.577,2.4851 8.618,5.8484 11.893,9.8974c3.275,4.049 5.719,8.7041 7.192,13.6989c1.473,4.9948 1.947,10.2312 1.394,15.4095l0,0.04z"/>
  <path id="svg_108" fill="#263238" d="m428.85,93.51667c-0.772,7.298 -3.54,14.242 -8,20.07c-1.11,1.45 -2.309,2.829 -3.59,4.13c-1.321,1.263 -2.717,2.445 -4.18,3.54c-2.916,2.213 -6.131,4.001 -9.55,5.31c-3.412,1.357 -6.996,2.232 -10.65,2.6c-1.829,0.163 -3.667,0.197 -5.5,0.1c-1.839,-0.045 -3.671,-0.235 -5.48,-0.57c-7.302,-1.338 -14.087,-4.687 -19.59,-9.67l0.47,0.14l-19.78,3l-1.44,0.22l0.73,-1.26l9.85,-17.16l0,0.67c-2.323,-5.676 -3.312,-11.809 -2.891,-17.9278c0.421,-6.1185 2.242,-12.0585 5.321,-17.3623c3.074,-5.2685 7.3,-9.774 12.36,-13.18c5.07,-3.3581 10.835,-5.5245 16.862,-6.3368c6.027,-0.8122 12.16,-0.2492 17.938,1.6468c5.724,1.9342 10.941,5.1257 15.27,9.34c4.321,4.1986 7.632,9.3231 9.685,14.9874c2.053,5.6643 2.793,11.7206 2.165,17.7127zm0,0c0.633,-5.9589 -0.11,-11.9834 -2.171,-17.61c-2.061,-5.6266 -5.386,-10.7054 -9.718,-14.8454c-4.332,-4.1399 -9.556,-7.2308 -15.271,-9.0346c-5.714,-1.8038 -11.766,-2.2725 -17.69,-1.3701c-5.895,0.8896 -11.508,3.1164 -16.41,6.51c-4.835,3.4035 -8.874,7.8148 -11.84,12.93c-2.913,5.1331 -4.622,10.8603 -5,16.75c-0.367,5.8861 0.586,11.7801 2.79,17.2501l0.14,0.35l-0.19,0.33l-10,17.09l-0.71,-1.05l19.83,-2.77l0.28,0l0.19,0.18c5.301,4.962 11.881,8.345 19,9.77c1.77,0.356 3.566,0.573 5.37,0.65c1.804,0.13 3.616,0.13 5.42,0c3.618,-0.279 7.18,-1.063 10.58,-2.33c3.419,-1.235 6.636,-2.967 9.55,-5.14c1.463,-1.078 2.859,-2.243 4.18,-3.49c1.284,-1.287 2.487,-2.653 3.6,-4.09c4.493,-5.82 7.286,-12.77 8.07,-20.08z"/>
  <path id="svg_109" fill="#263238" d="m364.13,83.16647c0.509,1.2167 1.219,2.339 2.1,3.32c-0.13,2.7202 1.76,5.2302 3.63,7.0002c2.221,2.046 4.748,3.733 7.49,5c4.563,2.054 9.384,3.477 14.33,4.23c-0.27,3.9 -1.71,7.76 -3.15,11.39c0,0.09 0.11,0.13 0.15,0c1.45,-3.59 3,-7.44 3.46,-11.35c0.974,0.16 1.944,0.31 2.91,0.45c1.48,0.21 3,0.37 4.55,0.45c2.652,0.341 5.328,0.465 8,0.37c3.148,0.036 6.21,-1.025 8.66,-3c1.093,-0.965 1.902,-2.209 2.339,-3.6c0.437,-1.39 0.486,-2.874 0.141,-4.29c-0.308,-1.276 -0.789,-2.504 -1.43,-3.65c-0.367,-0.803 -0.791,-1.5783 -1.27,-2.3202c-1.645,-2.3841 -3.688,-4.4677 -6.04,-6.16c-0.62,-0.46 -1.25,-0.9 -1.9,-1.33c-0.08,-0.08 -0.16,-0.17 -0.25,-0.25c-2.339,-2.1352 -4.985,-3.9082 -7.85,-5.26c-5.958,-2.9047 -12.473,-4.4875 -19.1,-4.64c-3.335,-0.0845 -6.669,0.204 -9.94,0.86c-2.86,0.59 -5.66,1.76 -7,4.55c-0.872,1.9972 -1.017,4.237 -0.41,6.33c0.117,0.6544 0.311,1.2923 0.58,1.9zm33.14,19.1702c-1.68,-0.24 -3.36,-0.54 -5,-0.91c0,-0.2 0,-0.4 0,-0.61c0.37,0.06 0.75,0.11 1.12,0.15c0.37,0.04 0.68,0.06 1,0.07c3.112,0.518 6.269,0.712 9.42,0.58c2.815,-0.119 5.61,-0.528 8.34,-1.22c-3.93,2.13 -8.94,2.4 -13.23,2.1c-0.53,-0.01 -1.09,-0.07 -1.65,-0.13l0,-0.03zm-10.2,-28.7102c0.88,0.16 1.75,0.35 2.61,0.55c-2.273,0.0204 -4.528,0.4053 -6.68,1.14c-2.355,0.7611 -4.439,2.1887 -6,4.11c-1.183,0.3207 -2.322,0.7876 -3.39,1.39c-0.25,0 -0.49,0 -0.74,0.08c-0.937,0.1327 -1.854,0.3813 -2.73,0.74c0,-0.12 0,-0.24 0,-0.35c0,-2.75 2.19,-4.61 4.49,-5.67c2.622,-1.1238 5.422,-1.7771 8.27,-1.93c1.388,-0.1 2.781,-0.11 4.17,-0.03l0,-0.03zm-16.14,12.48c0.26,0.35 0.54,0.69 0.83,1c-0.286,0.2363 -0.545,0.5047 -0.77,0.8c-0.114,-0.5931 -0.134,-1.2005 -0.06,-1.8zm20.78,14.6502c0,0.19 0,0.38 0,0.57c-2.346,-0.521 -4.657,-1.189 -6.92,-2c1.41,0.35 2.83,0.66 4.26,0.94c0.89,0.16 1.78,0.34 2.66,0.49zm-0.65,-3.8c-6.054,-1.198 -11.893,-3.302 -17.32,-6.24c-0.69,-0.38 -1.39,-0.79 -2.06,-1.22c0.183,-0.569 0.531,-1.0705 1,-1.4402c2.401,2.0572 5.124,3.7062 8.06,4.8802c3.107,1.277 6.282,2.382 9.51,3.31c0.088,0.031 0.183,0.034 0.272,0.009c0.09,-0.025 0.17,-0.077 0.228,-0.149c0.021,0.045 0.038,0.092 0.05,0.14c0.12,0.23 0.2,0.47 0.26,0.71zm-16.59,-8.7902c-0.273,-0.2133 -0.543,-0.4333 -0.81,-0.66c1.197,-0.3782 2.475,-0.4128 3.69,-0.1c2.869,0.4991 5.647,1.4261 8.24,2.7502c2.087,1.123 3.769,2.872 4.81,5c-5.53,-1.65 -11.25,-3.44 -15.93,-6.9902zm16.91,10.0002c0.079,0.33 0.139,0.663 0.18,1l-0.05,0l-1.31,-0.26l-1.82,-0.52c-3.11,-0.954 -6.124,-2.199 -9,-3.72c3.221,1.292 6.542,2.319 9.93,3.07c0.69,0.19 1.39,0.32 2.07,0.43zm0.72,0.13c1.83,0.33 3.68,0.57 5.54,0.74c-0.796,0.38 -1.668,0.571 -2.55,0.56c-0.966,-0.004 -1.931,-0.097 -2.88,-0.28c-0.03,-0.32 -0.06,-0.66 -0.11,-1l0,-0.02zm-12.88,-2.39l-0.45,-0.17c-1.306,-0.562 -2.563,-1.231 -3.76,-2l-1.1,-0.69c-0.17,-0.18 -0.34,-0.35 -0.5,-0.53l-0.29,-0.36c1.945,1.394 3.983,2.654 6.1,3.77l0,-0.02zm-7.94,-11.1202c0.481,-1.1332 1.289,-2.0975 2.32,-2.77c0.895,-0.08 1.795,-0.08 2.69,0c0.241,0.6444 0.665,1.2041 1.22,1.61c1.222,0.9625 2.504,1.8443 3.84,2.64c4.874,2.9182 10.291,4.8132 15.92,5.5702c0.884,1.061 1.517,2.309 1.85,3.65c0.214,0.878 0.085,1.804 -0.36,2.59c-2.312,-0.182 -4.613,-0.496 -6.89,-0.94c-0.09,-0.35 -0.18,-0.71 -0.3,-1.06c-0.878,-2.793 -2.764,-5.16 -5.29,-6.64c-2.677,-1.4921 -5.572,-2.5518 -8.58,-3.1402c-1.628,-0.4772 -3.368,-0.4034 -4.95,0.21l-0.1,0.06c-0.51,-0.543 -0.968,-1.1322 -1.37,-1.76l0,-0.02zm38.77,5.1002c-0.467,0.378 -1.02,0.635 -1.61,0.75c-1.511,-2.4267 -3.497,-4.5222 -5.84,-6.1602c-4.602,-3.4651 -10.097,-5.5465 -15.84,-6c-2.591,-0.204 -5.198,-0.056 -7.75,0.44l0.21,-0.18c0.927,-0.8028 1.973,-1.4572 3.1,-1.94c4.32,-1.9 9.44,-1.73 14,-0.72l0.34,0.12c4.758,1.6649 9.203,4.1155 13.15,7.25l0.14,0.22c1.05,1.79 1.87,4.71 0.1,6.2402l0,-0.02zm-32.23,-9.6802c2.25,-0.5818 4.567,-0.8576 6.89,-0.82c5.299,0.0721 10.481,1.5714 15,4.34c2.274,1.3894 4.336,3.1005 6.12,5.08c0.563,0.6192 1.069,1.2892 1.51,2.0002l-1.35,0.11c-1.483,0.118 -2.972,0.152 -4.46,0.1c-1.14,0 -2.27,-0.13 -3.39,-0.26l-0.1,-0.12c-3.79,-4.5802 -9.54,-7.0002 -15.12,-8.6102c-1.789,-0.5385 -3.618,-0.9331 -5.47,-1.18c0.096,-0.2221 0.22,-0.4305 0.37,-0.62l0,-0.02zm1.26,2.14c2.81,0.5713 5.559,1.4084 8.21,2.5c2.566,0.998 4.966,2.3768 7.12,4.09c0.59,0.4872 1.154,1.0042 1.69,1.5502c-3.927,-0.661 -7.734,-1.8972 -11.3,-3.6702c-1.272,-0.6387 -2.51,-1.343 -3.71,-2.11c-0.666,-0.42 -1.306,-0.86 -1.92,-1.32c-0.568,-0.3371 -1.089,-0.7473 -1.55,-1.22c0.49,0 0.98,0.11 1.46,0.2l0,-0.02zm28.44,14.0002c-1.5,1.68 -4.19,1.86 -6.29,1.81l-0.91,0c0.83,-2 -0.06,-4.28 -1.27,-6.11c2.932,0.327 5.893,0.273 8.81,-0.16c0.401,0.696 0.583,1.496 0.522,2.297c-0.061,0.801 -0.361,1.565 -0.862,2.193l0,-0.03zm-36.82,-12.6402c-0.119,-0.2693 -0.219,-0.5467 -0.3,-0.83c0.409,-0.1861 0.83,-0.3431 1.26,-0.47c-0.151,0.1527 -0.295,0.3129 -0.43,0.48c-0.202,0.2561 -0.379,0.5307 -0.53,0.82zm44.36,14.6002c-0.672,0.288 -1.368,0.519 -2.08,0.69c-2.655,0.762 -5.384,1.238 -8.14,1.42c-2.195,0.147 -4.398,0.123 -6.59,-0.07c0.546,-0.275 1.027,-0.664 1.41,-1.14l0.1,0c2.47,0.14 5.32,0.18 7.48,-1.23c0.531,-0.337 0.99,-0.775 1.35,-1.29c0.361,-0.515 0.616,-1.096 0.75,-1.71c0.203,-1.137 0.057,-2.308 -0.42,-3.36c0.558,-0.121 1.085,-0.356 1.547,-0.69c0.463,-0.334 0.852,-0.759 1.143,-1.25c0.509,-1.0279 0.673,-2.1917 0.47,-3.3202c-0.064,-0.4029 -0.158,-0.8006 -0.28,-1.19c1.818,1.5424 3.357,3.3859 4.55,5.4502c0.748,1.282 1.01,2.79 0.74,4.25c-0.311,1.244 -0.958,2.378 -1.87,3.28l-0.16,0.16zm-45.46,-10.2902c-0.732,-0.6493 -1.427,-1.3405 -2.08,-2.07c0.133,-0.5374 0.372,-1.0427 0.703,-1.4859c0.332,-0.4433 0.749,-0.8153 1.227,-1.0941c0.194,0.5513 0.439,1.0836 0.73,1.59c-0.32,1.1165 -0.358,2.2953 -0.11,3.43l-0.47,-0.37zm-4.51,-5.85c-0.556,-1.5232 -0.491,-3.204 0.18,-4.68c0.608,-1.1542 1.459,-2.1624 2.495,-2.955c1.036,-0.7925 2.232,-1.3504 3.505,-1.635c3,-0.8 6.25,-0.51 9.33,-0.2l0.48,0.06c-2.341,0.2877 -4.628,0.9142 -6.79,1.86c-2.42,1.09 -4.7,3 -5.13,5.72c-0.085,0.5903 -0.085,1.1897 0,1.78c-1.128,0.5927 -2.028,1.542 -2.56,2.7c-0.615,-0.8148 -1.122,-1.7054 -1.51,-2.65zm35.5,-6.45c-2.561,-1.0689 -5.22,-1.8861 -7.94,-2.44c-1.568,-0.3171 -3.154,-0.5375 -4.75,-0.66c-1.72,-0.3533 -3.44,-0.6433 -5.16,-0.87c-5.82,-0.76 -13.28,-1.62 -17.47,3.49c-0.14,0.17 -0.25,0.35 -0.37,0.52c0.213,-0.5481 0.503,-1.0633 0.86,-1.53c0.927,-1.0777 2.152,-1.8571 3.52,-2.24c2.926,-0.8498 5.954,-1.294 9,-1.32c6.119,-0.205 12.216,0.8361 17.92,3.06c1.5,0.5798 2.966,1.2442 4.39,1.99zm8.88,27.1602l-0.5,0.06c1.631,-0.451 3.193,-1.124 4.64,-2c0.754,-0.47 1.458,-1.017 2.1,-1.63c0.422,-0.199 0.813,-0.458 1.16,-0.77c0.065,-0.062 0.126,-0.129 0.18,-0.2c-0.12,0.234 -0.253,0.461 -0.4,0.68c-1.65,2.36 -4.42,3.47 -7.18,3.86zm-41,-12.9c-0.383,-0.623 -0.679,-1.2964 -0.88,-2.0002c0.75,0.6762 1.541,1.3042 2.37,1.8802l0.16,0.13c0,0.606 0.134,1.205 0.393,1.754c0.26,0.548 0.638,1.032 1.107,1.416c1.184,1.062 2.494,1.976 3.9,2.72c0.5,0.36 1,0.71 1.55,1c0.55,0.29 1.29,0.74 2,1.09c-1.586,-0.68 -3.118,-1.483 -4.58,-2.4c-2.393,-1.391 -4.443,-3.301 -6,-5.59l-0.02,0z"/>
 </g>
</svg>