<svg width="304" height="304" viewBox="0 0 304 304" fill="none" xmlns="http://www.w3.org/2000/svg">
<path d="M267.021 82.8461C253.214 61.8883 226.966 49.4426 201.601 51.8381C176.235 54.2336 152.888 71.2941 143.397 94.465C138.533 106.291 137.013 119.557 129.765 130.136C122.336 140.983 109.951 147.452 97.8028 152.857C85.655 158.262 72.8748 163.242 63.311 172.313C53.7471 181.385 48.111 195.977 53.7471 207.796C59.511 219.81 74.0665 224.613 84.5788 233.004C95.0911 241.394 101.773 253.737 112.504 261.847C122.421 269.344 135.207 272.639 147.744 272.615C160.281 272.591 172.611 269.429 184.321 265.058C220.637 251.505 254.849 226.285 269.338 190.985C296.157 125.613 267.021 82.8461 267.021 82.8461Z" fill="#92E3A9"/>
<g opacity="0.7">
<path d="M267.021 82.8461C253.214 61.8883 226.966 49.4426 201.601 51.8381C176.235 54.2336 152.888 71.2941 143.397 94.465C138.533 106.291 137.013 119.557 129.765 130.136C122.336 140.983 109.951 147.452 97.8028 152.857C85.655 158.262 72.8748 163.242 63.311 172.313C53.7471 181.385 48.111 195.977 53.7471 207.796C59.511 219.81 74.0665 224.613 84.5788 233.004C95.0911 241.394 101.773 253.737 112.504 261.847C122.421 269.344 135.207 272.639 147.744 272.615C160.281 272.591 172.611 269.429 184.321 265.058C220.637 251.505 254.849 226.285 269.338 190.985C296.157 125.613 267.021 82.8461 267.021 82.8461Z" fill="white"/>
</g>
<path d="M218.23 247.328C218.23 247.328 227.046 247.28 236.823 233.66C245.365 221.75 229.15 184.875 220.06 176.393C210.97 167.911 193.278 214.235 195.333 225.969C198.257 242.689 210.861 246.903 218.23 247.328Z" fill="#92E3A9"/>
<path d="M232.535 224.419L218.964 237.91L220.332 272.287H215.839C215.784 272.05 215.955 248.368 216.101 220.747L205.698 210.769C206.488 210.769 205.09 209.419 204.932 209.286L216.149 217.056C216.24 199.795 216.326 185.896 216.326 185.896L217.341 184.625L217.906 203.084L227.501 196.177C227.361 196.311 225.944 197.661 226.735 197.661L218.004 206.343L218.818 232.937L233.629 222.279C233.429 222.485 231.398 224.419 232.535 224.419Z" stroke="#263238" stroke-miterlimit="10"/>
<path d="M258.564 258.522C258.564 258.522 269.29 257.749 274.64 247.578C280.416 236.579 266.329 210.49 259.13 208.556C251.226 206.422 238.75 227.27 241.303 243.467C243.054 254.521 253.609 258.242 258.564 258.522Z" fill="#92E3A9"/>
<path d="M266.613 238.579L259.135 244.519C258.904 230.572 258.709 219.433 258.709 219.433L257.791 218.388L257.451 232.633V232.943L251.103 227.964C251.103 227.964 252.119 228.997 251.596 229.003L257.372 235.284L256.983 251.663L247.395 244.118C247.395 244.118 248.829 245.583 248.094 245.589L256.891 255.159L256.843 257.05L256.788 259.087L256.49 272.007L259.591 271.971C259.518 267.818 259.451 263.459 259.384 259.105C259.323 255.396 259.251 251.682 259.202 248.113C259.202 247.845 259.202 247.596 259.202 247.334L266.072 239.813C265.44 239.82 266.613 238.579 266.613 238.579Z" stroke="#263238" stroke-miterlimit="10"/>
<path d="M245.206 266.517C244.209 265.714 242.415 265.732 240.841 265.799C240.956 264.796 241.376 263.805 241.497 262.796C241.594 262.275 241.541 261.738 241.347 261.245C241.152 260.753 240.823 260.325 240.397 260.011C238.67 258.795 235.63 259.269 233.247 259.963C233.575 257.603 231.064 255.305 227.702 254.94C224.339 254.576 220.6 256.217 219.615 258.522C218.253 257.22 215.536 256.698 213.268 257.306C211 257.914 209.389 259.61 209.504 261.245C207.765 261.13 205.826 261.051 204.385 261.799C202.269 262.905 202.415 265.143 200.785 266.59C200.259 266.489 199.715 266.533 199.212 266.717C198.709 266.902 198.265 267.219 197.928 267.635C197.375 268.359 197.277 269.186 196.943 269.964C196.262 271.521 194 271.715 191.842 272.396L245.857 272.846C247.03 272.469 248.033 271.667 247.985 270.797C247.936 269.928 246.483 269.222 245.358 269.654C245.747 269.672 246.367 267.441 245.206 266.517Z" fill="#92E3A9"/>
<path d="M269.49 268.882C268.882 268.395 267.775 268.402 266.815 268.444C266.882 267.836 267.137 267.228 267.216 266.62C267.276 266.301 267.244 265.971 267.125 265.669C267.005 265.366 266.803 265.104 266.541 264.912C265.483 264.17 263.617 264.456 262.157 264.881C262.358 263.434 260.82 262.024 258.759 261.805C256.698 261.586 254.405 262.583 253.804 263.994C252.971 263.197 251.299 262.881 249.912 263.258C248.526 263.635 247.535 264.668 247.608 265.69C246.538 265.617 245.352 265.562 244.471 266.024C243.17 266.705 243.255 268.073 242.264 268.961C241.94 268.9 241.606 268.927 241.296 269.041C240.987 269.154 240.714 269.349 240.507 269.605C240.245 270.052 240.041 270.53 239.899 271.028C239.485 271.983 238.075 272.098 236.773 272.518L269.879 272.791C270.596 272.56 271.211 272.068 271.186 271.539C271.162 271.01 270.262 270.572 269.575 270.84C269.818 270.821 270.201 269.453 269.49 268.882Z" fill="#92E3A9"/>
<path d="M135.773 163.85C134.28 162.826 132.536 162.231 130.73 162.127C128.923 162.023 127.122 162.415 125.523 163.261C123.923 164.107 122.585 165.374 121.653 166.926C120.722 168.478 120.233 170.254 120.238 172.064V172.125C119.936 171.738 119.556 171.419 119.122 171.19C118.688 170.96 118.21 170.825 117.72 170.794C117.23 170.762 116.739 170.835 116.279 171.006C115.819 171.178 115.401 171.445 115.052 171.79C114.844 169.803 113.882 167.972 112.364 166.673C110.846 165.374 108.887 164.706 106.892 164.807C104.897 164.909 103.016 165.771 101.637 167.217C100.259 168.663 99.4871 170.583 99.4811 172.581C99.1556 172.351 98.777 172.208 98.3808 172.164C97.9847 172.121 97.584 172.178 97.2164 172.332C96.8487 172.486 96.5261 172.731 96.2789 173.043C96.0316 173.356 95.8678 173.726 95.8027 174.119H151.052C151.051 172.786 150.669 171.48 149.95 170.358C149.23 169.235 148.204 168.343 146.993 167.785C145.782 167.228 144.436 167.03 143.116 167.214C141.795 167.398 140.555 167.956 139.542 168.823C139.208 167.865 138.73 166.963 138.126 166.148" stroke="#263238" stroke-linecap="round" stroke-linejoin="round"/>
<path d="M230.718 91.1331C232.535 90.4984 234.478 90.3078 236.383 90.5773C238.289 90.8468 240.102 91.5685 241.671 92.6821C243.241 93.7957 244.521 95.2689 245.405 96.9785C246.289 98.688 246.75 100.584 246.751 102.509V102.582C247.118 102.113 247.58 101.727 248.107 101.449C248.633 101.171 249.212 101.007 249.807 100.969C250.401 100.93 250.996 101.018 251.554 101.225C252.112 101.433 252.62 101.757 253.044 102.174C253.316 99.7774 254.491 97.5741 256.33 96.0134C258.17 94.4527 260.535 93.652 262.944 93.7745C265.353 93.897 267.625 94.9334 269.297 96.6726C270.968 98.4118 271.914 100.723 271.941 103.135C272.419 102.791 272.994 102.608 273.582 102.612C274.26 102.61 274.916 102.85 275.433 103.288C275.95 103.726 276.294 104.333 276.404 105.002H209.359C209.355 103.379 209.816 101.79 210.69 100.423C211.563 99.0563 212.811 97.9693 214.285 97.292C215.759 96.6146 217.397 96.3754 219.003 96.6029C220.609 96.8304 222.116 97.515 223.343 98.575C223.951 96.8224 224.954 95.233 226.274 93.9299" stroke="#263238" stroke-linecap="round" stroke-linejoin="round"/>
<path d="M24.959 77.137H92.0031C92.0079 75.5149 91.5461 73.9256 90.6728 72.5586C89.7994 71.1917 88.5514 70.1047 87.0775 69.4274C85.6036 68.75 83.9659 68.5108 82.3598 68.7383C80.7538 68.9658 79.247 69.6504 78.0191 70.7104C77.0876 68.0196 75.2329 65.7458 72.7841 64.2926C70.3354 62.8395 67.451 62.3009 64.6428 62.7724C61.8346 63.244 59.2843 64.6952 57.4445 66.8685C55.6047 69.0418 54.5944 71.7967 54.5929 74.6442V74.7171C54.226 74.2482 53.7642 73.8621 53.2377 73.5841C52.7112 73.3061 52.1319 73.1425 51.5377 73.104C50.9436 73.0656 50.348 73.1531 49.7901 73.3609C49.2321 73.5687 48.7244 73.892 48.3001 74.3098C48.0286 71.9128 46.8535 69.7095 45.0141 68.1488C43.1747 66.5881 40.8095 65.7875 38.4003 65.9099C35.9912 66.0324 33.7193 67.0688 32.0477 68.808C30.3761 70.5472 29.4304 72.8583 29.4035 75.2704C28.9255 74.9266 28.3506 74.7435 27.7619 74.7475C27.0876 74.7501 26.436 74.9916 25.9229 75.429C25.4098 75.8665 25.0682 76.4716 24.959 77.137Z" fill="white" stroke="#263238" stroke-miterlimit="10"/>
<path d="M114.309 100.837L116.388 113.836" stroke="#92E3A9" stroke-miterlimit="10"/>
<path d="M106.447 105.439L115.099 115.915" stroke="#92E3A9" stroke-miterlimit="10"/>
<path d="M105.08 114.334L113.179 117.502" stroke="#92E3A9" stroke-miterlimit="10"/>
<path d="M63.9922 136.958V126.944" stroke="#263238" stroke-linecap="round" stroke-linejoin="round"/>
<path d="M40.4139 136.958H63.9922V129.571H40.4139V136.958Z" fill="white" stroke="#263238" stroke-linecap="round" stroke-linejoin="round"/>
<path d="M40.4141 136.958V126.944" stroke="#263238" stroke-linecap="round" stroke-linejoin="round"/>
<path d="M123.38 272.433H171.035V189.453H123.38V272.433Z" fill="white" stroke="#263238" stroke-linecap="round" stroke-linejoin="round"/>
<path d="M75.8782 272.433H123.533L123.533 158.688H75.8782L75.8782 272.433Z" fill="white" stroke="#263238" stroke-linecap="round" stroke-linejoin="round"/>
<path d="M28.0032 272.439H75.6582L75.6582 136.757H28.0032L28.0032 272.439Z" fill="white" stroke="#263238" stroke-linecap="round" stroke-linejoin="round"/>
<path d="M66.7891 145.312V267.295" stroke="#92E3A9" stroke-linecap="round" stroke-linejoin="round"/>
<path d="M56.3672 145.312V267.295" stroke="#92E3A9" stroke-linecap="round" stroke-linejoin="round"/>
<path d="M45.9453 145.312V267.295" stroke="#92E3A9" stroke-linecap="round" stroke-linejoin="round"/>
<path d="M35.5312 145.312V267.295" stroke="#92E3A9" stroke-linecap="round" stroke-linejoin="round"/>
<path d="M115.623 164.561V175.913V187.258V198.609V209.955V221.312V232.663V244.009V255.36V266.711V266.93" stroke="#92E3A9" stroke-linecap="round" stroke-linejoin="round"/>
<path d="M105.201 164.561V175.913V187.258V198.609V209.955V221.312V232.663V244.009V255.36V266.711V266.93" stroke="#92E3A9" stroke-linecap="round" stroke-linejoin="round"/>
<path d="M94.7754 164.561V175.913V187.258V198.609V209.955V221.312V232.663V244.009V255.36V266.711V266.93" stroke="#92E3A9" stroke-linecap="round" stroke-linejoin="round"/>
<path d="M84.3594 164.561V175.913V187.258V198.609V209.955V221.312V232.663V244.009V255.36V266.711V266.93" stroke="#92E3A9" stroke-linecap="round" stroke-linejoin="round"/>
<path d="M115.623 164.561H113.58H103.84H94.0935H84.3594" stroke="#92E3A9" stroke-linecap="round" stroke-linejoin="round"/>
<path d="M115.623 175.913H113.58H103.84H94.0935H84.3594" stroke="#92E3A9" stroke-linecap="round" stroke-linejoin="round"/>
<path d="M115.623 187.258H113.58H103.84H94.0935H84.3594" stroke="#92E3A9" stroke-linecap="round" stroke-linejoin="round"/>
<path d="M115.623 198.609H113.58H103.84H94.0935H84.3594" stroke="#92E3A9" stroke-linecap="round" stroke-linejoin="round"/>
<path d="M115.623 209.955H113.58H103.84H94.0935H84.3594" stroke="#92E3A9" stroke-linecap="round" stroke-linejoin="round"/>
<path d="M115.623 221.312H113.58H103.84H94.0935H84.3594" stroke="#92E3A9" stroke-linecap="round" stroke-linejoin="round"/>
<path d="M115.623 232.663H113.58H103.84H94.0935H84.3594" stroke="#92E3A9" stroke-linecap="round" stroke-linejoin="round"/>
<path d="M115.623 244.009H113.58H103.84H94.0935H84.3594" stroke="#92E3A9" stroke-linecap="round" stroke-linejoin="round"/>
<path d="M115.623 255.36H113.58H103.84H94.0935H84.3594" stroke="#92E3A9" stroke-linecap="round" stroke-linejoin="round"/>
<path d="M115.623 266.711H113.58H103.84H94.0935H84.3594" stroke="#92E3A9" stroke-linecap="round" stroke-linejoin="round"/>
<path d="M166.372 196.299H130.348" stroke="#92E3A9" stroke-linecap="round" stroke-linejoin="round"/>
<path d="M166.372 207.65H130.348" stroke="#92E3A9" stroke-linecap="round" stroke-linejoin="round"/>
<path d="M166.372 218.995H130.348" stroke="#92E3A9" stroke-linecap="round" stroke-linejoin="round"/>
<path d="M166.372 230.347H130.348" stroke="#92E3A9" stroke-linecap="round" stroke-linejoin="round"/>
<path d="M166.372 241.698H130.348" stroke="#92E3A9" stroke-linecap="round" stroke-linejoin="round"/>
<path d="M166.372 253.05H130.348" stroke="#92E3A9" stroke-linecap="round" stroke-linejoin="round"/>
<path d="M166.372 264.395H130.348" stroke="#92E3A9" stroke-linecap="round" stroke-linejoin="round"/>
<path d="M276.403 272.791H254.613H252.077H24.959" stroke="#263238" stroke-linecap="round" stroke-linejoin="round"/>
<path d="M107.749 272.086C107.427 272.238 105.086 272.323 102.101 272.372C96.0208 272.475 87.2716 272.427 87.2716 272.427C87.2716 272.427 86.7974 272.427 86.615 270.055C86.4326 267.684 87.6 265.799 87.7337 264.808C88.3417 260.26 86.7913 258.364 86.767 258.029C86.7427 257.695 95.279 257.506 95.279 257.506L98.0758 257.318L97.4678 261.318C97.4297 261.545 97.4094 261.775 97.407 262.005C97.3492 263.42 97.7926 264.81 98.659 265.93C99.5254 267.05 100.759 267.828 102.143 268.128H102.271C102.472 267.94 105.919 266.347 107.33 268.548C108.102 269.745 107.749 272.086 107.749 272.086Z" fill="#263238"/>
<mask id="mask0_458_126" style="mask-type:luminance" maskUnits="userSpaceOnUse" x="86" y="257" width="22" height="16">
<path d="M107.749 272.086C107.427 272.238 105.086 272.323 102.101 272.372C96.0208 272.475 87.2716 272.427 87.2716 272.427C87.2716 272.427 86.7974 272.427 86.615 270.055C86.4326 267.684 87.6 265.799 87.7337 264.808C88.3417 260.26 86.7913 258.364 86.767 258.029C86.7427 257.695 95.279 257.506 95.279 257.506L98.0758 257.318L97.4678 261.318C97.4297 261.545 97.4094 261.775 97.407 262.005C97.3492 263.42 97.7926 264.81 98.659 265.93C99.5254 267.05 100.759 267.828 102.143 268.128H102.271C102.472 267.94 105.919 266.347 107.33 268.548C108.102 269.745 107.749 272.086 107.749 272.086Z" fill="white"/>
</mask>
<g mask="url(#mask0_458_126)">
<path opacity="0.2" d="M107.749 272.086C107.427 272.238 105.086 272.323 102.101 272.372C96.0208 272.475 87.2716 272.427 87.2716 272.427C87.2716 272.427 86.7974 272.427 86.615 270.055C86.4326 267.684 87.6 265.799 87.7337 264.808C88.3417 260.26 86.7913 258.364 86.767 258.029C86.7427 257.695 95.279 257.506 95.279 257.506L98.0758 257.318L97.4678 261.318C97.4297 261.545 97.4094 261.775 97.407 262.005C97.3492 263.42 97.7926 264.81 98.659 265.93C99.5254 267.05 100.759 267.828 102.143 268.128H102.271C102.472 267.94 105.919 266.347 107.33 268.548C108.102 269.745 107.749 272.086 107.749 272.086Z" fill="white"/>
<path opacity="0.3" d="M102.101 272.384C96.0208 272.488 87.2716 272.439 87.2716 272.439C87.2716 272.439 86.7974 272.439 86.615 270.068C86.4326 267.697 87.6 265.812 87.7337 264.821C88.3417 260.273 86.7913 258.376 86.767 258.042C86.7427 257.707 95.279 257.519 95.279 257.519L98.0758 257.33L97.4678 261.331C97.4297 261.558 97.4094 261.788 97.407 262.018C95.4796 263.611 93.9475 264.894 93.9475 264.894C93.9475 264.894 101.76 267.472 102.101 272.384Z" fill="black"/>
</g>
<path d="M107.749 272.086C107.427 272.238 105.086 272.323 102.101 272.372C96.0208 272.475 87.2716 272.427 87.2716 272.427C87.2716 272.427 86.7974 272.427 86.615 270.055C86.4326 267.684 87.6 265.799 87.7337 264.808C88.3417 260.26 86.7913 258.364 86.767 258.029C86.7427 257.695 95.279 257.506 95.279 257.506L98.0758 257.318L97.4678 261.318C97.4297 261.545 97.4094 261.775 97.407 262.005C97.3492 263.42 97.7926 264.81 98.659 265.93C99.5254 267.05 100.759 267.828 102.143 268.128H102.271C102.472 267.94 105.919 266.347 107.33 268.548C108.102 269.745 107.749 272.086 107.749 272.086Z" stroke="#263238" stroke-linecap="round" stroke-linejoin="round"/>
<path d="M99.9252 252.089C100.211 253.615 100.922 254.047 100.46 254.764C100.393 254.874 100.327 255.001 100.26 255.135C99.9009 255.877 99.5179 256.923 98.1073 257.318C96.4475 257.786 88.5009 258.218 86.7864 258.005C85.0718 257.792 84.099 256.181 84.0017 254.819C83.9044 253.457 84.6462 252.606 84.5307 251.08C84.4152 249.554 83.2235 249.11 83.1444 248.094C83.0654 247.079 84.0504 245.602 84.0382 244.586C84.0382 242.446 84.0747 244.781 84.5003 232.615C84.7374 225.678 86.4155 224.17 84.5003 216.302C83.8072 213.463 76.3652 162.056 76.3652 162.056L99.3172 163.43C99.3172 163.43 99.682 172.186 100.095 182.528C100.618 195.685 101.22 211.408 101.239 214.946C101.275 222.133 100.631 232.201 100.089 241.139C99.8644 244.951 99.4814 247.578 100.089 249.043C100.162 249.196 100.205 249.361 100.217 249.529C100.32 250.496 99.6334 250.563 99.9252 252.089Z" fill="#92E3A9"/>
<mask id="mask1_458_126" style="mask-type:luminance" maskUnits="userSpaceOnUse" x="76" y="162" width="26" height="97">
<path d="M99.9252 252.089C100.211 253.615 100.922 254.047 100.46 254.764C100.393 254.874 100.327 255.001 100.26 255.135C99.9009 255.877 99.5179 256.923 98.1073 257.318C96.4475 257.786 88.5009 258.218 86.7864 258.005C85.0718 257.792 84.099 256.181 84.0017 254.819C83.9044 253.457 84.6462 252.606 84.5307 251.08C84.4152 249.554 83.2235 249.11 83.1444 248.094C83.0654 247.079 84.0504 245.602 84.0382 244.586C84.0382 242.446 84.0747 244.781 84.5003 232.615C84.7374 225.678 86.4155 224.17 84.5003 216.302C83.8072 213.463 76.3652 162.056 76.3652 162.056L99.3172 163.43C99.3172 163.43 99.682 172.186 100.095 182.528C100.618 195.685 101.22 211.408 101.239 214.946C101.275 222.133 100.631 232.201 100.089 241.139C99.8644 244.951 99.4814 247.578 100.089 249.043C100.162 249.196 100.205 249.361 100.217 249.529C100.32 250.496 99.6334 250.563 99.9252 252.089Z" fill="white"/>
</mask>
<g mask="url(#mask1_458_126)">
<path opacity="0.3" d="M100.26 255.135C99.9009 255.877 99.5179 256.923 98.1073 257.318C96.4475 257.786 88.5009 258.218 86.7864 258.005C85.0718 257.792 84.099 256.181 84.0017 254.819C83.9044 253.457 84.6462 252.606 84.5307 251.08C84.4152 249.554 83.2235 249.11 83.1444 248.094C83.0654 247.079 84.0504 245.602 84.0382 244.586C84.0382 242.446 84.0747 244.781 84.5003 232.615C84.7374 225.678 86.4155 224.17 84.5003 216.302C83.8072 213.463 76.3652 162.056 76.3652 162.056L99.3172 163.43C99.3172 163.43 99.682 172.186 100.095 182.528C97.3291 194.031 94.1188 206.69 92.915 208.818L94.812 212.131C94.812 212.131 90.2763 222.656 90.2763 223.926C90.2763 225.197 91.8084 237.084 92.3374 239.552C92.8664 242.021 90.2763 240.263 90.2763 242.343C90.2763 244.258 90.0696 253.579 100.26 255.135Z" fill="black"/>
</g>
<path d="M99.9252 252.089C100.211 253.615 100.922 254.047 100.46 254.764C100.393 254.874 100.327 255.001 100.26 255.135C99.9009 255.877 99.5179 256.923 98.1073 257.318C96.4475 257.786 88.5009 258.218 86.7864 258.005C85.0718 257.792 84.099 256.181 84.0017 254.819C83.9044 253.457 84.6462 252.606 84.5307 251.08C84.4152 249.554 83.2235 249.11 83.1444 248.094C83.0654 247.079 84.0504 245.602 84.0382 244.586C84.0382 242.446 84.0747 244.781 84.5003 232.615C84.7374 225.678 86.4155 224.17 84.5003 216.302C83.8072 213.463 76.3652 162.056 76.3652 162.056L99.3172 163.43C99.3172 163.43 99.682 172.186 100.095 182.528C100.618 195.685 101.22 211.408 101.239 214.946C101.275 222.133 100.631 232.201 100.089 241.139C99.8644 244.951 99.4814 247.578 100.089 249.043C100.162 249.196 100.205 249.361 100.217 249.529C100.32 250.496 99.6334 250.563 99.9252 252.089Z" stroke="#263238" stroke-linecap="round" stroke-linejoin="round"/>
<path d="M98.1678 180.047C98.1678 180.047 95.3528 182.479 92.9512 182.041" stroke="#263238" stroke-linecap="round" stroke-linejoin="round"/>
<path d="M97.887 184.644C97.887 184.644 93.1446 183.501 92.6035 182.54" stroke="#263238" stroke-linecap="round" stroke-linejoin="round"/>
<path d="M91.8066 206.307C91.8066 206.307 94.3663 212.995 97.2118 214.612" stroke="#263238" stroke-linecap="round" stroke-linejoin="round"/>
<path d="M97.3407 250.697C97.3407 250.697 91.6559 252.454 88.8287 251.171C86.0015 249.888 91.0601 254.108 96.374 253.737" stroke="#263238" stroke-linecap="round" stroke-linejoin="round"/>
<path d="M89.291 220.376C89.291 220.376 89.3397 238.16 93.9787 241.698" stroke="#263238" stroke-linecap="round" stroke-linejoin="round"/>
<path d="M94.0566 260.254C95.1536 259.817 96.3177 259.572 97.4979 259.531" stroke="#263238" stroke-linecap="round" stroke-linejoin="round"/>
<path d="M94.1602 262.559C94.1602 262.559 95.8078 261.951 96.9995 261.708" stroke="#263238" stroke-linecap="round" stroke-linejoin="round"/>
<path d="M94.4707 264.766L97.1277 263.969" stroke="#263238" stroke-linecap="round" stroke-linejoin="round"/>
<path d="M95.7656 266.572L97.9484 265.714" stroke="#263238" stroke-linecap="round" stroke-linejoin="round"/>
<path d="M98.2402 268.122L99.511 267.143" stroke="#263238" stroke-linecap="round" stroke-linejoin="round"/>
<path d="M94.6047 258.06C94.6047 258.06 94.3919 264.14 96.3131 266.14C98.2344 268.14 100.271 268.183 100.095 268.949" stroke="#263238" stroke-linecap="round" stroke-linejoin="round"/>
<path d="M77.0757 257.348C77.0757 257.348 68.4786 257.524 68.4482 257.865C68.4178 258.205 69.6642 260.096 68.2476 264.638C67.9436 265.629 66.4236 267.508 66.229 269.873C66.0344 272.238 66.4783 272.238 66.4783 272.238C66.4783 272.238 85.9343 272.348 87.0104 271.904C87.0104 271.904 87.7644 269.569 87.2111 268.408C86.1167 266.103 82.0978 267.964 82.2255 267.988H82.0978C79.1004 267.325 77.5925 264.34 78.614 261.179L79.909 257.184L77.0757 257.348Z" fill="#263238"/>
<mask id="mask2_458_126" style="mask-type:luminance" maskUnits="userSpaceOnUse" x="66" y="257" width="22" height="16">
<path d="M77.0757 257.348C77.0757 257.348 68.4786 257.524 68.4482 257.865C68.4178 258.205 69.6642 260.096 68.2476 264.638C67.9436 265.629 66.4236 267.508 66.229 269.873C66.0344 272.238 66.4783 272.238 66.4783 272.238C66.4783 272.238 85.9343 272.348 87.0104 271.904C87.0104 271.904 87.7644 269.569 87.2111 268.408C86.1167 266.103 82.0978 267.964 82.2255 267.988H82.0978C79.1004 267.325 77.5925 264.34 78.614 261.179L79.909 257.184L77.0757 257.348Z" fill="white"/>
</mask>
<g mask="url(#mask2_458_126)">
<path opacity="0.25" d="M77.0757 257.348C77.0757 257.348 68.4786 257.524 68.4482 257.865C68.4178 258.205 69.6642 260.096 68.2476 264.638C67.9436 265.629 66.4236 267.508 66.229 269.873C66.0344 272.238 66.4783 272.238 66.4783 272.238C66.4783 272.238 85.9343 272.348 87.0104 271.904C87.0104 271.904 87.7644 269.569 87.2111 268.408C86.1167 266.103 82.0978 267.964 82.2255 267.988H82.0978C79.1004 267.325 77.5925 264.34 78.614 261.179L79.909 257.184L77.0757 257.348Z" fill="white"/>
</g>
<path d="M77.0757 257.348C77.0757 257.348 68.4786 257.524 68.4482 257.865C68.4178 258.205 69.6642 260.096 68.2476 264.638C67.9436 265.629 66.4236 267.508 66.229 269.873C66.0344 272.238 66.4783 272.238 66.4783 272.238C66.4783 272.238 85.9343 272.348 87.0104 271.904C87.0104 271.904 87.7644 269.569 87.2111 268.408C86.1167 266.103 82.0978 267.964 82.2255 267.988H82.0978C79.1004 267.325 77.5925 264.34 78.614 261.179L79.909 257.184L77.0757 257.348Z" stroke="#263238" stroke-linecap="round" stroke-linejoin="round"/>
<path d="M97.2803 163.43L74.5654 162.056C74.5654 162.056 73.1731 213.378 73.3494 216.211C73.9149 224.066 71.9814 225.568 70.5466 232.499C68.0294 244.659 68.3699 242.312 68.0294 244.446C67.8653 245.462 66.625 246.939 66.5277 247.955C66.4304 248.97 67.5491 249.414 67.4032 250.934C67.2573 252.454 66.3574 253.317 66.2298 254.667C66.1021 256.017 66.7891 257.634 68.4672 257.847C70.1453 258.06 78.1952 257.628 79.9098 257.16C81.6243 256.692 82.1168 255.336 82.7005 254.612C83.2842 253.889 82.6518 253.463 82.6214 251.937C82.591 250.411 83.2781 250.368 83.3693 249.371C83.3859 249.208 83.3715 249.043 83.3267 248.885C82.9558 247.432 83.7949 244.811 84.6704 240.981C86.7376 232.062 89.127 222.005 90.3187 214.837C90.9267 211.262 93.0608 195.247 94.8118 182.005C94.8118 182.005 96.4899 179.299 97.3411 174.058" fill="#92E3A9"/>
<mask id="mask3_458_126" style="mask-type:luminance" maskUnits="userSpaceOnUse" x="66" y="162" width="32" height="96">
<path d="M97.2803 163.43L74.5654 162.056C74.5654 162.056 73.1731 213.378 73.3494 216.211C73.9149 224.066 71.9814 225.568 70.5466 232.499C68.0294 244.659 68.3699 242.312 68.0294 244.446C67.8653 245.462 66.625 246.939 66.5277 247.955C66.4304 248.97 67.5491 249.414 67.4032 250.934C67.2573 252.454 66.3574 253.317 66.2298 254.667C66.1021 256.017 66.7891 257.634 68.4672 257.847C70.1453 258.06 78.1952 257.628 79.9098 257.16C81.6243 256.692 82.1168 255.336 82.7005 254.612C83.2842 253.889 82.6518 253.463 82.6214 251.937C82.591 250.411 83.2781 250.368 83.3693 249.371C83.3859 249.208 83.3715 249.043 83.3267 248.885C82.9558 247.432 83.7949 244.811 84.6704 240.981C86.7376 232.062 89.127 222.005 90.3187 214.837C90.9267 211.262 93.0608 195.247 94.8118 182.005C94.8118 182.005 96.4899 179.299 97.3411 174.058" fill="white"/>
</mask>
<g mask="url(#mask3_458_126)">
<path opacity="0.3" d="M74.4917 163.838L74.291 171.505C78.1354 171.817 81.9987 171.817 85.843 171.505C93.3457 170.836 97.9118 167.51 97.9118 167.51L97.3038 163.43C97.3038 163.43 88.7918 165.723 84.6027 165.4C80.4136 165.078 76.4008 164.573 74.4917 163.838Z" fill="black"/>
</g>
<path d="M97.2803 163.43L74.5654 162.056C74.5654 162.056 73.1731 213.378 73.3494 216.211C73.9149 224.066 71.9814 225.568 70.5466 232.499C68.0294 244.659 68.3699 242.312 68.0294 244.446C67.8653 245.462 66.625 246.939 66.5277 247.955C66.4304 248.97 67.5491 249.414 67.4032 250.934C67.2573 252.454 66.3574 253.317 66.2298 254.667C66.1021 256.017 66.7891 257.634 68.4672 257.847C70.1453 258.06 78.1952 257.628 79.9098 257.16C81.6243 256.692 82.1168 255.336 82.7005 254.612C83.2842 253.889 82.6518 253.463 82.6214 251.937C82.591 250.411 83.2781 250.368 83.3693 249.371C83.3859 249.208 83.3715 249.043 83.3267 248.885C82.9558 247.432 83.7949 244.811 84.6704 240.981C86.7376 232.062 89.127 222.005 90.3187 214.837C90.9267 211.262 93.0608 195.247 94.8118 182.005C94.8118 182.005 96.4899 179.299 97.3411 174.058" stroke="#263238" stroke-linecap="round" stroke-linejoin="round"/>
<path d="M86.0566 225.501C86.0566 225.501 78.2012 238.877 70.4492 243.249" stroke="#263238" stroke-linecap="round" stroke-linejoin="round"/>
<path d="M70.3145 250.697L78.7474 251.761C79.3554 251.84 80.1397 252.083 80.0789 252.727C80.0181 253.372 79.3676 253.664 78.8082 253.864C76.9306 254.565 74.8894 254.702 72.9349 254.26" stroke="#263238" stroke-linecap="round" stroke-linejoin="round"/>
<path d="M70.5645 246.641C73.5938 248.378 77.0138 249.32 80.5053 249.377" stroke="#263238" stroke-linecap="round" stroke-linejoin="round"/>
<path d="M75.8546 222.297C75.8546 222.297 80.1106 222.461 82.2994 222.267C80.676 224.492 78.0434 225.459 75.502 225.586" stroke="#263238" stroke-linecap="round" stroke-linejoin="round"/>
<path d="M79.0396 168.416C79.0396 168.416 78.4316 190.268 78.2127 199.357C77.9938 208.447 77.6047 219.044 77.6047 219.044C77.3983 219.369 77.2582 219.731 77.1925 220.109C77.1268 220.488 77.1367 220.876 77.2217 221.251L77.5621 222.37L77.3797 225.525C77.1355 225.812 76.958 226.15 76.8602 226.514C76.7624 226.877 76.7467 227.259 76.8143 227.629C77.1061 228.778 74.7471 236.786 74.7471 236.786L74.3397 237.315C73.9231 237.813 73.6443 238.413 73.5313 239.053C73.4182 239.693 73.4747 240.351 73.6953 240.963L72.8501 247.821C72.3958 248.193 72.0913 248.716 71.993 249.295C71.8947 249.874 72.0091 250.469 72.3151 250.97L71.5247 254.545C71.1237 254.885 70.8556 255.356 70.7677 255.874C70.6798 256.393 70.7778 256.925 71.0444 257.379L71.1781 257.579" stroke="#263238" stroke-linecap="round" stroke-linejoin="round"/>
<path d="M118.384 128.118C117.776 129.449 112.596 132.982 112.596 132.982C112.591 132.398 112.716 131.821 112.961 131.292C113.331 130.72 113.569 130.173 113.806 129.832C113.867 128.909 113.563 127.999 112.961 127.297C112.255 126.513 111.702 128.47 111.392 129.772C111.082 131.073 109.051 133.055 109.142 134.028C109.319 135.146 109.544 136.247 109.829 137.341C109.829 137.341 101.165 140.381 100.211 138.557C98.1896 134.639 95.957 130.833 93.5228 127.157C91.486 130.003 93.0912 133.93 94.2403 138.758C95.3894 143.585 98.928 150.346 98.928 150.346C105.263 147.306 112.462 139.402 112.462 139.402C112.462 139.402 114.152 138.648 116.244 137.931C118.335 137.213 118.031 136.599 118.366 134.544C118.7 132.489 120.457 129.68 120.354 128.622C120.251 127.565 119.004 126.792 118.384 128.118Z" fill="white" stroke="#263238" stroke-linecap="round" stroke-linejoin="round"/>
<path d="M97.8871 138.387C97.8081 142.789 98.6775 157.715 99.6199 163.637L73.8346 162.987V162.555C75.7255 155.551 74.4973 147.963 71.5121 141.378C69.9313 137.882 69.226 133.414 68.4113 129.182C66.338 118.408 71.5425 115.07 75.8897 114.657C77.5677 114.578 77.7137 113.441 78.9297 113.532C79.769 113.634 80.6204 113.529 81.4103 113.228C81.9514 115.435 84.9489 121.916 85.9764 122.658C86.4754 123.052 87.0813 123.287 87.7155 123.332C88.3497 123.378 88.9829 123.232 89.5332 122.913C90.5668 122.19 90.8525 120.81 91.0897 119.569C91.1964 118.897 91.3885 118.241 91.6612 117.618C93.1812 118.378 95.8321 119.278 97.802 122.822C100.234 130.647 98.8964 125.631 100.769 137.11C101.091 138.867 97.8871 138.387 97.8871 138.387Z" fill="white" stroke="#263238" stroke-linecap="round" stroke-linejoin="round"/>
<path d="M93.8322 118.019L91.3394 117.149C93.0296 122.956 91.5643 129.553 87.2901 126.944C83.0159 124.336 81.3195 116.839 80.0427 113.568C79.3739 113.362 76.6562 113.264 75.2456 114.347C76.717 117.04 80.7176 122.39 80.2495 126.738C79.7144 131.602 75.8901 135.918 68.7461 131.03C69.7189 138.399 72.8075 143.713 73.4034 146.23C75.58 155.35 74.1269 156.596 73.1115 165.595C83.4475 170.866 95.9541 168.246 101.432 166.641C99.7602 157.472 100.496 134.368 93.8322 118.019Z" fill="#92E3A9"/>
<mask id="mask4_458_126" style="mask-type:luminance" maskUnits="userSpaceOnUse" x="68" y="113" width="34" height="56">
<path d="M93.8322 118.019L91.3394 117.149C93.0296 122.956 91.5643 129.553 87.2901 126.944C83.0159 124.336 81.3195 116.839 80.0427 113.568C79.3739 113.362 76.6562 113.264 75.2456 114.347C76.717 117.04 80.7176 122.39 80.2495 126.738C79.7144 131.602 75.8901 135.918 68.7461 131.03C69.7189 138.399 72.8075 143.713 73.4034 146.23C75.58 155.35 74.1269 156.596 73.1115 165.595C83.4475 170.866 95.9541 168.246 101.432 166.641C99.7602 157.472 100.496 134.368 93.8322 118.019Z" fill="white"/>
</mask>
<g mask="url(#mask4_458_126)">
<path opacity="0.3" d="M78.0781 156.724C78.0781 156.724 94.938 164.081 97.3396 156.937C92.9141 157.898 88.3556 158.085 83.8663 157.49L78.0781 156.724Z" fill="black"/>
<path opacity="0.3" d="M72.1016 140.807L84.3528 131.079C84.3528 131.079 86.7848 137.767 80.267 141.603C75.859 144.199 72.1016 140.807 72.1016 140.807Z" fill="black"/>
</g>
<path d="M93.8322 118.019L91.3394 117.149C93.0296 122.956 91.5643 129.553 87.2901 126.944C83.0159 124.336 81.3195 116.839 80.0427 113.568C79.3739 113.362 76.6562 113.264 75.2456 114.347C76.717 117.04 80.7176 122.39 80.2495 126.738C79.7144 131.602 75.8901 135.918 68.7461 131.03C69.7189 138.399 72.8075 143.713 73.4034 146.23C75.58 155.35 74.1269 156.596 73.1115 165.595C83.4475 170.866 95.9541 168.246 101.432 166.641C99.7602 157.472 100.496 134.368 93.8322 118.019Z" stroke="#263238" stroke-linecap="round" stroke-linejoin="round"/>
<path d="M97.3413 156.7C97.236 157.158 97.0273 157.585 96.7312 157.95C96.435 158.315 96.0593 158.607 95.6328 158.804" stroke="#263238" stroke-linecap="round" stroke-linejoin="round"/>
<path d="M92.9133 159.46C87.7854 159.927 82.632 158.897 78.0781 156.493" stroke="#263238" stroke-linecap="round" stroke-linejoin="round"/>
<path d="M116.541 118.256L111.263 132.331C111.169 132.582 111.135 132.851 111.161 133.118C111.187 133.385 111.274 133.642 111.415 133.869L112.394 135.438C112.874 136.21 114.571 136.441 115.3 135.943C115.567 135.763 115.778 135.513 115.908 135.219L121.113 121.156C121.248 120.835 121.284 120.48 121.217 120.138C121.149 119.796 120.982 119.482 120.736 119.235L119.094 117.648C118.946 117.499 118.768 117.383 118.572 117.306C118.376 117.229 118.167 117.194 117.957 117.202C117.747 117.21 117.541 117.261 117.351 117.353C117.162 117.444 116.994 117.574 116.857 117.733C116.72 117.887 116.613 118.064 116.541 118.256Z" fill="#263238"/>
<path d="M68.7344 122.044C68.8603 124.144 69.3671 126.205 70.2301 128.124C72.7654 134.155 82.4448 149.167 84.5667 150.182C86.6886 151.197 108.376 139.524 109.945 137.925C110.391 137.427 110.691 136.816 110.813 136.158C110.936 135.501 110.875 134.823 110.638 134.198C110.638 134.198 110.607 135.693 111.884 135.414C112.687 135.237 112.024 132.757 112.024 132.757C112.024 132.757 113.495 131.717 112.091 129.796C112.091 129.796 114.073 129.796 113.915 128.3C113.86 127.692 108.023 127.613 107.13 129.297C106.041 131.34 104.959 136.666 104.959 136.666C104.959 136.666 90.8291 140.314 87.8985 140.855L80.256 124.093" fill="white"/>
<path d="M68.7344 122.044C68.8603 124.144 69.3671 126.205 70.2301 128.124C72.7654 134.155 82.4448 149.167 84.5667 150.182C86.6886 151.197 108.376 139.524 109.945 137.925C110.391 137.427 110.691 136.816 110.813 136.158C110.936 135.501 110.875 134.823 110.638 134.198C110.638 134.198 110.607 135.693 111.884 135.414C112.687 135.237 112.024 132.757 112.024 132.757C112.024 132.757 113.495 131.717 112.091 129.796C112.091 129.796 114.073 129.796 113.915 128.3C113.86 127.692 108.023 127.613 107.13 129.297C106.041 131.34 104.959 136.666 104.959 136.666C104.959 136.666 90.8291 140.314 87.8985 140.855L80.256 124.093" stroke="#263238" stroke-linecap="round" stroke-linejoin="round"/>
<path d="M110.17 138.831C110.61 137.721 111.37 136.767 112.353 136.089C113.496 135.548 115.07 135.377 116.317 135.14C116.317 135.14 117.29 131.018 117.819 131.133C119.43 131.468 118.171 135.256 118.171 135.256" fill="white"/>
<path d="M110.17 138.831C110.61 137.721 111.37 136.767 112.353 136.089C113.496 135.548 115.07 135.377 116.317 135.14C116.317 135.14 117.29 131.018 117.819 131.133C119.43 131.468 118.171 135.256 118.171 135.256" stroke="#263238" stroke-linecap="round" stroke-linejoin="round"/>
<path d="M120.111 129.65C119.903 129.442 119.624 129.32 119.331 129.307C119.037 129.295 118.749 129.393 118.524 129.583C117.74 130.294 116.548 132.307 115.277 133.383" stroke="#263238" stroke-linecap="round" stroke-linejoin="round"/>
<path d="M108.832 133.979C109.179 133.213 111.641 131.918 112.127 133.578" stroke="#263238" stroke-linecap="round" stroke-linejoin="round"/>
<path d="M108.832 131.936C108.832 131.936 111.684 130.38 112.255 132.307" stroke="#263238" stroke-linecap="round" stroke-linejoin="round"/>
<path d="M109.189 130.112C109.189 130.112 110.375 129.881 110.636 129.857C111.579 129.765 112.606 129.644 113.117 129.644" stroke="#263238" stroke-linecap="round" stroke-linejoin="round"/>
<path d="M94.8117 182.041C94.8117 182.041 91.0117 178.691 88.8047 178.053L94.8117 182.041Z" fill="#92E3A9"/>
<path d="M94.8117 182.041C94.8117 182.041 91.0117 178.691 88.8047 178.053" stroke="#263238" stroke-linecap="round" stroke-linejoin="round"/>
<path d="M75.623 260.291C76.7432 259.852 77.929 259.603 79.1312 259.555" stroke="#263238" stroke-linecap="round" stroke-linejoin="round"/>
<path d="M75.5371 262.656C75.5371 262.656 77.2334 262.048 78.4434 261.787" stroke="#263238" stroke-linecap="round" stroke-linejoin="round"/>
<path d="M75.6523 264.875L78.3762 264.073" stroke="#263238" stroke-linecap="round" stroke-linejoin="round"/>
<path d="M76.7891 266.711L79.0508 265.842" stroke="#263238" stroke-linecap="round" stroke-linejoin="round"/>
<path d="M79.1309 268.286L80.4867 267.295" stroke="#263238" stroke-linecap="round" stroke-linejoin="round"/>
<path d="M76.3644 258.06C76.3644 258.06 75.6227 264.261 77.3798 266.274C79.1369 268.286 81.1555 268.347 80.9184 269.131" stroke="#263238" stroke-linecap="round" stroke-linejoin="round"/>
<path d="M91.1025 116.9C91.1025 116.9 93.6682 126.902 89.5521 127.662C83.9402 128.695 80.043 113.55 80.043 113.55C80.9002 113.495 81.0036 113.137 81.7515 112.711C81.7515 112.711 88.0199 125.248 91.1025 116.9Z" fill="#263238"/>
<path d="M74.0359 115.003C74.0359 115.003 68.1687 116.164 68.1505 124.889C68.1322 133.614 71.9991 140.88 71.9991 140.88C71.9991 140.88 76.5773 140.509 79.4714 138.387C85.5514 133.948 84.5665 131.456 84.5665 131.456L81.3805 125.145C81.3805 125.145 80.3348 121.101 75.7869 114.657L74.0359 115.003Z" fill="#263238"/>
<path d="M94.1914 118.365C97.3895 127.443 97.5354 130.842 98.113 135.031C98.113 135.031 101.244 134.423 101.725 133.73C101.725 133.73 100.205 126.3 98.5629 122.457C97.5172 120.019 96.1431 119.168 94.1914 118.365Z" fill="#263238"/>
<path d="M91.0971 108.06C91.0971 108.06 90.6411 116.377 90.6715 117.046C90.7262 118.305 91.6382 119.977 90.7992 120.919C90.3365 121.355 89.7536 121.642 89.126 121.743C88.4983 121.844 87.8548 121.754 87.2789 121.485C86.1383 120.917 85.1517 120.083 84.4031 119.053C82.961 117.286 81.7097 115.373 80.6699 113.343C81.3656 112.674 81.8766 111.836 82.1534 110.911C82.1534 110.911 82.3176 110.206 82.3237 110.17C82.5356 108.456 82.5131 106.721 82.2568 105.014C81.9659 102.901 81.4753 100.82 80.7915 98.8L91.0971 108.06Z" fill="white" stroke="#263238" stroke-linecap="round" stroke-linejoin="round"/>
<path d="M82.4512 116C83.8902 116.47 85.2858 117.064 86.6221 117.776L82.4512 116Z" fill="#263238"/>
<path d="M82.4512 116C83.8902 116.47 85.2858 117.064 86.6221 117.776" stroke="#263238" stroke-linecap="round" stroke-linejoin="round"/>
<path d="M81.1793 87.9412C81.1793 87.9412 75.9991 90.9021 78.6804 98.6298C81.3617 106.357 87.3383 114.991 92.7556 113.83C98.1728 112.669 99.5773 101.907 96.7137 94.7325C93.85 87.5581 86.554 83.5879 81.1793 87.9412Z" fill="white" stroke="#263238" stroke-linecap="round" stroke-linejoin="round"/>
<path d="M96.6288 102.205C96.6653 102.813 96.416 103.372 96.0755 103.421C95.735 103.469 95.4249 102.934 95.3885 102.302C95.352 101.67 95.5891 101.141 95.9417 101.116C96.2944 101.092 96.5923 101.566 96.6288 102.205Z" fill="#263238"/>
<path d="M91.3453 101.956C91.3818 102.564 91.1386 103.117 90.8042 103.141C90.4698 103.165 90.1475 102.655 90.111 102.028C90.0746 101.402 90.3178 100.861 90.6643 100.812C91.0109 100.764 91.3027 101.311 91.3453 101.956Z" fill="#263238"/>
<path d="M93.3331 89.2726C89.8614 85.8922 85.1372 84.8464 81.3555 87.9046C81.3555 87.9046 76.1814 90.8656 78.8627 98.5994C79.5125 100.443 80.299 102.235 81.2156 103.962L81.3129 104.047C81.3129 104.047 79.6105 102.351 86.3654 98.6176C88.5846 97.3651 91.8617 89.5523 93.3331 89.2726Z" fill="#263238" stroke="#263238" stroke-linecap="round" stroke-linejoin="round"/>
<path d="M87.9102 91.808C87.9102 91.808 88.3844 86.4272 92.1297 86.2448C94.0814 86.1475 96.6593 88.768 96.9937 90.1482C97.2034 91.0827 97.6799 91.9363 98.3652 92.6054C99.0505 93.2745 99.9152 93.7304 100.854 93.9178C100.854 93.9178 99.7722 97.5658 97.6625 97.8333C94.1786 98.2589 92.3729 97.4442 90.1233 94.3738C89.4951 93.4823 88.7869 92.6499 88.0074 91.8871L87.9102 91.808Z" fill="#263238" stroke="#263238" stroke-linecap="round" stroke-linejoin="round"/>
<path d="M82.3346 102.144C82.3346 102.144 80.2856 97.9245 78.4616 102.57C77.3247 105.464 81.8725 107.78 83.429 107.014" fill="white"/>
<path d="M82.3346 102.144C82.3346 102.144 80.2856 97.9245 78.4616 102.57C77.3247 105.464 81.8725 107.78 83.429 107.014" stroke="#263238" stroke-linecap="round" stroke-linejoin="round"/>
<path d="M94.5315 99.5844C94.1866 99.9659 93.9373 100.424 93.8041 100.921C93.6709 101.418 93.6576 101.939 93.7654 102.442C93.9228 103.546 94.2968 104.608 94.8659 105.567L92.2637 106.4" stroke="#263238" stroke-linecap="round" stroke-linejoin="round"/>
<path d="M89.9844 108.303C90.3935 108.711 90.9104 108.995 91.4747 109.119C92.039 109.244 92.6271 109.206 93.1703 109.008" stroke="#263238" stroke-linecap="round" stroke-linejoin="round"/>
<path d="M87.0703 99.5113C87.0703 99.5113 88.8943 97.4928 91.0953 98.4656" stroke="#263238" stroke-linecap="round" stroke-linejoin="round"/>
<path d="M95.5352 98.9764C95.5352 98.9764 97.9246 98.2285 97.6206 100.338" stroke="#263238" stroke-linecap="round" stroke-linejoin="round"/>
<path d="M82.2924 104.454C82.0809 104.461 81.8727 104.401 81.6978 104.282C81.5229 104.163 81.3905 103.991 81.3196 103.792C81.1433 103.409 81.0947 102.971 80.9183 102.576C80.8456 102.376 80.7118 102.205 80.5361 102.086C80.3603 101.967 80.1516 101.906 79.9395 101.913" fill="#263238"/>
<path d="M82.2924 104.454C82.0809 104.461 81.8727 104.401 81.6978 104.282C81.5229 104.163 81.3905 103.991 81.3196 103.792C81.1433 103.409 81.0947 102.971 80.9183 102.576C80.8456 102.376 80.7118 102.205 80.5361 102.086C80.3603 101.967 80.1516 101.906 79.9395 101.913" stroke="#263238" stroke-linecap="round" stroke-linejoin="round"/>
<path d="M89.8742 87.777C89.616 86.6896 89.2067 85.6438 88.6582 84.6701C88.6582 84.6701 89.6492 84.4208 90.1964 84.3053C90.0748 85.3693 89.9836 86.7069 89.8742 87.777Z" fill="#263238" stroke="#263238" stroke-linecap="round" stroke-linejoin="round"/>
<path d="M90.9135 113.599L90.9561 115.423C90.5553 115.6 90.1124 115.659 89.6793 115.593C87.3446 115.319 84.9916 110.121 84.8457 109.823L84.8943 109.878C87.6547 112.924 89.7036 113.58 90.9135 113.599Z" fill="#263238"/>
<path d="M169.789 131.097H185.153" stroke="#263238" stroke-linecap="round" stroke-linejoin="round"/>
<path d="M152.164 131.097H167.765" stroke="#263238" stroke-linecap="round" stroke-linejoin="round"/>
<path d="M143.852 131.097H148.649" stroke="#263238" stroke-linecap="round" stroke-linejoin="round"/>
<path d="M156.469 139.439H185.093" stroke="#263238" stroke-linecap="round" stroke-linejoin="round"/>
<path d="M148.648 139.439H152.163" stroke="#263238" stroke-linecap="round" stroke-linejoin="round"/>
<path d="M169.279 147.786H185.033" stroke="#263238" stroke-linecap="round" stroke-linejoin="round"/>
<path d="M153.445 147.786H166.949" stroke="#263238" stroke-linecap="round" stroke-linejoin="round"/>
<path d="M167.119 156.128H184.97" stroke="#263238" stroke-linecap="round" stroke-linejoin="round"/>
<path d="M158.244 156.128H164.586" stroke="#263238" stroke-linecap="round" stroke-linejoin="round"/>
<path d="M219.616 156.432H174.879L177.122 130.781H221.859L219.616 156.432Z" fill="white" stroke="#263238" stroke-linecap="round" stroke-linejoin="round"/>
<path d="M221.858 130.787H177.121" stroke="#263238" stroke-linecap="round" stroke-linejoin="round"/>
<path d="M219.616 156.432H174.879L190.17 141.913L197.94 148.534L207.036 141.786L219.616 156.432Z" fill="white" stroke="#263238" stroke-linecap="round" stroke-linejoin="round"/>
<path d="M221.858 130.781L207.035 141.786L197.939 148.534L190.169 141.913L177.121 130.781H221.858Z" fill="white" stroke="#263238" stroke-linecap="round" stroke-linejoin="round"/>
<path d="M139.572 131.097H128.342" stroke="#263238" stroke-linecap="round" stroke-linejoin="round"/>
<path d="M182.6 101.712C173.638 109.008 157.095 113.465 157.095 113.465L165.43 104.534C161.364 103.224 157.855 100.587 155.467 97.0459C153.078 93.5044 151.948 89.2633 152.257 85.0027C152.567 80.7421 154.298 76.7089 157.173 73.5498C160.049 70.3906 163.902 68.2886 168.115 67.5808C172.327 66.873 176.656 67.6004 180.406 69.6464C184.156 71.6924 187.11 74.9383 188.795 78.8638C190.48 82.7893 190.798 87.1669 189.698 91.2947C188.597 95.4224 186.143 99.0611 182.728 101.627" fill="white"/>
<path d="M182.6 101.712C173.638 109.008 157.095 113.465 157.095 113.465L165.43 104.533C161.364 103.224 157.855 100.587 155.467 97.0459C153.078 93.5044 151.948 89.2633 152.257 85.0027C152.567 80.7421 154.298 76.7089 157.173 73.5498C160.049 70.3906 163.902 68.2886 168.115 67.5808C172.327 66.873 176.656 67.6004 180.406 69.6464C184.156 71.6924 187.11 74.9383 188.795 78.8638C190.48 82.7893 190.798 87.1669 189.698 91.2947C188.597 95.4224 186.143 99.0611 182.728 101.627" stroke="#263238" stroke-linecap="round" stroke-linejoin="round"/>
<path d="M183.057 78.1706C186.156 78.1706 188.669 75.6581 188.669 72.5587C188.669 69.4594 186.156 66.9469 183.057 66.9469C179.958 66.9469 177.445 69.4594 177.445 72.5587C177.445 75.6581 179.958 78.1706 183.057 78.1706Z" fill="#92E3A9" stroke="#263238" stroke-linecap="round" stroke-linejoin="round"/>
<path d="M179.803 71.3063L183.056 74.9664L190.455 66.2112L190.193 65.9376L183.056 72.0784L181.165 70.0173L179.803 71.3063Z" fill="#263238" stroke="#263238" stroke-linecap="round" stroke-linejoin="round"/>
<path d="M161.412 81.7699H182.37" stroke="#263238" stroke-linecap="round" stroke-linejoin="round"/>
<path d="M160.938 87.1812H181.895" stroke="#263238" stroke-linecap="round" stroke-linejoin="round"/>
<path d="M160.469 92.5923H181.42" stroke="#263238" stroke-linecap="round" stroke-linejoin="round"/>
<path d="M226.469 34.0177V43.6119L252.716 23.3777L226.469 34.0177Z" fill="#92E3A9" stroke="#263238" stroke-linecap="round" stroke-linejoin="round"/>
<path d="M226.467 34.0176L253.317 23.0493L216.654 26.8493L226.467 34.0176Z" fill="#92E3A9" stroke="#263238" stroke-linecap="round" stroke-linejoin="round"/>
<path d="M229.623 36.0058L242.263 45.3568L253.317 23.0493L229.623 36.0058Z" fill="#92E3A9" stroke="#263238" stroke-linecap="round" stroke-linejoin="round"/>
<path d="M229.624 36.0057L226.469 43.6118L233.193 38.6445L229.624 36.0057Z" fill="#92E3A9" stroke="#263238" stroke-linecap="round" stroke-linejoin="round"/>
<path d="M125.887 116.414C125.954 116.219 126.027 116.031 126.093 115.842" stroke="#263238" stroke-linecap="round" stroke-linejoin="round"/>
<path d="M126.891 113.544C132.545 96.6598 131.53 86.5123 140.71 70.1571C142.534 66.8496 151.77 51.1997 164.891 45.6182C171.712 42.7181 176.054 47.047 174.296 50.1113C170.375 56.9331 155.971 48.7555 170.375 40.6813C183.702 33.215 212.071 47.8131 225.368 43.624" stroke="#263238" stroke-linecap="round" stroke-linejoin="round" stroke-dasharray="2 4"/>
<path d="M226.504 43.2045C226.692 43.1254 226.875 43.0403 227.057 42.9491" stroke="#263238" stroke-linecap="round" stroke-linejoin="round"/>
</svg>
