<svg width="500" height="297" viewBox="0 0 500 297" fill="none" xmlns="http://www.w3.org/2000/svg">
<g clip-path="url(#clip0_2640_67)">
<path d="M100.69 264.34C182.93 307.34 316.27 307.34 398.51 264.34C480.75 221.34 480.75 151.72 398.51 108.76C316.27 65.7999 182.93 65.7599 100.69 108.76C18.4498 151.76 18.4498 221.37 100.69 264.34Z" fill="#F5F5F5"/>
<path d="M146.119 66.7101L165.939 55.2701L146.119 43.8301L126.119 55.2701L146.119 66.7101Z" stroke="#EBEBEB" stroke-width="1.08419" stroke-linecap="round" stroke-linejoin="round"/>
<path d="M130.729 55.28L146.129 10.77V64.17L130.729 55.28Z" fill="#E0E0E0"/>
<path d="M146.129 64.17L161.519 55.28L146.129 10.77V64.17Z" fill="#E6E6E6"/>
<path d="M121.898 80.67L141.718 69.23L121.898 57.79L101.898 69.23L121.898 80.67Z" stroke="#EBEBEB" stroke-width="1.08419" stroke-linecap="round" stroke-linejoin="round"/>
<path d="M106.51 69.2397L121.9 3.13965V78.1297L106.51 69.2397Z" fill="#E0E0E0"/>
<path d="M121.898 78.1297L137.288 69.2397L121.898 3.13965V78.1297Z" fill="#E6E6E6"/>
<path d="M97.6799 94.63L117.5 83.19L97.6799 71.75L77.6699 83.19L97.6799 94.63Z" stroke="#EBEBEB" stroke-width="1.08419" stroke-linecap="round" stroke-linejoin="round"/>
<path d="M82.2891 83.2001L97.6791 43.8301V92.0901L82.2891 83.2001Z" fill="#E0E0E0"/>
<path d="M97.6797 92.0901L113.07 83.2001L97.6797 43.8301V92.0901Z" fill="#E6E6E6"/>
<path d="M73.4592 108.59L93.2792 97.1499L73.4592 85.71L53.4492 97.1499L73.4592 108.59Z" stroke="#EBEBEB" stroke-width="1.08419" stroke-linecap="round" stroke-linejoin="round"/>
<path d="M58.0586 97.1598L73.4586 30.3198V106.05L58.0586 97.1598Z" fill="#E0E0E0"/>
<path d="M73.459 106.05L88.849 97.1598L73.459 30.3198V106.05Z" fill="#E6E6E6"/>
<path d="M337.609 51.5L443.309 112.52" stroke="#EBEBEB" stroke-width="1.08419" stroke-miterlimit="10" stroke-linecap="round"/>
<path d="M443.31 106.05C443.182 98.39 442.645 90.7424 441.7 83.1399C440.7 74.8799 438.7 60.9399 430.75 56.3399C422.8 51.7399 419.8 60.0599 418.65 64.1499C417.15 69.4599 409.36 66.0999 408.28 57.3499C407.2 48.5999 406.49 20.7199 397.15 15.3499C387.81 9.97987 384.8 22.9299 383.74 26.5499C381.65 33.6599 375.52 31.6999 373.52 26.9899C371.52 22.2799 366.06 21.1299 364 27.7599C361.94 34.3899 360.67 41.9999 354 38.0899C348.14 34.6599 350.83 28.4099 345.12 25.4399C340.6 23.0999 338.5 34.2599 338.5 45.5499L443.31 106.05Z" fill="#E0E0E0"/>
<path d="M435.63 47.8597C435.63 49.0797 434.53 49.4297 433.19 48.6597L425.19 44.0197C424.532 43.647 423.97 43.1271 423.547 42.5009C423.123 41.8746 422.851 41.1589 422.75 40.4097C422.75 39.1997 423.85 38.8397 425.19 39.6197L433.19 44.2597C433.847 44.6303 434.41 45.1483 434.833 45.7729C435.257 46.3976 435.529 47.1119 435.63 47.8597Z" fill="#E6E6E6"/>
<path d="M402.79 8.62976C402.79 9.84976 401.7 10.1997 400.35 9.42975L392.35 4.78976C391.691 4.41882 391.127 3.89947 390.704 3.27287C390.28 2.64626 390.009 1.92963 389.91 1.17976C389.91 -0.0302429 391 -0.390244 392.35 0.389756L400.35 5.02976C401.009 5.3991 401.572 5.91673 401.995 6.5416C402.419 7.16648 402.691 7.88143 402.79 8.62976Z" fill="#E6E6E6"/>
<path d="M376.78 15.85C376.78 17.07 375.69 17.42 374.35 16.65L366.35 12.01C365.691 11.639 365.127 11.1197 364.704 10.4931C364.28 9.86647 364.009 9.14984 363.91 8.39997C363.91 7.18997 365 6.82997 366.35 7.60997L374.35 12.25C375.006 12.6211 375.567 13.1394 375.989 13.7641C376.41 14.3888 376.681 15.1028 376.78 15.85Z" fill="#E6E6E6"/>
<path d="M352.12 18.2401C352.12 19.4601 351.03 19.8101 349.68 19.0301L341.68 14.4001C341.024 14.0268 340.463 13.5066 340.041 12.8803C339.62 12.254 339.349 11.5386 339.25 10.7901C339.25 9.5801 340.34 9.22011 341.68 10.0001L349.68 14.6301C350.338 15.0023 350.901 15.5219 351.324 16.1483C351.748 16.7747 352.02 17.4907 352.12 18.2401Z" fill="#E6E6E6"/>
<path d="M333.209 42.4899V-23.6201" stroke="#EBEBEB" stroke-width="1.08419" stroke-miterlimit="10" stroke-linecap="round"/>
<path d="M76.9994 188.72C76.9994 188.72 78.6394 174.04 74.0894 160.06C69.8094 146.84 61.2094 139.83 55.9994 137.73C46.1494 133.8 45.2694 144.65 52.6494 152.16C58.0594 157.68 71.0794 169.06 73.3194 188.36L76.9994 188.72Z" fill="#4FA94D"/>
<path opacity="0.7" d="M76.9994 188.72C76.9994 188.72 78.6394 174.04 74.0894 160.06C69.8094 146.84 61.2094 139.83 55.9994 137.73C46.1494 133.8 45.2694 144.65 52.6494 152.16C58.0594 157.68 71.0794 169.06 73.3194 188.36L76.9994 188.72Z" fill="white"/>
<path d="M53.3398 140.76C59.2898 144.76 75.2798 156.31 75.8598 188.61" stroke="#FAFAFA" stroke-width="1.08419" stroke-miterlimit="10" stroke-linecap="round"/>
<path d="M72.8095 198.75C69.7495 183.95 63.4995 178.58 52.3295 172.86C47.5495 170.42 41.9495 167.7 39.9295 164.59C37.9095 161.48 38.9295 157.3 45.8095 157.39C58.3795 157.56 72.6995 172.71 74.6095 189.31L72.8095 198.75Z" fill="#4FA94D"/>
<path opacity="0.8" d="M72.8095 198.75C69.7495 183.95 63.4995 178.58 52.3295 172.86C47.5495 170.42 41.9495 167.7 39.9295 164.59C37.9095 161.48 38.9295 157.3 45.8095 157.39C58.3795 157.56 72.6995 172.71 74.6095 189.31L72.8095 198.75Z" fill="white"/>
<path d="M44.75 160.61C54.24 161.9 69.23 172.96 73.99 192.61" stroke="#FAFAFA" stroke-width="1.08419" stroke-miterlimit="10" stroke-linecap="round"/>
<path d="M423.4 181.79C427.25 174.39 430.24 153.63 425.29 144.03C420.34 134.43 412.98 135.2 411.84 138.31C410.84 141.18 413.31 146.31 416.51 152.42C419.71 158.53 422.41 171.62 419.38 177.72L423.4 181.79Z" fill="#4FA94D"/>
<path opacity="0.7" d="M423.4 181.79C427.25 174.39 430.24 153.63 425.29 144.03C420.34 134.43 412.98 135.2 411.84 138.31C410.84 141.18 413.31 146.31 416.51 152.42C419.71 158.53 422.41 171.62 419.38 177.72L423.4 181.79Z" fill="white"/>
<path d="M416.699 138.81C419.849 141.34 428.869 156.81 422.559 178.04" stroke="#FAFAFA" stroke-width="1.08419" stroke-miterlimit="10" stroke-linecap="round"/>
<path d="M422.18 189.63C419.86 184.99 414.78 177.31 418.24 172.04C421.7 166.77 425.32 171.43 428.1 167.99C430.88 164.55 427.7 158.99 430.1 155.99C434.74 150.09 438.1 156.94 441.74 156.04C444.37 155.39 447.3 149.56 454.87 150.27C462.44 150.98 462.06 156.98 458.69 159.8C455.32 162.62 451.32 165.43 453.92 169.66C456.22 173.41 457.41 180.34 449.54 183.03C442.02 185.6 445.74 188.86 444.54 192.54C443.34 196.22 436.24 199.71 428.69 196.87L422.18 189.63Z" fill="#4FA94D"/>
<path opacity="0.8" d="M422.18 189.63C419.86 184.99 414.78 177.31 418.24 172.04C421.7 166.77 425.32 171.43 428.1 167.99C430.88 164.55 427.7 158.99 430.1 155.99C434.74 150.09 438.1 156.94 441.74 156.04C444.37 155.39 447.3 149.56 454.87 150.27C462.44 150.98 462.06 156.98 458.69 159.8C455.32 162.62 451.32 165.43 453.92 169.66C456.22 173.41 457.41 180.34 449.54 183.03C442.02 185.6 445.74 188.86 444.54 192.54C443.34 196.22 436.24 199.71 428.69 196.87L422.18 189.63Z" fill="white"/>
<path d="M455.91 153.67C447.71 155.87 428.07 171.83 426.41 191.86" stroke="#FAFAFA" stroke-width="1.08419" stroke-miterlimit="10" stroke-linecap="round"/>
<path d="M449.999 174.7C445.949 173.78 435.659 173.65 431.809 175.52" stroke="#FAFAFA" stroke-width="1.08419" stroke-miterlimit="10" stroke-linecap="round"/>
<path d="M434.1 157.75C434.1 157.75 437.1 163.56 436.67 168.45" stroke="#FAFAFA" stroke-width="1.08419" stroke-miterlimit="10" stroke-linecap="round"/>
<path d="M322.24 101C320.9 96.3591 318.504 92.0912 315.24 88.53C311.383 84.3235 306.871 80.7678 301.88 78C296.084 74.717 289.922 72.1291 283.52 70.29C276.468 68.2545 269.233 66.9148 261.92 66.29C254.366 65.6 246.764 65.6 239.21 66.29C231.9 66.9147 224.669 68.2545 217.62 70.29C211.214 72.1273 205.048 74.7153 199.25 78C194.259 80.7919 189.751 84.3713 185.9 88.6C182.639 92.1634 180.244 96.4305 178.9 101.07C177.705 105.362 177.705 109.898 178.9 114.19C180.233 118.831 182.63 123.097 185.9 126.65C189.753 130.883 194.265 134.465 199.26 137.26C205.051 140.542 211.211 143.127 217.61 144.96C224.662 147.004 231.896 148.357 239.21 149C246.765 149.68 254.365 149.68 261.92 149C269.238 148.355 276.475 146.998 283.53 144.95C289.929 143.117 296.089 140.532 301.88 137.25C306.877 134.458 311.389 130.875 315.24 126.64C318.506 123.084 320.902 118.819 322.24 114.18C323.436 109.868 323.436 105.312 322.24 101Z" fill="#37474F"/>
<path d="M178 101.02H323.13V108.42L178 108.01V101.02Z" fill="#37474F"/>
<path d="M239.209 59.6602L250.549 101L217.619 63.7001C224.666 61.6511 231.898 60.298 239.209 59.6602Z" fill="#455A64"/>
<path d="M261.92 59.66L250.58 101L239.24 59.64C246.785 58.9584 254.377 58.9651 261.92 59.66Z" fill="#455A64"/>
<path d="M283.52 63.7001L250.58 101L261.92 59.6401C269.235 60.2845 276.47 61.6444 283.52 63.7001Z" fill="#455A64"/>
<path d="M315.23 82C318.492 85.5665 320.887 89.8371 322.23 94.48L250.59 101L315.23 82Z" fill="#455A64"/>
<path d="M322.24 94.4902C323.425 98.7799 323.425 103.311 322.24 107.6L250.59 101L322.24 94.4902Z" fill="#455A64"/>
<path d="M322.24 107.6C320.9 112.241 318.504 116.509 315.24 120.07L250.59 101.07L322.24 107.6Z" fill="#455A64"/>
<path d="M315.24 120.07C311.388 124.301 306.877 127.881 301.88 130.67L250.57 101L315.24 120.07Z" fill="#455A64"/>
<path d="M250.58 101.05L283.53 138.38C276.475 140.416 269.237 141.756 261.92 142.38L250.57 101.02L250.58 101.05Z" fill="#455A64"/>
<path d="M250.571 101.06L261.921 142.42C254.367 143.11 246.765 143.11 239.211 142.42L250.571 101.06Z" fill="#455A64"/>
<path d="M250.55 101.05L239.19 142.41C231.873 141.786 224.635 140.447 217.58 138.41L250.55 101.05Z" fill="#455A64"/>
<path d="M250.549 101.05L217.549 138.38C211.151 136.539 204.992 133.951 199.199 130.67L250.549 101.05Z" fill="#455A64"/>
<path d="M250.541 101L185.891 120C182.622 116.442 180.226 112.173 178.891 107.53L250.541 101Z" fill="#455A64"/>
<path d="M250.54 101L178.9 107.6C177.705 103.312 177.705 98.7785 178.9 94.4902L250.54 101Z" fill="#455A64"/>
<path d="M250.54 101L178.9 94.4502C180.246 89.8086 182.641 85.5386 185.9 81.9702L250.54 101Z" fill="#455A64"/>
<path d="M199.25 71.4204L250.54 101L185.9 82.0004C189.752 77.7786 194.26 74.206 199.25 71.4204Z" fill="#455A64"/>
<path d="M301.88 71.4202L250.58 101L283.52 63.6802C289.925 65.5247 296.088 68.1229 301.88 71.4202Z" fill="#455A64"/>
<path d="M301.88 71.4204C306.872 74.2033 311.38 77.7763 315.23 82.0004L250.59 101L301.88 71.4204Z" fill="#455A64"/>
<path d="M250.549 101L199.229 130.63C194.234 127.839 189.723 124.259 185.869 120.03L250.519 101.03L250.549 101Z" fill="#455A64"/>
<path d="M217.62 63.7002L250.55 101L199.25 71.3802C205.048 68.1019 211.214 65.5238 217.62 63.7002Z" fill="#455A64"/>
<path d="M250.58 101.05L301.88 130.67C296.087 133.951 289.928 136.539 283.53 138.38L250.58 101.05Z" fill="#455A64"/>
<path d="M206.68 59.2803L247.43 82.8003L245.43 49.5503C230.44 50.1903 217.71 53.3903 206.68 59.2803Z" fill="#4FA94D"/>
<path opacity="0.2" d="M206.68 59.2803L247.43 82.8003L245.43 49.5503C230.44 50.1903 217.71 53.3903 206.68 59.2803Z" fill="white"/>
<path d="M247.43 82.8003V95.6403L206.68 72.1103V59.2803L247.43 82.8003Z" fill="#4FA94D"/>
<path opacity="0.1" d="M247.43 82.8003V95.6403L206.68 72.1103V59.2803L247.43 82.8003Z" fill="black"/>
<path d="M300.26 62.5801L253.49 83.6801V96.5101L300.26 75.4101V62.5801Z" fill="#4FA94D"/>
<path opacity="0.3" d="M300.26 62.5801L253.49 83.6801V96.5101L300.26 75.4101V62.5801Z" fill="black"/>
<path d="M300.26 62.5802C287.67 54.0102 270.88 49.4902 251.42 49.4302L252.67 70.2202L253.49 83.6802L300.26 62.5802Z" fill="#4FA94D"/>
<path opacity="0.1" d="M300.26 62.5802C287.67 54.0102 270.88 49.4902 251.42 49.4302L252.67 70.2202L253.49 83.6802L300.26 62.5802Z" fill="black"/>
<path d="M251.41 49.4302V62.2602L253.49 96.5102V83.6802L251.41 49.4302Z" fill="#263238"/>
<path d="M263 108.39L286.91 131.39C288.25 130.88 289.49 130.39 290.91 129.71C307.38 122.29 315.99 111.17 315.98 99.9502V87.2502C314.17 82.4202 309.19 82.4302 303.98 78.1802L255.15 100.18L254.66 100.4L263 108.39Z" fill="#4FA94D"/>
<path opacity="0.6" d="M263 108.39L286.91 131.39C288.25 130.88 289.49 130.39 290.91 129.71C307.38 122.29 315.99 111.17 315.98 99.9502V87.2502C314.17 82.4202 309.19 82.4302 303.98 78.1802L255.15 100.18L254.66 100.4L263 108.39Z" fill="white"/>
<path d="M263 95.5601L286.91 118.56C288.25 118.05 289.49 117.56 290.91 116.87C318.48 104.42 324 81.6201 304 65.3101L255.17 87.3101L254.68 87.5301L263 95.5601Z" fill="#4FA94D"/>
<path opacity="0.8" d="M263 95.5601L286.91 118.56C288.25 118.05 289.49 117.56 290.91 116.87C318.48 104.42 324 81.6201 304 65.3101L255.17 87.3101L254.68 87.5301L263 95.5601Z" fill="white"/>
<path d="M286.871 131.37V118.53L254.631 87.5601V100.39L286.871 131.37Z" fill="#4FA94D"/>
<path opacity="0.6" d="M286.871 131.37V118.53L254.631 87.5601V100.39L286.871 131.37Z" fill="white"/>
<path d="M202.44 74.5601C195.57 78.8901 187.94 81.6201 185.16 86.8801V99.7201C185.16 106.41 188.27 113.19 194.72 119.39C203.72 128.02 217.97 134.12 234.9 136.55C250.568 138.863 266.553 137.699 281.72 133.14V120.31L260.67 112.91L248.31 101L202.44 74.5601Z" fill="#4FA94D"/>
<path opacity="0.6" d="M202.44 74.5601C195.57 78.8901 187.94 81.6201 185.16 86.8801V99.7201C185.16 106.41 188.27 113.19 194.72 119.39C203.72 128.02 217.97 134.12 234.9 136.55C250.568 138.863 266.553 137.699 281.72 133.14V120.31L260.67 112.91L248.31 101L202.44 74.5601Z" fill="black"/>
<path d="M202.441 61.73C182.701 74.15 179.521 91.95 194.721 106.55C203.721 115.19 217.971 121.28 234.901 123.72C250.569 126.028 266.552 124.864 281.721 120.31L260.671 100.08L248.311 88.21L202.441 61.73Z" fill="#4FA94D"/>
<path opacity="0.3" d="M202.441 61.73C182.701 74.15 179.521 91.95 194.721 106.55C203.721 115.19 217.971 121.28 234.901 123.72C250.569 126.028 266.552 124.864 281.721 120.31L260.671 100.08L248.311 88.21L202.441 61.73Z" fill="black"/>
<path d="M431.49 201.65C430.149 197.009 427.754 192.741 424.49 189.18C420.641 184.95 416.133 181.37 411.14 178.58C405.344 175.297 399.182 172.709 392.78 170.87C385.728 168.835 378.493 167.495 371.18 166.87C363.625 166.18 356.024 166.18 348.47 166.87C341.16 167.496 333.929 168.835 326.88 170.87C320.478 172.709 314.315 175.297 308.52 178.58C303.523 181.369 299.012 184.949 295.16 189.18C291.899 192.743 289.504 197.011 288.16 201.65C286.965 205.942 286.965 210.478 288.16 214.77C289.493 219.411 291.89 223.677 295.16 227.23C299.013 231.463 303.524 235.045 308.52 237.84C314.313 241.119 320.472 243.703 326.87 245.54C333.926 247.571 341.164 248.91 348.48 249.54C356.034 250.22 363.635 250.22 371.19 249.54C378.506 248.911 385.743 247.572 392.8 245.54C399.201 243.708 405.361 241.119 411.15 237.83C416.15 235.042 420.665 231.462 424.52 227.23C427.783 223.672 430.179 219.408 431.52 214.77C432.7 210.475 432.69 205.94 431.49 201.65Z" fill="#37474F"/>
<path d="M287.25 201.64H432.38V209.04L287.25 208.63V201.64Z" fill="#37474F"/>
<path d="M348.459 160.28L359.809 201.64L326.869 164.32C333.917 162.272 341.148 160.919 348.459 160.28Z" fill="#455A64"/>
<path d="M371.17 160.28L359.83 201.64L348.48 160.28C356.028 159.591 363.623 159.591 371.17 160.28Z" fill="#455A64"/>
<path d="M392.77 164.32L359.83 201.64L371.17 160.28C378.485 160.918 385.719 162.271 392.77 164.32Z" fill="#455A64"/>
<path d="M424.48 182.63C427.744 186.195 430.139 190.466 431.48 195.11L359.84 201.66L424.48 182.63Z" fill="#455A64"/>
<path d="M431.49 195.11C432.679 199.399 432.679 203.931 431.49 208.22L359.85 201.66L431.49 195.11Z" fill="#455A64"/>
<path d="M431.49 208.22C430.147 212.86 427.751 217.127 424.49 220.69L359.84 201.69L431.49 208.22Z" fill="#455A64"/>
<path d="M424.5 220.69C420.64 224.917 416.126 228.496 411.13 231.29L359.82 201.66L424.5 220.69Z" fill="#455A64"/>
<path d="M359.83 201.67L392.78 239C385.724 241.032 378.486 242.371 371.17 243L359.82 201.64L359.83 201.67Z" fill="#455A64"/>
<path d="M359.821 201.68L371.171 243C363.616 243.685 356.015 243.685 348.461 243L359.821 201.68Z" fill="#455A64"/>
<path d="M359.81 201.67L348.46 243C341.144 242.371 333.906 241.031 326.85 239L359.81 201.67Z" fill="#455A64"/>
<path d="M359.811 201.67L326.811 239C320.414 237.156 314.256 234.568 308.461 231.29L359.811 201.67Z" fill="#455A64"/>
<path d="M359.791 201.66L295.141 220.66C291.872 217.102 289.476 212.833 288.141 208.19L359.791 201.66Z" fill="#455A64"/>
<path d="M359.79 201.66L288.15 208.22C286.955 203.932 286.955 199.399 288.15 195.11L359.79 201.66Z" fill="#455A64"/>
<path d="M359.79 201.65L288.15 195.1C289.494 190.458 291.889 186.187 295.15 182.62L359.79 201.65Z" fill="#455A64"/>
<path d="M308.51 172L359.79 201.61L295.15 182.61C299.002 178.375 303.513 174.792 308.51 172Z" fill="#455A64"/>
<path d="M411.13 172L359.83 201.61L392.77 164.29C399.173 166.125 405.336 168.713 411.13 172Z" fill="#455A64"/>
<path d="M411.13 172C416.122 174.786 420.631 178.362 424.48 182.59L359.85 201.59L411.13 172Z" fill="#455A64"/>
<path d="M359.811 201.65L308.501 231.29C303.508 228.496 298.997 224.917 295.141 220.69L359.791 201.69L359.811 201.65Z" fill="#455A64"/>
<path d="M326.87 164.32L359.81 201.64L308.51 172C314.305 168.724 320.468 166.146 326.87 164.32Z" fill="#455A64"/>
<path d="M359.83 201.67L411.13 231.29C405.337 234.572 399.178 237.159 392.78 239L359.83 201.67Z" fill="#455A64"/>
<path d="M295.89 185.41V206.19C295.363 204.291 295.094 202.331 295.09 200.36V185.41H295.89Z" fill="#4FA94D"/>
<path opacity="0.3" d="M295.89 185.41V206.19C295.363 204.291 295.094 202.331 295.09 200.36V185.41H295.89Z" fill="black"/>
<path d="M359.791 185.43L295.891 191.27C294.831 187.446 294.831 183.405 295.891 179.58L359.791 185.43Z" fill="#4FA94D"/>
<path d="M359.791 185.41L295.891 179.56C297.092 175.419 299.23 171.611 302.141 168.43L359.791 185.41Z" fill="#4FA94D"/>
<path d="M314.051 159L359.791 185.41L302.141 168.41C305.579 164.654 309.601 161.477 314.051 159Z" fill="#4FA94D"/>
<path d="M330.431 152.12L359.811 185.4L314.051 159C319.22 156.068 324.718 153.758 330.431 152.12Z" fill="#4FA94D"/>
<path d="M349.69 148.52L359.81 185.4L330.43 152.12C336.716 150.291 343.167 149.086 349.69 148.52Z" fill="#4FA94D"/>
<path d="M370.001 148.52L359.831 185.4L349.711 148.52C356.46 147.898 363.252 147.898 370.001 148.52Z" fill="#4FA94D"/>
<path d="M389.21 152.12L359.83 185.4L370 148.52C376.506 149.089 382.94 150.295 389.21 152.12Z" fill="#4FA94D"/>
<g opacity="0.2">
<path d="M359.791 185.43L295.891 191.27C294.831 187.446 294.831 183.405 295.891 179.58L359.791 185.43Z" fill="white"/>
<path d="M359.791 185.41L295.891 179.56C297.092 175.419 299.23 171.611 302.141 168.43L359.791 185.41Z" fill="white"/>
<path d="M314.051 159L359.791 185.41L302.141 168.41C305.579 164.654 309.601 161.477 314.051 159Z" fill="white"/>
<path d="M330.431 152.12L359.811 185.4L314.051 159C319.22 156.068 324.718 153.758 330.431 152.12Z" fill="white"/>
<path d="M349.692 148.52L359.812 185.4L330.432 152.12C336.718 150.291 343.169 149.086 349.692 148.52Z" fill="white"/>
<path d="M370.001 148.52L359.831 185.4L349.711 148.52C356.46 147.898 363.252 147.898 370.001 148.52Z" fill="white"/>
<path d="M389.21 152.12L359.83 185.4L370 148.52C376.506 149.089 382.94 150.295 389.21 152.12Z" fill="white"/>
</g>
<path d="M414 195.39L404.41 204.39L397.12 211.28L390.17 217.82L389.24 218.69V233.62C394.952 231.984 400.45 229.678 405.62 226.75C410.075 224.252 414.1 221.055 417.54 217.28C420.45 214.11 422.582 210.306 423.77 206.17C424.3 204.272 424.573 202.311 424.58 200.34V185.42L414 195.39Z" fill="#4FA94D"/>
<path opacity="0.3" d="M414 195.39L404.41 204.39L397.12 211.28L390.17 217.82L389.24 218.69V233.62C394.952 231.984 400.45 229.678 405.62 226.75C410.075 224.252 414.1 221.055 417.54 217.28C420.45 214.11 422.582 210.306 423.77 206.17C424.3 204.272 424.573 202.311 424.58 200.34V185.42L414 195.39Z" fill="black"/>
<path d="M417.5 168.45C420.407 171.634 422.545 175.441 423.75 179.58L359.84 185.43L417.5 168.45Z" fill="#4FA94D"/>
<path d="M424.55 185.44C424.542 187.414 424.269 189.378 423.74 191.28L404.38 189.5L359.84 185.42L413.97 180.42L423.74 179.53C424.275 181.455 424.547 183.443 424.55 185.44Z" fill="#4FA94D"/>
<path d="M423.74 191.28C422.55 195.415 420.417 199.218 417.51 202.39L397.09 196.39L359.84 185.39L404.38 189.47L423.74 191.28Z" fill="#4FA94D"/>
<path d="M417.51 202.39C414.069 206.165 410.044 209.362 405.59 211.86L390.14 202.92L359.85 185.44L397.1 196.44L417.51 202.39Z" fill="#4FA94D"/>
<path d="M405.59 159L359.83 185.42L389.21 152.14C394.92 153.776 400.418 156.078 405.59 159Z" fill="#4FA94D"/>
<path d="M405.59 159C410.041 161.491 414.062 164.682 417.5 168.45L359.84 185.45L405.59 159Z" fill="#4FA94D"/>
<path d="M405.59 211.86C400.419 214.784 394.921 217.087 389.21 218.72L359.85 185.44L390.14 202.92L405.59 211.86Z" fill="#4FA94D"/>
<g opacity="0.2">
<path d="M417.5 168.45C420.407 171.634 422.545 175.441 423.75 179.58L359.84 185.43L417.5 168.45Z" fill="white"/>
<path d="M424.55 185.44C424.542 187.414 424.269 189.378 423.74 191.28L404.38 189.5L359.84 185.42L413.97 180.42L423.74 179.53C424.275 181.455 424.547 183.443 424.55 185.44Z" fill="white"/>
<path d="M423.74 191.28C422.55 195.415 420.417 199.218 417.51 202.39L397.09 196.39L359.84 185.39L404.38 189.47L423.74 191.28Z" fill="white"/>
<path d="M417.51 202.39C414.069 206.165 410.044 209.362 405.59 211.86L390.14 202.92L359.85 185.44L397.1 196.44L417.51 202.39Z" fill="white"/>
<path d="M405.59 159L359.83 185.42L389.21 152.14C394.92 153.776 400.418 156.078 405.59 159Z" fill="white"/>
<path d="M405.59 159C410.041 161.491 414.062 164.682 417.5 168.45L359.84 185.45L405.59 159Z" fill="white"/>
<path d="M405.59 211.86C400.419 214.784 394.921 217.086 389.21 218.72L359.85 185.44L390.14 202.92L405.59 211.86Z" fill="white"/>
</g>
<path d="M389.221 218.73V233.66L359.811 200.34V185.4L389.221 218.73Z" fill="#263238"/>
<path d="M359.811 200.34L295.891 206.21V191.27L359.811 185.4V200.34Z" fill="#4FA94D"/>
<path opacity="0.1" d="M359.811 200.34L295.891 206.21V191.27L359.811 185.4V200.34Z" fill="black"/>
<path d="M213.001 201.65C211.66 197.009 209.264 192.741 206.001 189.18C202.15 184.951 197.642 181.372 192.651 178.58C186.852 175.295 180.686 172.707 174.281 170.87C167.232 168.835 160.001 167.495 152.691 166.87C145.136 166.18 137.535 166.18 129.981 166.87C122.667 167.496 115.433 168.835 108.381 170.87C101.972 172.708 95.8025 175.296 90.0006 178.58C85.0078 181.37 80.4996 184.95 76.6506 189.18C73.3869 192.741 70.9911 197.009 69.6506 201.65C68.4654 205.943 68.4654 210.477 69.6506 214.77C70.9888 219.409 73.385 223.674 76.6506 227.23C80.4988 231.464 85.0071 235.047 90.0006 237.84C95.7919 241.122 101.951 243.707 108.351 245.54C115.407 247.572 122.645 248.911 129.961 249.54C137.515 250.22 145.116 250.22 152.671 249.54C159.987 248.911 167.224 247.572 174.281 245.54C180.682 243.708 186.842 241.119 192.631 237.83C197.631 235.043 202.147 231.463 206.001 227.23C209.266 223.674 211.662 219.409 213.001 214.77C214.186 210.477 214.186 205.943 213.001 201.65Z" fill="#37474F"/>
<path d="M68.75 201.64H213.88V209.04L68.75 208.63V201.64Z" fill="#37474F"/>
<path d="M130 160.28L141.34 201.64L108.4 164.32C115.451 162.272 122.686 160.919 130 160.28Z" fill="#455A64"/>
<path d="M152.67 160.28L141.33 201.64L130 160.28C137.541 159.593 145.129 159.593 152.67 160.28Z" fill="#455A64"/>
<path d="M174.26 164.32L141.33 201.64L152.67 160.28C159.981 160.918 167.213 162.271 174.26 164.32Z" fill="#455A64"/>
<path d="M206 182.63C209.264 186.195 211.659 190.466 213 195.11L141.35 201.66L206 182.63Z" fill="#455A64"/>
<path d="M213 195.11C214.184 199.4 214.184 203.931 213 208.22L141.35 201.66L213 195.11Z" fill="#455A64"/>
<path d="M213 208.22C211.659 212.861 209.264 217.129 206 220.69L141.35 201.69L213 208.22Z" fill="#455A64"/>
<path d="M206 220.69C202.144 224.917 197.633 228.496 192.64 231.29L141.32 201.66L206 220.69Z" fill="#455A64"/>
<path d="M141.331 201.67L174.281 239C167.224 241.032 159.987 242.371 152.671 243L141.311 201.64L141.331 201.67Z" fill="#455A64"/>
<path d="M141.31 201.68L152.67 243C145.129 243.683 137.541 243.683 130 243L141.31 201.68Z" fill="#455A64"/>
<path d="M141.301 201.67L130.001 243C122.685 242.372 115.447 241.032 108.391 239L141.301 201.67Z" fill="#455A64"/>
<path d="M141.3 201.67L108.3 239C101.919 237.156 95.7771 234.568 90 231.29L141.3 201.67Z" fill="#455A64"/>
<path d="M141.291 201.66L76.6406 220.66C73.3766 217.099 70.9808 212.831 69.6406 208.19L141.291 201.66Z" fill="#455A64"/>
<path d="M141.291 201.66L69.6406 208.22C68.4557 203.931 68.4557 199.4 69.6406 195.11L141.291 201.66Z" fill="#455A64"/>
<path d="M141.291 201.65L69.6406 195.1C70.981 190.456 73.3767 186.185 76.6406 182.62L141.291 201.65Z" fill="#455A64"/>
<path d="M90.0004 172L141.29 201.61L76.6504 182.61C80.4978 178.375 85.0063 174.792 90.0004 172Z" fill="#455A64"/>
<path d="M192.63 172L141.33 201.61L174.26 164.29C180.667 166.123 186.834 168.711 192.63 172Z" fill="#455A64"/>
<path d="M192.629 172C197.63 174.799 202.145 178.389 205.999 182.63L141.359 201.63L192.629 172Z" fill="#455A64"/>
<path d="M141.301 201.65L90.0006 231.29C85.0062 228.499 80.495 224.919 76.6406 220.69L141.291 201.69L141.301 201.65Z" fill="#455A64"/>
<path d="M108.36 164.32L141.3 201.64L90 172C95.795 168.724 101.958 166.146 108.36 164.32Z" fill="#455A64"/>
<path d="M141.33 201.67L192.63 231.29C186.837 234.572 180.678 237.159 174.28 239L141.33 201.67Z" fill="#455A64"/>
<path d="M160.609 176L168.879 166.62C168.879 155.62 155.439 155.35 149.499 154.82C143.559 154.29 133.369 150.88 133.369 163.4L136.209 173.76C144.409 173.233 152.642 173.989 160.609 176Z" fill="#4FA94D"/>
<path opacity="0.6" d="M160.609 176L168.879 166.62C168.879 155.62 155.439 155.35 149.499 154.82C143.559 154.29 133.369 150.88 133.369 163.4L136.209 173.76C144.409 173.233 152.642 173.989 160.609 176Z" fill="white"/>
<path d="M160.609 161.27L168.879 151.9C157.299 148.887 145.302 147.799 133.369 148.68L136.209 159C144.411 158.483 152.643 159.249 160.609 161.27Z" fill="#4FA94D"/>
<path opacity="0.8" d="M160.609 161.27L168.879 151.9C157.299 148.887 145.302 147.799 133.369 148.68L136.209 159C144.411 158.483 152.643 159.249 160.609 161.27Z" fill="white"/>
<path d="M136.209 159.04V173.78L133.369 163.42V148.68L136.209 159.04Z" fill="#4FA94D"/>
<path d="M168.879 151.9L160.609 161.27V176.02L168.879 166.64V151.9Z" fill="#4FA94D"/>
<g opacity="0.6">
<path d="M136.209 159.04V173.78L133.369 163.42V148.68L136.209 159.04Z" fill="white"/>
<path d="M168.879 151.9L160.609 161.27V176.02L168.879 166.64V151.9Z" fill="white"/>
</g>
<path d="M164.65 162.46V177.2C168.101 178.314 171.431 179.772 174.59 181.55C177.347 183.116 179.88 185.047 182.12 187.29L198.34 182.52C195.115 179.228 191.443 176.407 187.43 174.14C183 171.6 178.26 161.3 164.65 162.46Z" fill="#4FA94D"/>
<path opacity="0.6" d="M164.65 162.46V177.2C168.101 178.314 171.431 179.772 174.59 181.55C177.347 183.116 179.88 185.047 182.12 187.29L198.34 182.52C195.115 179.228 191.443 176.407 187.43 174.14C183 171.6 178.26 161.3 164.65 162.46Z" fill="black"/>
<path d="M172.92 153.1L164.65 162.46C168.104 163.565 171.435 165.023 174.59 166.81C177.347 168.376 179.88 170.306 182.12 172.55L198.34 167.78C195.121 164.482 191.447 161.661 187.43 159.4C182.833 156.787 177.968 154.675 172.92 153.1Z" fill="#4FA94D"/>
<path opacity="0.3" d="M172.92 153.1L164.65 162.46C168.104 163.565 171.435 165.023 174.59 166.81C177.347 168.376 179.88 170.306 182.12 172.55L198.34 167.78C195.121 164.482 191.447 161.661 187.43 159.4C182.833 156.787 177.968 154.675 172.92 153.1Z" fill="black"/>
<path d="M182.119 172.55L198.339 167.77V182.52L182.119 187.29V172.55Z" fill="#4FA94D"/>
<path opacity="0.6" d="M182.119 172.55L198.339 167.77V182.52L182.119 187.29V172.55Z" fill="black"/>
<path d="M206.479 185.63H200.999C200.799 185.37 200.629 185.11 200.429 184.85L184.189 174.85V189.6C187.649 194.05 188.959 198.91 188.059 203.68L205.999 205.35C206.303 203.863 206.454 202.348 206.449 200.83L206.479 185.63Z" fill="#4FA94D"/>
<path opacity="0.6" d="M206.479 185.63H200.999C200.799 185.37 200.629 185.11 200.429 184.85L184.189 174.85V189.6C187.649 194.05 188.959 198.91 188.059 203.68L205.999 205.35C206.303 203.863 206.454 202.348 206.449 200.83L206.479 185.63Z" fill="black"/>
<path d="M188.05 189L206 190.61C207.46 183.68 205.61 176.55 200.42 170.11L184.18 174.88C187.64 179.33 189 184.2 188.05 189Z" fill="#4FA94D"/>
<path opacity="0.3" d="M188.05 189L206 190.61C207.46 183.68 205.61 176.55 200.42 170.11L184.18 174.88C187.64 179.33 189 184.2 188.05 189Z" fill="black"/>
<path d="M206.001 190.61V205.36L188.051 203.71V188.97L206.001 190.61Z" fill="#4FA94D"/>
<path opacity="0.6" d="M206.001 190.61V205.36L188.051 203.71V188.97L206.001 190.61Z" fill="black"/>
<path d="M131.729 174.2V159.45C121.729 154.84 103.109 159.52 96.8691 173.25L109.709 180.67C116.606 177.221 124.063 175.03 131.729 174.2Z" fill="#4FA94D"/>
<path opacity="0.3" d="M131.729 174.2V159.45C121.729 154.84 103.109 159.52 96.8691 173.25L109.709 180.67C116.606 177.221 124.063 175.03 131.729 174.2Z" fill="black"/>
<path d="M131.731 159.45L128.881 149.06C116.791 150.42 105.721 153.75 96.8809 158.51L109.721 165.92C116.614 162.472 124.068 160.281 131.731 159.45Z" fill="#4FA94D"/>
<path opacity="0.1" d="M131.731 159.45L128.881 149.06C116.791 150.42 105.721 153.75 96.8809 158.51L109.721 165.92C116.614 162.472 124.068 160.281 131.731 159.45Z" fill="black"/>
<path d="M109.709 165.92V180.67L96.8691 173.25V158.51L109.709 165.92Z" fill="#263238"/>
<path d="M96.2803 167.78L93.6403 175.09C85.0103 180.43 79.5603 186.86 77.3203 193.59L95.3203 195.23C96.9703 190.62 100.73 186.23 106.55 182.53V167.78H96.2803Z" fill="#4FA94D"/>
<path opacity="0.3" d="M96.2803 167.78L93.6403 175.09C85.0103 180.43 79.5603 186.86 77.3203 193.59L95.3203 195.23C96.9703 190.62 100.73 186.23 106.55 182.53V167.78H96.2803Z" fill="black"/>
<path d="M106.51 167.78L93.6403 160.35C85.0103 165.68 79.5603 172.12 77.3203 178.84L95.3203 180.49C96.9303 175.88 100.69 171.48 106.51 167.78Z" fill="#4FA94D"/>
<path opacity="0.1" d="M106.51 167.78L93.6403 160.35C85.0103 165.68 79.5603 172.12 77.3203 178.84L95.3203 180.49C96.9303 175.88 100.69 171.48 106.51 167.78Z" fill="black"/>
<path d="M77.3203 178.84V193.59L95.2803 195.23V180.49L77.3203 178.84Z" fill="#263238"/>
<path d="M94.5704 197.82V183.07L89.2304 182.59L76.1504 186V200.73C76.2342 206.583 78.3559 212.223 82.1504 216.68L98.3904 211.91C95.0004 207.46 93.6804 202.59 94.5704 197.82Z" fill="#4FA94D"/>
<path opacity="0.3" d="M94.5704 197.82V183.07L89.2304 182.59L76.1504 186V200.73C76.2342 206.583 78.3559 212.223 82.1504 216.68L98.3904 211.91C95.0004 207.46 93.6804 202.59 94.5704 197.82Z" fill="black"/>
<path d="M82.2109 201.94L98.4509 197.16V211.91L82.2109 216.68V201.94Z" fill="#263238"/>
<path d="M94.5803 183.07L76.5803 181.43C75.1203 188.37 76.9703 195.49 82.1603 201.94L98.4003 197.16C95.0003 192.71 93.6803 187.84 94.5803 183.07Z" fill="#4FA94D"/>
<path opacity="0.1" d="M94.5803 183.07L76.5803 181.43C75.1203 188.37 76.9703 195.49 82.1603 201.94L98.4003 197.16C95.0003 192.71 93.6803 187.84 94.5803 183.07Z" fill="black"/>
<path d="M113.791 216.66C106.181 212.27 102.381 206.52 102.381 200.77V186H180.251V200.74C180.251 206.5 176.451 212.25 168.841 216.64C153.641 225.44 129.001 225.44 113.791 216.66Z" fill="#37474F"/>
<path d="M141.321 208.5C162.821 208.5 180.251 198.435 180.251 186.02C180.251 173.605 162.821 163.54 141.321 163.54C119.82 163.54 102.391 173.605 102.391 186.02C102.391 198.435 119.82 208.5 141.321 208.5Z" fill="#455A64"/>
<path d="M109.709 220.88V219L84.2793 204.27V219C87.5054 222.295 91.1819 225.116 95.1993 227.38C99.7968 229.993 104.661 232.105 109.709 233.68L117.969 224.32C115.129 223.396 112.366 222.245 109.709 220.88Z" fill="#4FA94D"/>
<path opacity="0.3" d="M109.709 220.88V219L84.2793 204.27V219C87.5054 222.295 91.1819 225.116 95.1993 227.38C99.7968 229.993 104.661 232.105 109.709 233.68L117.969 224.32C115.129 223.396 112.366 222.245 109.709 220.88Z" fill="black"/>
<path d="M108 205.23C105.24 203.669 102.704 201.741 100.46 199.5L84.2402 204.27C87.469 207.562 91.145 210.383 95.1602 212.65C99.7598 215.259 104.624 217.371 109.67 218.95L117.93 209.58C114.48 208.475 111.152 207.017 108 205.23Z" fill="#4FA94D"/>
<path opacity="0.1" d="M108 205.23C105.24 203.669 102.704 201.741 100.46 199.5L84.2402 204.27C87.469 207.562 91.145 210.383 95.1602 212.65C99.7598 215.259 104.624 217.371 109.67 218.95L117.93 209.58C114.48 208.475 111.152 207.017 108 205.23Z" fill="black"/>
<path d="M109.711 233.69V218.95L117.971 209.58V224.33L109.711 233.69Z" fill="#263238"/>
<path d="M113.75 220.14V234.89C125.33 237.904 137.327 238.992 149.26 238.11V223.37L113.75 220.14Z" fill="#4FA94D"/>
<path opacity="0.1" d="M113.75 220.14V234.89C125.33 237.904 137.327 238.992 149.26 238.11V223.37L113.75 220.14Z" fill="black"/>
<path d="M122 210.77L113.73 220.14C125.311 223.152 137.307 224.243 149.24 223.37L146.42 213C138.214 213.532 129.975 212.78 122 210.77Z" fill="#4FA94D"/>
<path opacity="0.2" d="M122 210.77L113.73 220.14C125.311 223.152 137.307 224.243 149.24 223.37L146.42 213C138.214 213.532 129.975 212.78 122 210.77Z" fill="white"/>
<path d="M176.119 219L188.999 226.44C197.629 221.11 203.079 214.67 205.319 207.94V193.2L187.319 206.3C185.699 210.91 181.939 215.31 176.119 219Z" fill="#4FA94D"/>
<path opacity="0.1" d="M176.119 219L188.999 226.44C197.629 221.11 203.079 214.67 205.319 207.94V193.2L187.319 206.3C185.699 210.91 181.939 215.31 176.119 219Z" fill="black"/>
<path d="M176.119 204.26L188.999 211.7C197.629 206.36 203.079 199.93 205.319 193.2L187.319 191.56C185.699 196.17 181.939 200.56 176.119 204.26Z" fill="#4FA94D"/>
<path opacity="0.2" d="M176.119 204.26L188.999 211.7C197.629 206.36 203.079 199.93 205.319 193.2L187.319 191.56C185.699 196.17 181.939 200.56 176.119 204.26Z" fill="white"/>
<path d="M188.989 211.7V226.44L176.119 219.01V204.26L188.989 211.7Z" fill="#4FA94D"/>
<path opacity="0.3" d="M188.989 211.7V226.44L176.119 219.01V204.26L188.989 211.7Z" fill="black"/>
<path d="M153.75 223V227C152.8 227.15 151.86 227.28 150.9 227.39L153.75 237.77C165.4 236.47 176.54 233.32 185.75 228.34V213.55L153.75 223Z" fill="#4FA94D"/>
<path opacity="0.1" d="M153.75 223V227C152.8 227.15 151.86 227.28 150.9 227.39L153.75 237.77C165.4 236.47 176.54 233.32 185.75 228.34V213.55L153.75 223Z" fill="black"/>
<path d="M150.9 212.6L153.75 223C165.4 221.7 176.54 218.56 185.75 213.58L172.88 206.14C166.001 209.596 158.556 211.784 150.9 212.6Z" fill="#4FA94D"/>
<path opacity="0.2" d="M150.9 212.6L153.75 223C165.4 221.7 176.54 218.56 185.75 213.58L172.88 206.14C166.001 209.596 158.556 211.784 150.9 212.6Z" fill="white"/>
<path d="M153.75 222.97V237.71L150.9 227.35V212.6L153.75 222.97Z" fill="#4FA94D"/>
<path opacity="0.3" d="M153.75 222.97V237.71L150.9 227.35V212.6L153.75 222.97Z" fill="black"/>
<path d="M403.308 124.34C403.273 123.69 403.085 123.057 402.76 122.492C402.435 121.928 401.983 121.447 401.438 121.09L374.358 105.46C373.358 104.86 372.488 105.35 372.488 106.55V132.72C372.522 133.371 372.709 134.004 373.034 134.569C373.359 135.133 373.813 135.614 374.358 135.97L385.698 142.51L389.278 157C389.266 157.265 389.36 157.524 389.539 157.72C389.718 157.916 389.968 158.033 390.233 158.045C390.498 158.057 390.758 157.963 390.954 157.784C391.15 157.605 391.266 157.355 391.278 157.09L394.558 147.62L401.488 151.62C402.488 152.22 403.358 151.73 403.358 150.54L403.308 124.34Z" fill="#4FA94D"/>
<path opacity="0.5" d="M403.308 124.34C403.273 123.69 403.085 123.057 402.76 122.492C402.435 121.928 401.983 121.447 401.438 121.09L374.358 105.46C373.358 104.86 372.488 105.35 372.488 106.55V132.72C372.522 133.371 372.709 134.004 373.034 134.569C373.359 135.133 373.813 135.614 374.358 135.97L385.698 142.51L389.278 157C389.266 157.265 389.36 157.524 389.539 157.72C389.718 157.916 389.968 158.033 390.233 158.045C390.498 158.057 390.758 157.963 390.954 157.784C391.15 157.605 391.266 157.355 391.278 157.09L394.558 147.62L401.488 151.62C402.488 152.22 403.358 151.73 403.358 150.54L403.308 124.34Z" fill="white"/>
<path d="M382.749 117.38C383.302 117.694 383.813 118.077 384.269 118.52C384.678 118.917 385.043 119.356 385.359 119.83C385.634 120.249 385.859 120.699 386.029 121.17C386.17 121.571 386.261 121.987 386.299 122.41C386.299 122.84 386.349 123.29 386.349 123.76C386.349 124.23 386.349 124.66 386.299 125.06C386.275 125.382 386.183 125.696 386.029 125.98C385.88 126.243 385.643 126.444 385.359 126.55C385.003 126.648 384.626 126.648 384.269 126.55C383.731 126.425 383.218 126.212 382.749 125.92C382.194 125.609 381.68 125.229 381.219 124.79C380.81 124.404 380.447 123.971 380.139 123.5C379.617 122.727 379.29 121.838 379.189 120.91C379.189 120.48 379.189 120.03 379.189 119.56C379.189 119.09 379.189 118.66 379.189 118.27C379.22 117.944 379.315 117.628 379.469 117.34C379.614 117.073 379.853 116.87 380.139 116.77C380.489 116.66 380.861 116.643 381.219 116.72C381.764 116.848 382.282 117.072 382.749 117.38ZM392.309 123.47C392.412 123.395 392.533 123.35 392.659 123.34C392.841 123.352 393.017 123.41 393.169 123.51L394.599 124.34C394.763 124.433 394.906 124.559 395.019 124.71C395.113 124.838 395.165 124.991 395.169 125.15C395.173 125.183 395.173 125.217 395.169 125.25C395.152 125.287 395.128 125.321 395.099 125.35L383.319 134.05C383.217 134.126 383.096 134.174 382.969 134.19C382.786 134.178 382.61 134.116 382.459 134.01L381.029 133.19C380.863 133.096 380.72 132.966 380.609 132.81C380.513 132.687 380.457 132.536 380.449 132.38C380.442 132.344 380.442 132.306 380.449 132.27C380.463 132.231 380.488 132.196 380.519 132.17L392.309 123.47ZM384.009 123.47C384.024 123.324 384.024 123.176 384.009 123.03V121.74C384.023 121.584 384.023 121.426 384.009 121.27C383.977 120.919 383.871 120.578 383.699 120.27C383.469 119.895 383.14 119.591 382.749 119.39C382.289 119.12 381.969 119.05 381.749 119.17C381.655 119.246 381.578 119.342 381.525 119.451C381.471 119.559 381.442 119.679 381.439 119.8C381.439 119.89 381.439 120.03 381.439 120.24C381.439 120.45 381.439 120.65 381.439 120.87C381.439 121.09 381.439 121.31 381.439 121.52C381.439 121.73 381.439 121.89 381.439 122C381.477 122.35 381.582 122.69 381.749 123C381.995 123.38 382.341 123.685 382.749 123.88C383.209 124.15 383.529 124.22 383.699 124.1C383.79 124.028 383.864 123.937 383.915 123.833C383.967 123.729 383.996 123.616 383.999 123.5L384.009 123.47ZM393.069 131.68C393.625 131.994 394.139 132.377 394.599 132.82C395.005 133.217 395.367 133.656 395.679 134.13C395.962 134.545 396.187 134.995 396.349 135.47C396.488 135.872 396.582 136.288 396.629 136.71C396.629 137.14 396.629 137.59 396.629 138.06C396.629 138.53 396.629 138.96 396.629 139.36C396.599 139.682 396.503 139.995 396.349 140.28C396.281 140.415 396.187 140.534 396.072 140.632C395.957 140.73 395.823 140.804 395.679 140.85C395.327 140.953 394.952 140.953 394.599 140.85C394.058 140.725 393.541 140.512 393.069 140.22C392.517 139.909 392.006 139.529 391.549 139.09C391.139 138.702 390.774 138.269 390.459 137.8C390.183 137.382 389.958 136.932 389.789 136.46C389.65 136.059 389.559 135.643 389.519 135.22C389.519 134.78 389.519 134.33 389.519 133.86C389.519 133.39 389.519 132.96 389.519 132.57C389.542 132.244 389.634 131.927 389.789 131.64C389.936 131.375 390.174 131.173 390.459 131.07C390.817 130.982 391.191 130.982 391.549 131.07C392.09 131.192 392.604 131.409 393.069 131.71V131.68ZM394.339 137.8C394.348 137.653 394.348 137.507 394.339 137.36V136.1C394.339 135.9 394.339 135.74 394.339 135.64C394.298 135.291 394.193 134.952 394.029 134.64C393.781 134.262 393.436 133.958 393.029 133.76C392.569 133.49 392.249 133.42 392.079 133.54C391.985 133.616 391.908 133.712 391.855 133.821C391.801 133.929 391.772 134.049 391.769 134.17C391.759 134.316 391.759 134.463 391.769 134.61C391.769 134.81 391.769 135.02 391.769 135.24C391.769 135.46 391.769 135.68 391.769 135.9C391.76 136.056 391.76 136.213 391.769 136.37C391.8 136.722 391.906 137.062 392.079 137.37C392.307 137.747 392.636 138.052 393.029 138.25C393.489 138.52 393.809 138.59 394.029 138.47C394.123 138.391 394.199 138.293 394.253 138.183C394.306 138.073 394.336 137.952 394.339 137.83V137.8Z" fill="#FAFAFA"/>
<path d="M286.16 23.9999C286.124 23.3498 285.935 22.7172 285.611 22.1529C285.286 21.5885 284.834 21.108 284.29 20.7499L257.21 5.12989C256.21 4.52989 255.34 5.00989 255.34 6.20989V32.3799C255.375 33.0317 255.562 33.6663 255.887 34.2325C256.212 34.7987 256.665 35.2808 257.21 35.6399L268.55 42.1799L272.13 56.6399C272.169 56.8639 272.283 57.0678 272.454 57.2181C272.625 57.3684 272.842 57.456 273.069 57.4665C273.296 57.4769 273.52 57.4097 273.704 57.2758C273.888 57.1419 274.02 56.9493 274.08 56.7299L277.36 47.2599L284.29 51.2599C285.29 51.8599 286.16 51.3799 286.16 50.1799V23.9999Z" fill="#4FA94D"/>
<path opacity="0.5" d="M286.16 23.9999C286.124 23.3498 285.935 22.7172 285.611 22.1529C285.286 21.5885 284.834 21.108 284.29 20.7499L257.21 5.12989C256.21 4.52989 255.34 5.00989 255.34 6.20989V32.3799C255.375 33.0317 255.562 33.6663 255.887 34.2325C256.212 34.7987 256.665 35.2808 257.21 35.6399L268.55 42.1799L272.13 56.6399C272.169 56.8639 272.283 57.0678 272.454 57.2181C272.625 57.3684 272.842 57.456 273.069 57.4665C273.296 57.4769 273.52 57.4097 273.704 57.2758C273.888 57.1419 274.02 56.9493 274.08 56.7299L277.36 47.2599L284.29 51.2599C285.29 51.8599 286.16 51.3799 286.16 50.1799V23.9999Z" fill="white"/>
<path d="M265.599 17.0797C266.152 17.3941 266.662 17.7772 267.119 18.2197C267.525 18.6192 267.89 19.0581 268.209 19.5297C268.487 19.9467 268.713 20.3968 268.879 20.8697C269.02 21.2703 269.111 21.6868 269.149 22.1097C269.149 22.5397 269.199 22.9897 269.199 23.4597C269.199 23.9297 269.199 24.3597 269.149 24.7597C269.126 25.0854 269.034 25.4024 268.879 25.6897C268.734 25.9539 268.495 26.1538 268.209 26.2497C267.857 26.3646 267.48 26.3818 267.119 26.2997C266.579 26.1751 266.065 25.9586 265.599 25.6597C265.042 25.3521 264.527 24.9721 264.069 24.5297C263.659 24.144 263.297 23.711 262.989 23.2397C262.707 22.8251 262.481 22.3744 262.319 21.8997C262.18 21.4981 262.086 21.0822 262.039 20.6597C262.039 20.2197 262.039 19.7697 262.039 19.3097C262.039 18.8497 262.039 18.3997 262.039 18.0097C262.07 17.6843 262.165 17.3681 262.319 17.0797C262.464 16.813 262.703 16.6098 262.989 16.5097C263.344 16.4212 263.714 16.4212 264.069 16.5097C264.608 16.61 265.126 16.8029 265.599 17.0797ZM275.159 23.1697C275.264 23.0991 275.384 23.0545 275.509 23.0397C275.692 23.0517 275.869 23.114 276.019 23.2197L277.449 24.0397C277.611 24.1358 277.753 24.2613 277.869 24.4097C277.961 24.5383 278.014 24.6915 278.019 24.8497C278.023 24.8863 278.023 24.9232 278.019 24.9597C277.999 24.9953 277.976 25.0288 277.949 25.0597L266.169 33.7597C266.064 33.8304 265.944 33.875 265.819 33.8897C265.636 33.8777 265.459 33.8154 265.309 33.7097L263.879 32.8897C263.713 32.7992 263.57 32.6728 263.459 32.5197C263.367 32.3912 263.314 32.238 263.309 32.0797C263.3 32.0471 263.3 32.0124 263.309 31.9797C263.323 31.9377 263.347 31.8999 263.379 31.8697L275.159 23.1697ZM266.859 23.1697C266.874 23.0234 266.874 22.876 266.859 22.7297V21.4397C266.873 21.2867 266.873 21.1328 266.859 20.9797C266.83 20.6278 266.724 20.2866 266.549 19.9797C266.322 19.5999 265.993 19.2915 265.599 19.0897C265.139 18.8297 264.819 18.7497 264.599 18.8797C264.506 18.9574 264.431 19.0536 264.378 19.1621C264.324 19.2705 264.294 19.3889 264.289 19.5097C264.289 19.5897 264.289 19.7397 264.289 19.9397C264.289 20.1397 264.289 20.3497 264.289 20.5797C264.289 20.8097 264.289 21.0197 264.289 21.2297C264.289 21.4397 264.289 21.5997 264.289 21.6997C264.328 22.0497 264.433 22.389 264.599 22.6997C264.844 23.0801 265.191 23.3848 265.599 23.5797C266.059 23.8497 266.379 23.9197 266.549 23.7997C266.641 23.7284 266.717 23.6377 266.77 23.5341C266.824 23.4304 266.854 23.3163 266.859 23.1997V23.1697ZM275.919 31.3797C276.477 31.6942 276.992 32.0808 277.449 32.5297C277.857 32.9211 278.219 33.3572 278.529 33.8297C278.81 34.2454 279.035 34.6959 279.199 35.1697C279.337 35.5717 279.431 35.9875 279.479 36.4097C279.479 36.8497 279.479 37.2997 279.479 37.7697C279.479 38.2397 279.479 38.6697 279.479 39.0597C279.448 39.3852 279.353 39.7013 279.199 39.9897C279.054 40.2564 278.815 40.4597 278.529 40.5597C278.176 40.6588 277.802 40.6588 277.449 40.5597C276.908 40.4351 276.391 40.2223 275.919 39.9297C275.371 39.6128 274.861 39.2336 274.399 38.7997C273.991 38.4058 273.626 37.9701 273.309 37.4997C273.034 37.0806 272.81 36.6309 272.639 36.1597C272.498 35.7591 272.407 35.3426 272.369 34.9197C272.369 34.4897 272.319 34.0397 272.319 33.5697C272.319 33.0997 272.319 32.6697 272.369 32.2697C272.393 31.9443 272.485 31.6275 272.639 31.3397C272.789 31.0797 273.027 30.8813 273.309 30.7797C273.661 30.6663 274.037 30.6456 274.399 30.7197C274.942 30.8603 275.456 31.0938 275.919 31.4097V31.3797ZM277.189 37.4997C277.197 37.3532 277.197 37.2063 277.189 37.0597V35.7997C277.189 35.5997 277.189 35.4397 277.189 35.3397C277.155 34.9888 277.049 34.6486 276.879 34.3397C276.634 33.9563 276.288 33.6483 275.879 33.4497C275.419 33.1897 275.099 33.1097 274.929 33.2397C274.833 33.3143 274.755 33.4097 274.701 33.5189C274.648 33.6281 274.619 33.7481 274.619 33.8697C274.608 34.0129 274.608 34.1566 274.619 34.2997C274.619 34.4997 274.619 34.7097 274.619 34.9397C274.619 35.1697 274.619 35.3797 274.619 35.5897C274.609 35.7462 274.609 35.9032 274.619 36.0597C274.648 36.4116 274.754 36.7529 274.929 37.0597C275.156 37.4396 275.485 37.748 275.879 37.9497C276.339 38.2097 276.672 38.2797 276.879 38.1597C276.974 38.0838 277.05 37.988 277.104 37.8791C277.158 37.7703 277.187 37.651 277.189 37.5297V37.4997Z" fill="#FAFAFA"/>
<path d="M100.239 123.53C100.275 122.88 100.462 122.247 100.787 121.682C101.112 121.118 101.565 120.637 102.109 120.28L129.189 104.65C130.189 104.05 131.059 104.54 131.059 105.74V131.91C131.025 132.56 130.838 133.194 130.513 133.759C130.188 134.323 129.735 134.803 129.189 135.16L117.849 141.7L114.269 156.17C114.281 156.435 114.187 156.694 114.008 156.89C113.829 157.086 113.579 157.203 113.314 157.215C113.049 157.227 112.79 157.133 112.594 156.954C112.398 156.775 112.281 156.525 112.269 156.26L108.999 146.79L102.069 150.79C101.069 151.39 100.199 150.9 100.199 149.71L100.239 123.53Z" fill="#4FA94D"/>
<g opacity="0.5">
<path d="M100.239 123.53C100.275 122.88 100.462 122.247 100.787 121.682C101.112 121.118 101.565 120.637 102.109 120.28L129.189 104.65C130.189 104.05 131.059 104.54 131.059 105.74V131.91C131.025 132.56 130.838 133.194 130.513 133.759C130.188 134.323 129.735 134.803 129.189 135.16L117.849 141.7L114.269 156.17C114.281 156.435 114.187 156.694 114.008 156.89C113.829 157.086 113.579 157.203 113.314 157.215C113.049 157.227 112.79 157.133 112.594 156.954C112.398 156.775 112.281 156.525 112.269 156.26L108.999 146.79L102.069 150.79C101.069 151.39 100.199 150.9 100.199 149.71L100.239 123.53Z" fill="white"/>
</g>
<path d="M109.7 121.58C110.241 121.243 110.837 121.003 111.46 120.87C111.878 120.785 112.311 120.806 112.72 120.93C113.049 121.048 113.322 121.283 113.49 121.59C113.669 121.92 113.774 122.285 113.8 122.66C113.84 123.12 113.86 123.62 113.86 124.16C113.86 124.7 113.84 125.22 113.8 125.72C113.756 126.211 113.652 126.694 113.49 127.16C113.298 127.703 113.04 128.221 112.72 128.7C112.358 129.246 111.935 129.749 111.46 130.2C110.928 130.706 110.337 131.146 109.7 131.51C109.152 131.845 108.555 132.091 107.93 132.24C107.516 132.332 107.085 132.315 106.68 132.19C106.351 132.071 106.077 131.837 105.91 131.53C105.728 131.2 105.619 130.835 105.59 130.46C105.59 130 105.59 129.46 105.59 128.96C105.59 128.46 105.59 127.9 105.59 127.4C105.638 126.909 105.745 126.425 105.91 125.96C106.097 125.415 106.356 124.897 106.68 124.42C107.044 123.875 107.462 123.369 107.93 122.91C108.464 122.396 109.058 121.95 109.7 121.58ZM120.7 115.87C120.813 115.651 120.947 115.444 121.1 115.25C121.268 115.058 121.468 114.896 121.69 114.77L123.35 113.77C123.488 113.668 123.66 113.625 123.83 113.65C123.95 113.65 124.01 113.78 124.01 113.94C124.017 113.993 124.017 114.047 124.01 114.1L123.93 114.31L110.31 140.09C110.196 140.306 110.062 140.51 109.91 140.7C109.744 140.894 109.544 141.057 109.32 141.18L107.67 142.18C107.528 142.281 107.353 142.324 107.18 142.3C107.06 142.3 107 142.17 107 142.01C106.993 141.957 106.993 141.903 107 141.85L107.08 141.64L120.7 115.87ZM111.16 127C111.173 126.82 111.173 126.64 111.16 126.46V124.97C111.174 124.8 111.174 124.63 111.16 124.46C111.154 124.32 111.12 124.182 111.057 124.057C110.995 123.931 110.908 123.82 110.8 123.73C110.6 123.59 110.23 123.73 109.7 123.98C109.291 124.186 108.942 124.494 108.686 124.874C108.43 125.254 108.277 125.693 108.24 126.15C108.225 126.333 108.225 126.517 108.24 126.7C108.24 126.94 108.24 127.19 108.24 127.45C108.24 127.71 108.24 127.95 108.24 128.19C108.224 128.356 108.224 128.524 108.24 128.69C108.24 128.831 108.272 128.97 108.335 129.097C108.397 129.224 108.488 129.334 108.6 129.42C108.8 129.56 109.16 129.47 109.7 129.17C110.151 128.943 110.532 128.598 110.8 128.17C110.999 127.809 111.122 127.411 111.16 127ZM121.63 124.4C122.176 124.063 122.774 123.82 123.4 123.68C123.815 123.595 124.245 123.616 124.65 123.74C124.979 123.858 125.252 124.093 125.42 124.4C125.602 124.73 125.711 125.094 125.74 125.47C125.74 125.93 125.79 126.47 125.79 126.97C125.79 127.47 125.79 128.03 125.74 128.53C125.693 129.021 125.585 129.505 125.42 129.97C125.231 130.517 124.972 131.038 124.65 131.52C123.884 132.676 122.856 133.635 121.65 134.32C121.107 134.657 120.512 134.904 119.89 135.05C119.473 135.147 119.038 135.13 118.63 135C118.299 134.885 118.024 134.649 117.86 134.34C117.68 134.01 117.574 133.645 117.55 133.27C117.55 132.82 117.49 132.27 117.49 131.78C117.49 131.29 117.49 130.71 117.55 130.21C117.593 129.722 117.697 129.242 117.86 128.78C118.051 128.233 118.31 127.713 118.63 127.23C118.994 126.683 119.416 126.176 119.89 125.72C120.408 125.195 120.993 124.741 121.63 124.37V124.4ZM123.09 129.78C123.103 129.6 123.103 129.42 123.09 129.24V127.76C123.104 127.59 123.104 127.42 123.09 127.25C123.091 127.109 123.059 126.969 122.996 126.842C122.934 126.716 122.842 126.605 122.73 126.52C122.53 126.38 122.17 126.46 121.63 126.77C121.18 126.999 120.8 127.344 120.53 127.77C120.337 128.126 120.214 128.517 120.17 128.92C120.16 129.1 120.16 129.28 120.17 129.46C120.17 129.71 120.17 129.96 120.17 130.21C120.17 130.46 120.17 130.72 120.17 130.95C120.159 131.116 120.159 131.283 120.17 131.45C120.175 131.59 120.21 131.727 120.272 131.853C120.334 131.979 120.422 132.09 120.53 132.18C120.73 132.32 121.1 132.24 121.63 131.93C122.081 131.704 122.462 131.358 122.73 130.93C122.936 130.568 123.059 130.165 123.09 129.75V129.78Z" fill="#FAFAFA"/>
</g>
<defs>
<clipPath id="clip0_2640_67">
<rect width="500" height="297" fill="white"/>
</clipPath>
</defs>
</svg>
